<?xml version="1.0" encoding="iso-8859-1"?>
<!-- Generator: Adobe Illustrator 19.0.0, SVG Export Plug-In . SVG Version: 6.00 Build 0)  -->
<svg version="1.1" id="Capa_1" xmlns="http://www.w3.org/2000/svg" xmlns:xlink="http://www.w3.org/1999/xlink" x="0px" y="0px"
	 viewBox="0 0 480 480" style="enable-background:new 0 0 480 480;" xml:space="preserve">
<g>
	<g>
		<path d="M276.27,160.699c2.451-5.226,3.725-10.927,3.73-16.699c0-22.091-17.909-40-40-40c-22.091,0-40,17.909-40,40
			c0.006,5.772,1.279,11.473,3.73,16.699c-25.212,4.212-43.697,26.013-43.73,51.574V288c0,4.418,3.582,8,8,8h24v104
			c0,4.418,3.582,8,8,8h80c4.418,0,8-3.582,8-8V296h24c4.418,0,8-3.582,8-8v-75.727C319.967,186.712,301.481,164.911,276.27,160.699
			z M304,280h-16v-80h-16v192h-24V280h-16v112h-24V200h-16v80h-16v-67.727c0.023-20.024,16.25-36.25,36.273-36.273h6.762
			c4.418,0,7.999-3.581,7.999-7.999c0-2.307-0.996-4.502-2.733-6.021c-5.263-4.491-8.297-11.061-8.301-17.98
			c0-13.255,10.745-24,24-24s24,10.745,24,24c-0.004,6.919-3.037,13.489-8.301,17.98c-3.325,2.908-3.663,7.961-0.755,11.287
			c1.519,1.737,3.714,2.733,6.021,2.733h6.762c20.024,0.023,36.25,16.25,36.273,36.273V280z"/>
	</g>
</g>
<g>
	<g>
		<rect x="384" y="40" width="16" height="16"/>
	</g>
</g>
<g>
	<g>
		<rect x="432" y="40" width="16" height="16"/>
	</g>
</g>
<g>
	<g>
		<path d="M429.855,72.211c-4.828,7.652-14.946,9.941-22.598,5.113c-2.064-1.302-3.811-3.049-5.113-5.113l-12.289,10.242
			c10.193,14.439,30.161,17.882,44.6,7.689c2.983-2.106,5.584-4.706,7.689-7.689L429.855,72.211z"/>
	</g>
</g>
<g>
	<g>
		<path d="M416,0c-35.346,0-64,28.654-64,64c0,35.346,28.654,64,64,64c35.346,0,64-28.654,64-64C479.96,28.671,451.329,0.04,416,0z
			 M416,112c-26.51,0-48-21.49-48-48s21.49-48,48-48c26.51,0,48,21.49,48,48C463.971,90.498,442.498,111.971,416,112z"/>
	</g>
</g>
<g>
	<g>
		<polygon points="432,416 432,400 416,400 416,416 400,416 400,432 416,432 416,448 432,448 432,432 448,432 448,416 		"/>
	</g>
</g>
<g>
	<g>
		<path d="M424,368c-30.928,0-56,25.072-56,56c0,30.928,25.072,56,56,56c30.928,0,56-25.072,56-56
			C479.965,393.086,454.914,368.035,424,368z M424,464c-22.091,0-40-17.909-40-40c0-22.091,17.909-40,40-40
			c22.091,0,40,17.909,40,40C463.974,446.081,446.081,463.974,424,464z"/>
	</g>
</g>
<g>
	<g>
		<path d="M120,360H56c-22.081,0.026-39.974,17.919-40,40v8c0.025,19,13.39,35.369,32,39.195V472c0,3.235,1.949,6.152,4.938,7.391
			c2.99,1.239,6.431,0.554,8.719-1.735L91.313,448H120c22.081-0.026,39.974-17.919,40-40v-8
			C159.974,377.919,142.081,360.026,120,360z M144,408c-0.014,13.249-10.751,23.986-24,24H88c-2.122,0.001-4.156,0.844-5.656,2.344
			L64,452.688V440c0-4.418-3.582-8-8-8c-13.249-0.014-23.986-10.751-24-24v-8c0.014-13.249,10.751-23.986,24-24h64
			c13.249,0.014,23.986,10.751,24,24V408z"/>
	</g>
</g>
<g>
	<g>
		<rect x="112" y="392" width="16" height="16"/>
	</g>
</g>
<g>
	<g>
		<rect x="48" y="392" width="48" height="16"/>
	</g>
</g>
<g>
	<g>
		<path d="M142.503,235.34c-0.512-0.715-1.139-1.341-1.855-1.852l-56-40c-3.596-2.567-8.593-1.733-11.16,1.864
			c-0.983,1.377-1.504,3.03-1.488,4.722L72.145,216H8c-4.418,0-8,3.582-8,8v32c0,4.418,3.582,8,8,8h64.219v16
			c-0.001,4.417,3.578,7.999,7.995,8c1.674,0.001,3.306-0.524,4.665-1.5l55.781-40C144.251,243.927,145.076,238.931,142.503,235.34z
			 M88.219,264.418V256c0-4.418-3.582-8-8-8H16v-16h64.219c4.416,0.003,7.998-3.575,8-7.991c0-0.028,0-0.055,0-0.083l-0.074-8.277
			l34.109,24.363L88.219,264.418z"/>
	</g>
</g>
<g>
	<g>
		<path d="M472,216h-64.219v-16c0-4.417-3.58-7.999-7.998-7.999c-1.673,0-3.303,0.524-4.662,1.499l-55.781,40
			c-3.591,2.573-4.416,7.569-1.843,11.16c0.512,0.715,1.139,1.341,1.855,1.852l56,40c3.597,2.567,8.593,1.732,11.16-1.865
			c0.983-1.377,1.504-3.03,1.488-4.722L407.855,264H472c4.418,0,8-3.582,8-8v-32C480,219.582,476.418,216,472,216z M464,248h-64.219
			c-4.416-0.003-7.998,3.575-8,7.991c0,0.028,0,0.055,0,0.083l0.074,8.277l-34.109-24.363l34.035-24.406V224c0,4.418,3.582,8,8,8
			H464V248z"/>
	</g>
</g>
<g>
	<g>
		<rect x="464" y="120" width="16" height="16"/>
	</g>
</g>
<g>
	<g>
		<rect x="464" y="152" width="16" height="16"/>
	</g>
</g>
<g>
	<g>
		<rect x="464" y="184" width="16" height="16"/>
	</g>
</g>
<g>
	<g>
		<rect x="464" y="280" width="16" height="16"/>
	</g>
</g>
<g>
	<g>
		<rect x="464" y="312" width="16" height="16"/>
	</g>
</g>
<g>
	<g>
		<rect x="464" y="344" width="16" height="16"/>
	</g>
</g>
<g>
	<g>
		<rect x="0" y="280" width="16" height="16"/>
	</g>
</g>
<g>
	<g>
		<rect x="0" y="312" width="16" height="16"/>
	</g>
</g>
<g>
	<g>
		<rect x="0" y="344" width="16" height="16"/>
	</g>
</g>
<g>
	<g>
		<rect x="0" y="120" width="16" height="16"/>
	</g>
</g>
<g>
	<g>
		<rect x="0" y="152" width="16" height="16"/>
	</g>
</g>
<g>
	<g>
		<rect x="0" y="184" width="16" height="16"/>
	</g>
</g>
<g>
	<g>
		<path d="M128.839,46.687c-0.137-0.141-0.276-0.28-0.417-0.417c-8.746-8.504-22.227-9.789-32.422-3.09
			c-10.196-6.696-23.674-5.411-32.422,3.09c-9.939,9.708-10.126,25.636-0.417,35.575c0.137,0.141,0.276,0.28,0.417,0.417
			l26.816,26.332c3.112,3.057,8.099,3.057,11.211,0l26.816-26.332C138.361,72.553,138.548,56.626,128.839,46.687z M117.421,70.638
			c-0.069,0.071-0.139,0.141-0.21,0.21h0L96,91.676L74.789,70.848c-3.635-3.519-3.729-9.319-0.21-12.954
			c0.069-0.071,0.139-0.141,0.21-0.21c3.846-3.74,9.97-3.74,13.816,0l1.789,1.758c3.113,3.055,8.098,3.055,11.211,0l1.789-1.758
			c3.848-3.734,9.968-3.734,13.816,0C120.846,61.203,120.94,67.003,117.421,70.638z"/>
	</g>
</g>
<g>
	<g>
		<path d="M159,37.158C146.32,14.237,122.195,0.008,96,0C83.799,0,71.798,3.096,61.121,9h-0.004
			c-34.805,19.254-47.412,63.077-28.158,97.883s63.078,47.412,97.883,28.158C165.647,115.787,178.254,71.964,159,37.158z
			 M123.111,120.998C114.813,125.59,105.484,127.999,96,128c-30.932-0.004-56.004-25.082-56-56.014
			c0.002-20.368,11.063-39.13,28.883-48.994h-0.004c27.064-14.976,61.143-5.177,76.119,21.887S150.174,106.022,123.111,120.998z"/>
	</g>
</g>
<g>
</g>
<g>
</g>
<g>
</g>
<g>
</g>
<g>
</g>
<g>
</g>
<g>
</g>
<g>
</g>
<g>
</g>
<g>
</g>
<g>
</g>
<g>
</g>
<g>
</g>
<g>
</g>
<g>
</g>
</svg>
