<?xml version="1.0" encoding="UTF-8" standalone="no"?><!DOCTYPE svg PUBLIC "-//W3C//DTD SVG 1.1//EN" "http://www.w3.org/Graphics/SVG/1.1/DTD/svg11.dtd"><svg width="100%" height="100%" viewBox="0 0 1920 1080" version="1.1" xmlns="http://www.w3.org/2000/svg" xmlns:xlink="http://www.w3.org/1999/xlink" xml:space="preserve" xmlns:serif="http://www.serif.com/" style="fill-rule:evenodd;clip-rule:evenodd;stroke-linejoin:round;stroke-miterlimit:2;"><path d="M76.303,92.664l-0.528,0.634l-0.634,0.528l-0.527,0.633l-0.95,0.211l-1.162,0l-0.844,0.317l-0.528,0.633l-0.95,0.211l-2.322,0l-0.845,0.317l-0.528,0.633l-0.95,0.211l-6.967,0l-0.844,-0.211l-0.528,-0.633l-0.633,0l-0.528,0.633l-0.95,0.211l-0.845,-0.211l-0.527,-0.633l-0.951,-0.317l-2.322,0l-0.844,0.317l-0.528,0.633l-0.634,0l-0.527,-0.633l-0.95,-0.317l-5.806,0l-0.845,0.317l-0.527,0.633l-0.951,0.211l-9.289,0l-0.844,-0.211l-0.528,-0.633l-0.634,-0.528l-0.527,-0.633l-0.634,-0.528l-0.528,-0.633l-0.633,-0.528l-0.211,-0.845l0,-1.161l0.211,-0.95l0.633,-0.528l0.528,-0.633l0.845,-0.317l0.95,-0.211l0.528,-0.633l0.633,0l0.528,0.633l0.633,0l0.528,-0.633l0.844,-0.317l10.451,0l0.95,-0.211l0.528,-0.633l0.844,-0.317l0.95,-0.211l0.317,-0.845l0.211,-0.95l0.634,-0.528l0.316,-0.844l0,-33.674l0.211,-0.95l0.634,-0.528l0.316,-0.844l0,-3.484l0.211,-0.95l0.634,-0.528l0,-0.633l-0.634,-0.528l-0.211,-0.844l0,-6.967l-0.316,-0.95l-0.634,-0.528l-0.527,-0.633l-0.634,-0.528l-0.528,-0.634l-0.95,-0.316l-3.483,0l-0.845,-0.211l-0.527,-0.634l-0.951,-0.316l-3.483,0l-0.845,-0.212l-0.211,-0.844l0.211,-0.95l0.634,0l0.528,0.633l0.844,0.211l0.95,-0.211l0.528,-0.633l0.633,-0.528l0.528,-0.633l0.845,-0.317l9.289,0l0.95,0.317l0.528,0.633l0.844,0.211l0.95,0.317l0.528,0.633l0.634,0.528l0.527,0.633l0.634,0.528l0.316,0.95l0.212,0.845l0.633,0.528l0,0.633l-0.633,0.528l-0.212,0.95l0,2.322l-0.316,0.845l-0.634,0.527l0,0.634l0.634,0.528l0,0.633l-0.634,0.528l-0.211,0.95l-0.316,0.844l-0.951,0.211l-0.844,0.317l0,0.633l0.633,0.528l0,0.634l-0.633,0.527l0,0.634l0.844,0.211l0.951,0.317l0.527,0.633l0.634,0.528l0.316,0.95l0,15.095l0.212,0.844l0.633,0.528l0.317,0.95l0,18.579l0.211,0.844l0.633,0.528l0.317,0.95l0.211,0.845l0.844,0.211l0.95,0.317l0.528,0.633l0.845,0.211l11.611,0l0.95,0.317l0.528,0.633l0.845,0.211l0.95,0.317l0.316,0.95l0.212,0.845l0.633,0.527l0,0.634l-0.633,0.527Z" style="fill-rule:nonzero;"/><path d="M117.771,77.463l0,-1.161l-0.317,-0.95l-0.633,-0.528l-0.528,-0.634l-0.633,-0.527l-0.528,-0.634l-0.95,-0.316l-3.484,0l-0.844,0.316l-0.528,0.634l-0.95,0.211l-5.806,0l-0.844,0.316l-0.528,0.634l-0.95,0.211l-1.161,0l-0.845,0.317l-0.528,0.633l-0.95,0.211l-0.844,0.317l-0.528,0.633l-0.633,0.528l-0.528,0.633l-0.633,0.528l-0.212,0.95l-0.316,0.845l-0.634,0.527l-0.211,0.95l0,1.162l0.211,0.844l0.634,0.528l0.528,0.633l0.633,0.528l0.528,0.633l0.633,0.528l0.528,0.634l0.844,0.211l6.967,0l0.95,-0.211l0.528,-0.634l0.845,-0.316l0.95,-0.212l0.528,-0.633l0.633,-0.528l0.528,-0.633l0.844,-0.317l0.95,-0.211l0.528,-0.633l0.845,-0.317l0.95,-0.211l0.527,-0.633l0.845,-0.317l0.95,-0.211l0.317,-0.845l0.211,-0.95l0.633,-0.528l0.528,-0.633l0.633,-0.528l0.317,-0.844Zm16.467,16.467l-0.527,0.634l-0.634,0.527l-0.528,0.634l-0.95,0.211l-0.844,0.317l-0.528,0.633l-0.95,0.211l-3.483,0l-0.845,-0.211l-0.528,-0.633l-0.95,-0.317l-0.844,-0.211l-0.528,-0.634l-0.633,-0.527l-0.528,-0.634l-0.95,-0.316l-0.845,-0.212l-0.528,-0.633l-0.633,0l-0.528,0.633l-0.95,0.212l-1.161,0l-0.844,0.316l-0.528,0.634l-0.95,0.211l-0.845,0.316l-0.528,0.634l-0.95,0.211l-1.161,0l-0.844,0.317l-0.528,0.633l-0.95,0.211l-2.322,0l-0.845,0.317l-0.528,0.633l-0.633,0l-0.528,-0.633l-0.95,-0.317l-5.806,0l-0.844,-0.211l-0.528,-0.633l-0.95,-0.317l-0.845,-0.211l-0.527,-0.634l-0.95,-0.316l-0.845,-0.211l-0.528,-0.634l-0.633,-0.528l-0.528,-0.633l-0.633,-0.528l-0.528,-0.633l-0.633,-0.528l-0.528,-0.633l-0.634,-0.528l-0.211,-0.845l-0.316,-0.95l-0.634,-0.527l-0.211,-0.845l0,-1.161l-0.317,-0.95l-0.633,-0.528l-0.211,-0.844l0,-3.484l0.211,-0.95l0.633,-0.528l0.317,-0.844l0,-1.161l0.211,-0.95l0.634,-0.528l0.316,-0.845l0.211,-0.95l0.634,-0.528l0.528,-0.633l0.633,-0.528l0.528,-0.633l0.633,-0.528l0.528,-0.633l0.844,-0.317l1.162,0l0.95,-0.211l0.527,-0.633l0.845,-0.317l1.161,0l0.95,-0.211l0.528,-0.634l0.844,-0.316l4.645,0l0.95,-0.211l0.528,-0.634l0.844,-0.316l3.484,0l0.95,-0.212l0.528,-0.633l0.844,-0.317l5.806,0l0.95,-0.211l0.528,-0.633l0.633,-0.528l0.528,-0.633l0.845,-0.317l0.95,-0.211l0.316,-0.845l0,-2.322l-0.316,-0.95l-0.634,-0.528l0,-0.633l0.634,-0.528l0,-0.633l-0.634,-0.528l-0.211,-0.845l-0.317,-0.95l-0.633,-0.527l-0.528,-0.634l-0.633,-0.528l-0.528,-0.633l-0.95,-0.317l-1.161,0l-0.845,-0.211l-0.527,-0.633l-0.634,0l-0.528,0.633l-0.95,0.211l-8.128,0l-0.844,0.317l-0.528,0.633l-0.633,0.528l-0.528,0.634l-0.634,0.527l-0.211,0.95l0,3.484l-0.316,0.844l-0.634,0.528l-0.528,0.634l-0.633,0.527l-0.528,0.634l-0.95,0.211l-2.322,0l-0.845,-0.211l-0.527,-0.634l-0.95,-0.316l-0.845,-0.211l-0.528,-0.634l-0.633,-0.528l-0.211,-0.844l0,-1.161l-0.317,-0.95l-0.633,-0.528l-0.211,-0.845l0,-1.161l0.211,-0.95l0.633,-0.528l0.317,-0.844l0.211,-0.95l0.633,-0.528l0.528,-0.633l0.633,-0.528l0.528,-0.633l0.845,-0.317l0.95,-0.211l0.528,-0.634l0.844,-0.316l0.95,-0.211l0.528,-0.634l0.844,-0.317l4.645,0l0.95,-0.211l0.528,-0.633l0.633,0l0.528,0.633l0.845,0.211l4.644,0l0.95,0.317l0.528,0.634l0.845,0.211l3.483,0l0.95,0.316l0.528,0.634l0.844,0.211l0.95,0.317l0.528,0.633l0.634,0.528l0.527,0.633l0.634,0.528l0.528,0.633l0.633,0.528l0.528,0.633l0.633,0.528l0.317,0.95l0.211,0.845l0.633,0.528l0.317,0.95l0,5.805l0.211,0.845l0.633,0.528l0.317,0.95l0,18.578l0.211,0.845l0.634,0.528l0.527,0.633l0.634,0.528l0.528,0.633l0.844,0.211l0.95,0.317l0.528,0.633l0.844,0.212l0.95,0.316l0.528,0.634l0.845,0.211l0.95,0.316l0.317,0.95l0,3.484l-0.317,0.844l-0.634,0.528Z" style="fill-rule:nonzero;"/><path d="M184.363,80.899l-0.211,0.95l0,2.323l-0.317,0.844l-0.633,0.528l-0.211,0.95l-0.317,0.844l-0.633,0.528l-0.212,0.95l-0.316,0.845l-0.634,0.528l-0.211,0.95l-0.316,0.844l-0.634,0.528l-0.528,0.633l-0.633,0.528l-0.528,0.633l-0.95,0.211l-0.844,0.317l-0.528,0.634l-0.95,0.211l-0.845,0.316l-0.527,0.634l-0.95,0.211l-5.806,0l-0.845,0.317l-0.528,0.633l-0.95,0.211l-1.161,0l-0.844,-0.211l-0.528,-0.633l-0.95,-0.317l-2.323,0l-0.844,-0.211l-0.528,-0.634l-0.95,-0.316l-4.645,0l-0.844,0.316l-0.528,0.634l-0.95,0.211l-0.844,0.317l-0.528,0.633l-0.95,0.211l-0.845,-0.211l-0.527,-0.633l-0.634,-0.528l-0.528,-0.634l-0.633,-0.527l-0.211,-0.845l0,-3.483l-0.317,-0.95l-0.633,-0.528l-0.211,-0.845l-0.317,-0.95l-0.633,-0.528l-0.211,-0.844l0,-2.322l0.211,-0.951l0.633,-0.527l0.317,-0.845l0.211,-0.95l0.633,-0.528l0.528,-0.633l0.844,-0.317l2.323,0l0.95,0.317l0.317,0.95l0.211,0.845l0.844,0.211l0.95,0.316l0.528,0.634l0.633,0.527l0.528,0.634l0.634,0.528l0.527,0.633l0.845,0.211l0.95,0.317l0.528,0.633l0.844,0.211l1.161,0l0.95,0.317l0.528,0.633l0.845,0.211l1.161,0l0.95,-0.211l0.528,-0.633l0.844,-0.317l3.484,0l0.95,-0.211l0.528,-0.633l0.844,-0.317l0.95,-0.211l0.528,-0.633l0.633,-0.528l0.528,-0.634l0.633,-0.527l0.528,-0.634l0.845,-0.316l0.95,-0.211l0.316,-0.845l0,-2.322l-0.316,-0.95l-0.634,-0.528l-0.527,-0.634l-0.634,-0.527l-0.528,-0.634l-0.95,-0.316l-0.844,-0.211l-0.528,-0.634l-0.95,-0.317l-1.161,0l-0.845,-0.211l-0.527,-0.633l-0.951,-0.317l-2.322,0l-0.844,-0.211l-0.528,-0.633l-0.95,-0.317l-3.484,0l-0.844,-0.211l-0.528,-0.633l-0.95,-0.317l-0.845,-0.211l-0.527,-0.634l-0.634,-0.527l-0.527,-0.634l-0.634,-0.528l-0.528,-0.633l-0.95,-0.317l-0.844,-0.211l-0.211,-0.844l-0.317,-0.95l-0.95,-0.317l-0.845,-0.211l-0.211,-0.845l-0.316,-0.95l-0.634,-0.527l-0.527,-0.634l-0.634,-0.528l-0.211,-0.844l0,-1.161l-0.317,-0.95l-0.633,-0.528l-0.211,-0.845l0.211,-0.95l0.633,-0.527l0.317,-0.845l0,-1.161l0.211,-0.95l0.634,-0.528l0.316,-0.844l0.211,-0.95l0.634,-0.528l0.527,-0.634l0.634,-0.527l0.528,-0.634l0.844,-0.316l0.95,-0.212l0.528,-0.633l0.844,-0.317l0.951,-0.211l0.527,-0.633l0.845,-0.317l1.161,0l0.95,-0.211l0.528,-0.633l0.844,-0.317l0.95,-0.211l0.528,-0.633l0.845,-0.317l1.161,0l0.95,0.317l0.528,0.633l0.844,0.211l2.322,0l0.951,0.317l0.527,0.633l0.845,0.211l9.289,0l0.95,0.317l0.528,0.633l0.633,0.528l0.317,0.95l0.211,0.845l0.634,0.527l0.316,0.95l0,5.806l-0.316,0.845l-0.634,0.528l-0.528,0.633l-0.95,0.211l-1.161,0l-0.844,-0.211l-0.528,-0.633l-0.633,-0.528l-0.528,-0.634l-0.634,-0.527l-0.527,-0.634l-0.634,-0.528l-0.528,-0.633l-0.633,-0.528l-0.528,-0.633l-0.95,-0.317l-0.844,-0.211l-0.528,-0.633l-0.95,-0.317l-3.484,0l-0.844,-0.211l-0.528,-0.633l-0.95,-0.317l-4.645,0l-0.844,-0.211l-0.528,-0.634l-0.633,0l-0.211,0.95l-0.317,0.845l-0.634,0.528l-0.527,0.633l-0.634,0.528l-0.211,0.95l-0.316,0.844l-0.634,0.528l-0.211,0.95l-0.317,0.845l-0.633,0.528l0,0.633l0.633,0.528l0.317,0.95l0.211,0.844l0.634,0.528l0.527,0.633l0.634,0.528l0.527,0.634l0.634,0.527l0.528,0.634l0.844,0.211l4.645,0l0.95,0.317l0.528,0.633l0.844,0.211l1.161,0l0.95,0.317l0.528,0.633l0.845,0.211l4.644,0l0.95,0.317l0.528,0.633l0.845,0.211l1.161,0l0.95,0.317l0.528,0.633l0.844,0.212l0.95,0.316l0.528,0.634l0.633,0.527l0.528,0.634l0.634,0.528l0.527,0.633l0.634,0.528l0.316,0.95l0.212,0.844l0.633,0.528l0.317,0.95l0.211,0.845l0.633,0.527l0.317,0.951l0.211,0.844l0.633,0.528l0.317,0.95l-0.317,0.844l-0.633,0.528Z" style="fill-rule:nonzero;"/><path d="M240.293,78.577l-0.211,0.95l0,2.322l-0.317,0.845l-0.633,0.527l-0.211,0.951l0,2.322l-0.317,0.844l-0.633,0.528l-0.211,0.95l-0.317,0.845l-0.633,0.528l-0.528,0.633l-0.634,0.528l-0.527,0.633l-0.634,0.528l-0.528,0.633l-0.633,0.528l-0.528,0.633l-0.633,0.528l-0.528,0.634l-0.95,0.211l-0.844,0.316l-0.528,0.634l-0.95,0.211l-1.161,0l-0.845,0.317l-0.528,0.633l-0.95,0.211l-5.806,0l-0.844,-0.211l-0.528,-0.633l-0.95,-0.317l-1.161,0l-0.845,-0.211l-0.527,-0.634l-0.95,-0.316l-0.845,-0.211l-0.528,-0.634l-0.633,-0.528l-0.528,-0.633l-0.633,-0.528l-0.528,-0.633l-0.633,-0.528l-0.528,-0.633l-0.634,-0.528l-0.527,-0.633l-0.634,-0.528l-0.528,-0.634l-0.633,-0.527l-0.211,-0.845l-0.317,-0.95l-0.633,-0.528l-0.211,-0.844l0,-1.161l-0.317,-0.951l-0.633,-0.527l-0.211,-0.845l0,-2.322l0.211,-0.95l0.633,-0.528l0.317,-0.844l0,-4.645l0.211,-0.95l0.633,-0.528l0.317,-0.844l-0.317,-0.951l-0.633,-0.527l-0.211,-0.845l0.211,-0.95l0.633,-0.528l0.317,-0.844l0,-9.29l-0.317,-0.95l-0.633,-0.527l-0.211,-0.845l-0.317,-0.95l-0.633,-0.528l-0.528,-0.633l-0.95,-0.317l-0.845,-0.211l-0.527,-0.633l-0.95,-0.317l-3.484,0l-0.844,-0.211l-0.528,-0.633l-0.634,-0.528l-0.527,-0.634l-0.634,-0.527l-0.528,-0.634l-0.633,-0.528l-0.211,-0.844l0.211,-0.95l0.633,-0.528l0.528,-0.633l0.634,-0.528l0.527,-0.633l0.634,-0.528l0.528,-0.634l0.844,-0.316l5.806,0l0.95,0.316l0.528,0.634l0.633,0l0.528,-0.634l0.633,-0.527l0.317,-0.845l0.211,-0.95l0.633,-0.528l0.317,-0.844l0.211,-0.95l0.845,-0.317l0.95,-0.211l0.316,-0.845l0.212,-0.95l0.633,0l0.317,0.95l0.211,0.845l0.633,0.528l0.528,0.633l0.633,0.528l0.317,0.95l0,1.161l0.211,0.845l0.633,0.527l0.528,0.634l0.845,0.211l0.95,0.317l0.528,0.633l0.633,0l0.528,-0.633l0.844,-0.317l2.323,0l0.95,0.317l0.527,0.633l0.845,0.211l6.967,0l0.95,0.317l0.528,0.633l0.633,0.528l0.528,0.633l0.633,0.528l0.317,0.95l-0.317,0.845l-0.633,0.527l-0.528,0.634l-0.633,0.528l-0.528,0.633l-0.95,0.211l-12.773,0l-0.844,0.317l-0.528,0.633l-0.634,0.528l-0.527,0.633l-0.634,0.528l-0.528,0.633l-0.633,0.528l-0.211,0.95l0,2.323l0.211,0.844l0.633,0.528l0,0.633l-0.633,0.528l-0.211,0.95l0,12.773l0.211,0.845l0.633,0.527l0.317,0.95l0,1.162l0.211,0.844l0.634,0.528l0.316,0.95l0,1.161l0.211,0.845l0.634,0.527l0.316,0.95l0.212,0.845l0.844,0.211l0.95,0.317l0.528,0.633l0.844,0.211l4.645,0l0.95,-0.211l0.528,-0.633l0.633,-0.528l0.528,-0.634l0.633,-0.527l0.317,-0.845l0.211,-0.95l0.634,-0.528l0.316,-0.844l0,-1.161l0.211,-0.95l0.634,-0.528l0.316,-0.845l0.212,-0.95l0.633,-0.527l0.528,-0.634l0.844,-0.317l0.95,-0.211l0.528,-0.633l0.845,-0.317l1.161,0l0.95,0.317l0.528,0.633l0.844,0.211l0.95,0.317l0.528,0.634l0.633,0.527l0.317,0.95l0.211,0.845l0.634,0.528l0,0.633l-0.634,0.528Z" style="fill-rule:nonzero;"/><path d="M313.234,56.751l-0.634,-0.528l-0.211,-0.845l-0.316,-0.95l-0.634,-0.527l-0.528,-0.634l-0.633,-0.528l-0.528,-0.633l-0.633,-0.528l-0.528,-0.633l-0.95,-0.317l-0.844,-0.211l-0.528,-0.633l-0.95,-0.317l-0.845,-0.211l-0.528,-0.633l-0.95,-0.317l-4.644,0l-0.845,0.317l-0.528,0.633l-0.633,0.528l-0.528,0.633l-0.633,0.528l-0.528,0.633l-0.633,0.528l-0.528,0.633l-0.633,0.528l-0.212,0.95l-0.316,0.845l-0.634,0.528l-0.211,0.95l0,1.161l0.211,0.844l0.634,0.528l0.316,0.95l0,2.322l0.212,0.845l0.633,0.528l0.528,0.633l0.633,0.528l0.528,0.633l0.633,0.528l0.528,0.633l0.633,0.528l0.528,0.634l0.634,0.527l0.527,0.634l0.845,0.211l0.95,0.317l0.528,0.633l0.844,0.211l1.161,0l0.95,-0.211l0.528,-0.633l0.634,-0.528l0.527,-0.634l0.845,-0.316l0.95,-0.211l0.528,-0.634l0.633,-0.528l0.528,-0.633l0.633,-0.528l0.317,-0.844l0.211,-0.95l0.633,-0.528l0.317,-0.845l0.211,-0.95l0.634,-0.527l0.316,-0.845l0,-1.161l0.211,-0.95l0.634,-0.528l0,-0.633Zm4.961,42.752l0,-1.161l-0.317,-0.95l-0.633,-0.528l-0.211,-0.845l-0.317,-0.95l-0.633,-0.528l-0.528,-0.633l-0.95,-0.317l-0.844,-0.211l-0.528,-0.633l-0.95,-0.317l-0.845,-0.211l-0.528,-0.633l-0.95,-0.317l-1.161,0l-0.844,-0.211l-0.528,-0.633l-0.95,-0.317l-2.322,0l-0.845,0.317l-0.528,0.633l-0.95,0.211l-2.322,0l-0.845,0.317l-0.527,0.633l-0.95,0.211l-2.323,0l-0.844,0.317l-0.528,0.633l-0.95,0.211l-0.845,0.317l-0.527,0.633l-0.634,0.528l-0.528,0.634l-0.633,0.527l-0.211,0.95l0,2.323l0.211,0.844l0.633,0.528l0.528,0.633l0.634,0.528l0.527,0.634l0.845,0.211l0.95,0.316l0.528,0.634l0.844,0.211l0.95,0.317l0.528,0.633l0.845,0.211l0.95,0.317l0.527,0.633l0.845,0.211l0.95,0.317l0.528,0.633l0.844,0.211l0.95,-0.211l0.528,-0.633l0.845,-0.317l2.322,0l0.95,-0.211l0.528,-0.633l0.844,-0.317l2.323,0l0.95,-0.211l0.527,-0.633l0.845,-0.317l0.95,-0.211l0.528,-0.634l0.633,-0.527l0.528,-0.634l0.633,-0.528l0.528,-0.633l0.633,-0.528l0.317,-0.844Zm8.339,2.533l-0.211,0.95l0,1.162l-0.316,0.844l-0.634,0.528l-0.528,0.633l-0.633,0.528l-0.528,0.633l-0.633,0.528l-0.528,0.634l-0.633,0.527l-0.528,0.634l-0.95,0.211l-0.845,0.316l-0.527,0.634l-0.95,0.211l-0.845,0.317l-0.528,0.633l-0.633,0.528l-0.528,0.633l-0.95,0.211l-0.844,0.317l-0.528,0.633l-0.95,0.211l-19.74,0l-0.845,-0.211l-0.527,-0.633l-0.95,-0.317l-0.845,-0.211l-0.528,-0.633l-0.633,-0.528l-0.528,-0.633l-0.95,-0.317l-0.844,-0.211l-0.528,-0.634l-0.95,-0.316l-0.845,-0.211l-0.528,-0.634l-0.633,-0.527l-0.528,-0.634l-0.633,-0.528l-0.211,-0.844l-0.317,-0.95l-0.633,-0.528l-0.211,-0.844l0,-3.484l-0.317,-0.95l-0.633,-0.528l0,-0.633l0.633,-0.528l0.317,-0.845l0,-3.483l0.211,-0.95l0.633,-0.528l0.317,-0.844l0.211,-0.95l0.633,-0.528l0.317,-0.845l0.211,-0.95l0.633,-0.528l0.317,-0.844l0,-1.161l-0.317,-0.95l-0.633,-0.528l-0.211,-0.845l0,-5.805l0.211,-0.95l0.633,-0.528l0.317,-0.845l0.211,-0.95l0.634,-0.528l0.527,-0.633l0.634,-0.528l0.316,-0.844l0.212,-0.95l0.633,-0.528l0,-0.633l-0.633,-0.528l-0.212,-0.845l0,-1.161l-0.316,-0.95l-0.634,-0.528l-0.211,-0.844l0,-4.645l0.211,-0.95l0.634,-0.528l0.316,-0.844l0,-3.484l0.212,-0.95l0.633,-0.528l0.317,-0.844l0.211,-0.95l0.633,-0.528l0.317,-0.844l0.211,-0.95l0.633,-0.528l0.528,-0.634l0.845,-0.316l0.95,-0.211l0.527,-0.634l0.634,-0.528l0.528,-0.633l0.844,-0.317l0.95,-0.211l0.528,-0.633l0.844,-0.317l9.29,0l0.95,0.317l0.528,0.633l0.844,0.211l0.95,0.317l0.528,0.633l0.844,0.212l3.484,0l0.95,-0.212l0.528,-0.633l0.633,-0.528l0.528,-0.633l0.844,-0.317l0.95,-0.211l0.528,-0.633l0.845,-0.317l1.161,0l0.95,0.317l0.528,0.633l0.844,0.211l0.95,0.317l0.528,0.633l0.633,0.528l0.528,0.633l0.634,0.528l0.527,0.634l0.634,0.527l0.316,0.95l-0.316,0.845l-0.634,0.528l-0.527,0.633l-0.634,0.528l-0.528,0.633l-0.633,0.528l-0.528,0.633l-0.95,0.212l-1.161,0l-0.844,0.316l-0.528,0.634l-0.634,0.527l-0.527,0.634l-0.634,0.528l-0.211,0.95l0,6.967l-0.317,0.844l-0.633,0.528l-0.211,0.95l-0.317,0.844l-0.633,0.528l-0.528,0.634l-0.633,0.527l-0.528,0.634l-0.633,0.528l-0.528,0.633l-0.634,0.528l-0.527,0.633l-0.95,0.211l-0.845,0.317l-0.528,0.633l-0.633,0.528l-0.528,0.633l-0.95,0.212l-0.844,0.316l-0.528,0.634l-0.634,0.527l-0.527,0.634l-0.95,0.211l-1.162,0l-0.844,0.317l-0.528,0.633l-0.633,0l-0.528,-0.633l-0.633,0l-0.528,0.633l-0.95,0.211l-3.484,0l-0.844,0.317l-0.528,0.633l-0.633,0.528l-0.528,0.633l-0.634,0.528l0,0.633l0.634,0.528l0.528,0.634l0.633,0.527l0.528,0.634l0.844,0.211l1.161,0l0.95,0.317l0.528,0.633l0.845,0.211l4.644,0l0.95,0.317l0.528,0.633l0.845,0.211l3.483,0l0.95,-0.211l0.528,-0.633l0.845,-0.317l2.322,0l0.95,0.317l0.528,0.633l0.633,0.528l0.528,0.633l0.844,0.211l1.162,0l0.95,0.317l0.527,0.633l0.845,0.212l0.95,0.316l0.528,0.634l0.633,0.527l0.528,0.634l0.633,0.528l0.528,0.633l0.633,0.528l0.528,0.633l0.634,0.528l0.527,0.633l0.634,0.528l0.316,0.95l0,5.806l-0.316,0.844l-0.634,0.528Z" style="fill-rule:nonzero;"/><path d="M383.626,58.837l-0.211,0.95l-0.317,0.844l-0.633,0.528l-0.528,0.634l-0.633,0.527l-0.528,0.634l-0.634,0.528l-0.527,0.633l-0.951,0.211l-1.161,0l-0.844,-0.211l-0.528,-0.633l-0.95,-0.317l-0.844,-0.211l-0.528,-0.634l-0.634,-0.527l-0.527,-0.634l-0.634,-0.528l-0.211,-0.844l-0.317,-0.95l-0.633,-0.528l-0.211,-0.844l0,-1.162l0.211,-0.95l0.633,-0.527l0,-0.634l-0.633,-0.528l-0.528,-0.633l-0.633,-0.528l-0.528,-0.633l-0.95,-0.317l-1.161,0l-0.845,0.317l-0.527,0.633l-0.951,0.211l-0.844,0.317l-0.528,0.633l-0.633,0.528l-0.528,0.634l-0.633,0.527l-0.528,0.634l-0.634,0.528l-0.211,0.95l-0.316,0.844l-0.634,0.528l-0.527,0.633l-0.634,0.528l-0.528,0.633l-0.633,0.528l-0.211,0.95l-0.317,0.845l-0.633,0.528l-0.211,0.95l-0.317,0.844l-0.633,0.528l-0.211,0.95l0,8.128l-0.317,0.845l-0.634,0.527l0,0.634l0.634,0.528l0.317,0.95l0,2.322l0.211,0.845l0.633,0.527l0.317,0.95l0.211,0.845l0.633,0.528l0.528,0.633l0.633,0.528l0.528,0.633l0.845,0.211l0.95,0.317l0.527,0.633l0.845,0.211l3.483,0l0.951,0.317l0.527,0.634l0.845,0.211l0.95,0.316l0.528,0.634l0.633,0.528l0.317,0.95l0,1.161l-0.317,0.844l-0.633,0.528l-0.528,0.633l-0.634,0.528l-0.527,0.634l-0.634,0.527l-0.527,0.634l-0.951,0.211l-12.772,0l-0.845,0.317l-0.528,0.633l-0.95,0.211l-4.644,0l-0.845,-0.211l-0.528,-0.633l-0.95,-0.317l-2.322,0l-0.845,-0.211l-0.527,-0.634l-0.95,-0.316l-1.162,0l-0.844,-0.211l-0.528,-0.634l-0.633,-0.528l-0.528,-0.633l-0.633,-0.528l-0.212,-0.844l0,-2.323l0.212,-0.95l0.633,-0.527l0.528,-0.634l0.633,-0.528l0.528,-0.633l0.844,-0.317l2.323,0l0.95,0.317l0.528,0.633l0.844,0.211l0.95,-0.211l0.528,-0.633l0.844,-0.317l0.95,-0.211l0.317,-0.844l0.211,-0.95l0.634,-0.528l0.316,-0.845l0,-2.322l0.211,-0.95l0.634,-0.528l0.317,-0.844l0,-9.29l-0.317,-0.95l-0.634,-0.528l-0.211,-0.844l0,-1.161l0.211,-0.95l0.634,-0.528l0.317,-0.845l0,-2.322l-0.317,-0.95l-0.634,-0.528l-0.211,-0.844l0,-3.484l-0.316,-0.95l-0.634,-0.528l-0.528,-0.633l-0.633,-0.528l-0.528,-0.633l-0.95,-0.317l-0.844,-0.211l-0.528,-0.633l-0.95,-0.317l-1.161,0l-0.845,-0.211l-0.528,-0.633l-0.95,-0.317l-0.844,-0.211l-0.211,-0.845l-0.317,-0.95l-0.633,-0.528l0,-0.633l0.633,-0.528l0.528,-0.633l0.633,-0.528l0.528,-0.633l0.845,-0.317l4.644,0l0.95,-0.211l0.528,-0.633l0.633,0l0.528,0.633l0.634,0l0.527,-0.633l0.845,-0.317l1.161,0l0.95,0.317l0.528,0.633l0.844,0.211l0.95,0.317l0.528,0.633l0.634,0.528l0.527,0.633l0.634,0.528l0.528,0.633l0.844,0.212l1.161,0l0.95,-0.212l0.528,-0.633l0.845,-0.317l0.95,-0.211l0.527,-0.633l0.634,-0.528l0.528,-0.633l0.844,-0.317l1.161,0l0.95,-0.211l0.528,-0.633l0.845,-0.317l8.128,0l0.95,0.317l0.528,0.633l0.844,0.211l0.95,0.317l0.528,0.633l0.844,0.211l0.951,0.317l0.527,0.633l0.634,0.528l0.528,0.633l0.633,0.528l0.528,0.634l0.633,0.527l0.317,0.95l0.211,0.845l0.633,0.528l0.317,0.95l0,5.806l-0.317,0.844l-0.633,0.528Z" style="fill-rule:nonzero;"/><path d="M419.335,77.463l0,-1.161l-0.317,-0.95l-0.633,-0.528l-0.528,-0.634l-0.633,-0.527l-0.528,-0.634l-0.95,-0.316l-3.484,0l-0.844,0.316l-0.528,0.634l-0.95,0.211l-5.806,0l-0.844,0.316l-0.528,0.634l-0.95,0.211l-1.161,0l-0.845,0.317l-0.527,0.633l-0.951,0.211l-0.844,0.317l-0.528,0.633l-0.633,0.528l-0.528,0.633l-0.633,0.528l-0.211,0.95l-0.317,0.845l-0.634,0.527l-0.211,0.95l0,1.162l0.211,0.844l0.634,0.528l0.528,0.633l0.633,0.528l0.528,0.633l0.633,0.528l0.528,0.634l0.844,0.211l6.967,0l0.951,-0.211l0.527,-0.634l0.845,-0.316l0.95,-0.212l0.528,-0.633l0.633,-0.528l0.528,-0.633l0.844,-0.317l0.95,-0.211l0.528,-0.633l0.845,-0.317l0.95,-0.211l0.528,-0.633l0.844,-0.317l0.95,-0.211l0.317,-0.845l0.211,-0.95l0.633,-0.528l0.528,-0.633l0.633,-0.528l0.317,-0.844Zm16.468,16.467l-0.528,0.634l-0.634,0.527l-0.527,0.634l-0.95,0.211l-0.845,0.317l-0.528,0.633l-0.95,0.211l-3.483,0l-0.845,-0.211l-0.528,-0.633l-0.95,-0.317l-0.844,-0.211l-0.528,-0.634l-0.633,-0.527l-0.528,-0.634l-0.95,-0.316l-0.845,-0.212l-0.527,-0.633l-0.634,0l-0.528,0.633l-0.95,0.212l-1.161,0l-0.844,0.316l-0.528,0.634l-0.95,0.211l-0.845,0.316l-0.527,0.634l-0.951,0.211l-1.161,0l-0.844,0.317l-0.528,0.633l-0.95,0.211l-2.322,0l-0.845,0.317l-0.528,0.633l-0.633,0l-0.528,-0.633l-0.95,-0.317l-5.806,0l-0.844,-0.211l-0.528,-0.633l-0.95,-0.317l-0.845,-0.211l-0.527,-0.634l-0.95,-0.316l-0.845,-0.211l-0.528,-0.634l-0.633,-0.528l-0.528,-0.633l-0.633,-0.528l-0.528,-0.633l-0.633,-0.528l-0.528,-0.633l-0.634,-0.528l-0.211,-0.845l-0.316,-0.95l-0.634,-0.527l-0.211,-0.845l0,-1.161l-0.317,-0.95l-0.633,-0.528l-0.211,-0.844l0,-3.484l0.211,-0.95l0.633,-0.528l0.317,-0.844l0,-1.161l0.211,-0.95l0.634,-0.528l0.316,-0.845l0.211,-0.95l0.634,-0.528l0.528,-0.633l0.633,-0.528l0.528,-0.633l0.633,-0.528l0.528,-0.633l0.844,-0.317l1.162,0l0.95,-0.211l0.527,-0.633l0.845,-0.317l1.161,0l0.95,-0.211l0.528,-0.634l0.844,-0.316l4.645,0l0.95,-0.211l0.528,-0.634l0.844,-0.316l3.484,0l0.95,-0.212l0.528,-0.633l0.844,-0.317l5.806,0l0.95,-0.211l0.528,-0.633l0.633,-0.528l0.528,-0.633l0.845,-0.317l0.95,-0.211l0.316,-0.845l0,-2.322l-0.316,-0.95l-0.634,-0.528l0,-0.633l0.634,-0.528l0,-0.633l-0.634,-0.528l-0.211,-0.845l-0.316,-0.95l-0.634,-0.527l-0.528,-0.634l-0.633,-0.528l-0.528,-0.633l-0.95,-0.317l-1.161,0l-0.844,-0.211l-0.528,-0.633l-0.634,0l-0.527,0.633l-0.951,0.211l-8.128,0l-0.844,0.317l-0.528,0.633l-0.633,0.528l-0.528,0.634l-0.634,0.527l-0.211,0.95l0,3.484l-0.316,0.844l-0.634,0.528l-0.527,0.634l-0.634,0.527l-0.528,0.634l-0.95,0.211l-2.322,0l-0.845,-0.211l-0.527,-0.634l-0.95,-0.316l-0.845,-0.211l-0.528,-0.634l-0.633,-0.528l-0.211,-0.844l0,-1.161l-0.317,-0.95l-0.633,-0.528l-0.211,-0.845l0,-1.161l0.211,-0.95l0.633,-0.528l0.317,-0.844l0.211,-0.95l0.633,-0.528l0.528,-0.633l0.633,-0.528l0.528,-0.633l0.845,-0.317l0.95,-0.211l0.528,-0.634l0.844,-0.316l0.95,-0.211l0.528,-0.634l0.844,-0.317l4.645,0l0.95,-0.211l0.528,-0.633l0.633,0l0.528,0.633l0.845,0.211l4.644,0l0.95,0.317l0.528,0.634l0.845,0.211l3.483,0l0.95,0.316l0.528,0.634l0.845,0.211l0.95,0.317l0.527,0.633l0.634,0.528l0.528,0.633l0.633,0.528l0.528,0.633l0.633,0.528l0.528,0.633l0.633,0.528l0.317,0.95l0.211,0.845l0.633,0.528l0.317,0.95l0,5.805l0.211,0.845l0.634,0.528l0.316,0.95l0,18.578l0.211,0.845l0.634,0.528l0.528,0.633l0.633,0.528l0.528,0.633l0.844,0.211l0.95,0.317l0.528,0.633l0.845,0.212l0.95,0.316l0.527,0.634l0.845,0.211l0.95,0.316l0.317,0.95l0,3.484l-0.317,0.844l-0.633,0.528Z" style="fill-rule:nonzero;"/><path d="M485.927,81.135l-0.211,0.95l0,2.323l-0.317,0.844l-0.633,0.528l-0.211,0.95l-0.317,0.844l-0.633,0.528l-0.211,0.95l-0.317,0.845l-0.634,0.528l-0.211,0.95l-0.316,0.844l-0.634,0.528l-0.528,0.633l-0.633,0.528l-0.528,0.633l-0.95,0.212l-0.844,0.316l-0.528,0.634l-0.95,0.211l-0.845,0.316l-0.527,0.634l-0.95,0.211l-5.806,0l-0.845,0.317l-0.528,0.633l-0.95,0.211l-1.161,0l-0.844,-0.211l-0.528,-0.633l-0.95,-0.317l-2.322,0l-0.845,-0.211l-0.528,-0.634l-0.95,-0.316l-4.644,0l-0.845,0.316l-0.528,0.634l-0.95,0.211l-0.844,0.317l-0.528,0.633l-0.95,0.211l-0.845,-0.211l-0.527,-0.633l-0.634,-0.528l-0.528,-0.634l-0.633,-0.527l-0.211,-0.845l0,-3.483l-0.317,-0.95l-0.633,-0.528l-0.211,-0.845l-0.317,-0.95l-0.633,-0.528l-0.211,-0.844l0,-2.322l0.211,-0.95l0.633,-0.528l0.317,-0.845l0.211,-0.95l0.633,-0.528l0.528,-0.633l0.845,-0.317l2.322,0l0.95,0.317l0.317,0.95l0.211,0.845l0.844,0.211l0.95,0.316l0.528,0.634l0.633,0.528l0.528,0.633l0.634,0.528l0.527,0.633l0.845,0.211l0.95,0.317l0.528,0.633l0.844,0.211l1.161,0l0.95,0.317l0.528,0.633l0.845,0.212l1.161,0l0.95,-0.212l0.528,-0.633l0.844,-0.317l3.484,0l0.95,-0.211l0.528,-0.633l0.844,-0.317l0.95,-0.211l0.528,-0.633l0.633,-0.528l0.528,-0.633l0.633,-0.528l0.528,-0.634l0.845,-0.316l0.95,-0.211l0.316,-0.845l0,-2.322l-0.316,-0.95l-0.634,-0.528l-0.527,-0.633l-0.634,-0.528l-0.528,-0.634l-0.95,-0.316l-0.844,-0.211l-0.528,-0.634l-0.95,-0.316l-1.161,0l-0.845,-0.212l-0.527,-0.633l-0.95,-0.317l-2.323,0l-0.844,-0.211l-0.528,-0.633l-0.95,-0.317l-3.484,0l-0.844,-0.211l-0.528,-0.633l-0.95,-0.317l-0.844,-0.211l-0.528,-0.633l-0.634,-0.528l-0.527,-0.634l-0.634,-0.527l-0.528,-0.634l-0.95,-0.316l-0.844,-0.212l-0.211,-0.844l-0.317,-0.95l-0.95,-0.317l-0.844,-0.211l-0.212,-0.844l-0.316,-0.95l-0.634,-0.528l-0.527,-0.634l-0.634,-0.527l-0.211,-0.845l0,-1.161l-0.317,-0.95l-0.633,-0.528l-0.211,-0.844l0.211,-0.95l0.633,-0.528l0.317,-0.845l0,-1.161l0.211,-0.95l0.634,-0.528l0.316,-0.844l0.211,-0.95l0.634,-0.528l0.528,-0.633l0.633,-0.528l0.528,-0.634l0.844,-0.316l0.95,-0.211l0.528,-0.634l0.845,-0.316l0.95,-0.212l0.527,-0.633l0.845,-0.317l1.161,0l0.95,-0.211l0.528,-0.633l0.844,-0.317l0.95,-0.211l0.528,-0.633l0.845,-0.317l1.161,0l0.95,0.317l0.528,0.633l0.844,0.211l2.323,0l0.95,0.317l0.527,0.633l0.845,0.211l9.289,0l0.95,0.317l0.528,0.633l0.633,0.528l0.317,0.95l0.211,0.845l0.634,0.528l0.316,0.95l0,5.805l-0.316,0.845l-0.634,0.528l-0.528,0.633l-0.95,0.211l-1.161,0l-0.844,-0.211l-0.528,-0.633l-0.633,-0.528l-0.528,-0.633l-0.634,-0.528l-0.527,-0.634l-0.634,-0.527l-0.528,-0.634l-0.633,-0.528l-0.528,-0.633l-0.95,-0.317l-0.844,-0.211l-0.528,-0.633l-0.95,-0.317l-3.484,0l-0.844,-0.211l-0.528,-0.633l-0.95,-0.317l-4.645,0l-0.844,-0.211l-0.528,-0.633l-0.633,0l-0.211,0.95l-0.317,0.844l-0.633,0.528l-0.528,0.633l-0.634,0.528l-0.211,0.95l-0.316,0.845l-0.634,0.527l-0.211,0.95l-0.317,0.845l-0.633,0.528l0,0.633l0.633,0.528l0.317,0.95l0.211,0.844l0.634,0.528l0.527,0.634l0.634,0.527l0.528,0.634l0.633,0.528l0.528,0.633l0.844,0.211l4.645,0l0.95,0.317l0.528,0.633l0.844,0.211l1.161,0l0.95,0.317l0.528,0.633l0.845,0.211l4.644,0l0.95,0.317l0.528,0.633l0.845,0.212l1.161,0l0.95,0.316l0.528,0.634l0.844,0.211l0.95,0.316l0.528,0.634l0.633,0.528l0.528,0.633l0.634,0.528l0.527,0.633l0.634,0.528l0.317,0.95l0.211,0.844l0.633,0.528l0.317,0.95l0.211,0.845l0.633,0.528l0.317,0.95l0.211,0.844l0.633,0.528l0.317,0.95l-0.317,0.844l-0.633,0.528Z" style="fill-rule:nonzero;"/><path d="M537.951,62.684l-0.316,-0.95l-0.634,-0.528l-0.211,-0.844l-0.316,-0.95l-0.634,-0.528l-0.528,-0.633l-0.633,-0.528l-0.211,-0.845l-0.317,-0.95l-0.633,-0.527l-0.528,-0.634l-0.633,-0.528l-0.528,-0.633l-0.633,-0.528l-0.528,-0.633l-0.634,-0.528l-0.527,-0.633l-0.634,-0.528l-0.528,-0.633l-0.95,-0.317l-8.128,0l-0.844,0.317l-0.528,0.633l-0.95,0.211l-2.322,0l-0.845,0.317l-0.528,0.633l-0.633,0.528l-0.528,0.633l-0.633,0.528l-0.528,0.633l-0.633,0.528l-0.212,0.95l0,3.484l-0.316,0.844l-0.634,0.528l-0.211,0.95l0,4.645l-0.316,0.844l-0.634,0.528l-0.211,0.95l0,2.322l0.211,0.845l0.634,0.528l0.316,0.95l0,1.161l0.211,0.844l0.634,0.528l0.316,0.95l0,2.323l0.212,0.844l0.633,0.528l0.317,0.95l0.211,0.844l0.633,0.528l0.528,0.634l0.633,0.527l0.317,0.95l0.211,0.845l0.845,0.211l0.95,0.317l0.527,0.633l0.845,0.211l0.95,0.317l0.528,0.633l0.844,0.211l0.95,0.317l0.528,0.633l0.845,0.212l6.967,0l0.95,-0.212l0.527,-0.633l0.634,-0.528l0.528,-0.633l0.633,-0.528l0.317,-0.844l0.211,-0.95l0.633,-0.528l0.317,-0.845l0.211,-0.95l0.633,-0.528l0.317,-0.844l0,-3.484l0.211,-0.95l0.633,-0.527l0.317,-0.845l0,-2.322l0.211,-0.95l0.634,-0.528l0.316,-0.845l0,-5.805l0.211,-0.95l0.634,-0.528l0.316,-0.845Zm4.856,14.145l-0.211,0.95l0,2.323l-0.317,0.844l-0.633,0.528l-0.211,0.95l0,2.322l-0.317,0.845l-0.633,0.528l-0.528,0.633l-0.633,0.528l-0.528,0.633l-0.633,0.528l-0.528,0.633l-0.634,0.528l-0.527,0.634l-0.634,0.527l-0.528,0.634l-0.95,0.211l-0.844,0.317l-0.528,0.633l-0.633,0.528l-0.528,0.633l-0.633,0.528l-0.528,0.633l-0.95,0.211l-1.161,0l-0.845,0.317l-0.528,0.633l-0.633,0l-0.528,-0.633l-0.633,0l-0.528,0.633l-0.95,0.212l-2.322,0l-0.845,0.316l-0.528,0.634l-0.633,0l-0.528,-0.634l-0.95,-0.316l-4.645,0l-0.844,0.316l-0.528,0.634l-0.633,0.527l-0.528,0.634l-0.633,0.528l-0.212,0.95l-0.316,0.844l-0.634,0.528l-0.211,0.95l0,2.322l0.211,0.845l0.634,0.528l0.316,0.95l0.212,0.844l0.844,0.211l0.95,0.317l0.528,0.633l0.844,0.211l0.95,0.317l0.528,0.634l0.634,0.527l0.527,0.634l0.634,0.527l0.316,0.951l-0.316,0.844l-0.634,0.528l-0.527,0.633l-0.95,0.211l-0.845,0.317l-0.528,0.633l-0.95,0.211l-13.934,0l-0.844,-0.211l-0.528,-0.633l-0.95,-0.317l-0.845,-0.211l-0.527,-0.633l-0.634,-0.528l-0.528,-0.633l-0.633,-0.528l0,-0.634l0.633,-0.527l0.528,-0.634l0.634,-0.527l0.527,-0.634l0.845,-0.317l0.95,-0.211l0.528,-0.633l0.633,-0.528l0.528,-0.633l0.633,-0.528l0.528,-0.633l0.633,-0.528l0.317,-0.845l0,-17.417l0.211,-0.95l0.634,-0.528l0.316,-0.845l0,-20.901l0.211,-0.95l0.634,-0.527l0.316,-0.845l-0.316,-0.95l-0.634,-0.528l-0.211,-0.844l0,-3.484l-0.316,-0.95l-0.634,-0.528l-0.211,-0.844l-0.317,-0.95l-0.633,-0.528l-0.528,-0.633l-0.633,-0.528l-0.528,-0.633l-0.95,-0.317l-0.844,-0.211l-0.528,-0.634l-0.95,-0.316l-0.845,-0.211l0,-0.634l0.634,-0.528l0.527,-0.633l0.845,-0.317l1.161,0l0.95,-0.211l0.528,-0.633l0.844,-0.317l3.484,0l0.95,0.317l0.528,0.633l0.844,0.211l1.161,0l0.95,0.317l0.528,0.633l0.845,0.212l2.322,0l0.95,-0.212l0.528,-0.633l0.844,-0.317l0.95,-0.211l0.528,-0.633l0.845,-0.317l2.322,0l0.95,-0.211l0.528,-0.633l0.844,-0.317l2.323,0l0.95,0.317l0.528,0.633l0.844,0.211l3.484,0l0.95,0.317l0.527,0.633l0.634,0.528l0.528,0.633l0.633,0.528l0.528,0.634l0.844,0.211l0.95,0.316l0.528,0.634l0.633,0.528l0.528,0.633l0.634,0.528l0.527,0.633l0.634,0.528l0.316,0.95l0.212,0.844l0.633,0.528l0.317,0.95l0,1.161l0.211,0.845l0.633,0.528l0.317,0.95l0,1.161l0.211,0.844l0.633,0.528l0.317,0.95l0,1.161l0.211,0.845l0.633,0.528l0.317,0.95l0,4.644l0.211,0.845l0.634,0.528l0.316,0.95l0,2.322l-0.316,0.845l-0.634,0.527Z" style="fill-rule:nonzero;"/><path d="M568.59,90.697l-0.163,0.734l-0.244,0.652l-0.489,0.407l-0.408,0.49l-0.489,0.407l-0.408,0.489l-0.489,0.408l-0.408,0.489l-0.489,0.408l-0.407,0.489l-0.49,0.408l-0.407,0.489l-0.734,0.163l-0.652,0.245l-0.408,0.489l-0.734,0.163l-2.69,0l-0.652,-0.163l-0.408,-0.489l-0.734,-0.245l-0.652,-0.163l-0.408,-0.489l-0.489,-0.408l-0.407,-0.489l-0.49,-0.408l-0.407,-0.489l-0.489,-0.408l-0.163,-0.652l-0.245,-0.734l-0.489,-0.407l-0.408,-0.489l-0.734,-0.245l-0.652,-0.163l-0.163,-0.652l0,-2.691l-0.245,-0.733l-0.489,-0.408l0,-0.489l0.489,-0.408l0.245,-0.652l0.163,-0.734l0.489,-0.408l0.245,-0.652l0,-0.897l0.163,-0.733l0.489,-0.408l0.245,-0.652l0.163,-0.734l0.489,-0.408l0.408,-0.489l0.652,-0.244l0.734,-0.163l0.407,-0.49l0.652,-0.244l0.734,-0.163l0.408,-0.489l0.652,-0.245l0.734,0.245l0.407,0.489l0.653,0.163l0.897,0l0.733,0.244l0.408,0.49l0.652,0.163l0.734,0.244l0.408,0.489l0.652,0.163l0.734,0.245l0.407,0.489l0.489,0.408l0.408,0.489l0.489,0.408l0.408,0.489l0.489,0.407l0.408,0.49l0.489,0.407l0.244,0.734l0,2.69l0.163,0.653l0.49,0.407l0.244,0.734l0,0.897l-0.244,0.652l-0.49,0.408Z" style="fill-rule:nonzero;"/></svg>