<?xml version="1.0" encoding="UTF-8" standalone="no"?>
<!DOCTYPE svg PUBLIC "-//W3C//DTD SVG 1.1//EN" "http://www.w3.org/Graphics/SVG/1.1/DTD/svg11.dtd">
<svg width="100%" height="100%" viewBox="0 0 1044 176" version="1.1" xmlns="http://www.w3.org/2000/svg" xmlns:xlink="http://www.w3.org/1999/xlink" xml:space="preserve" xmlns:serif="http://www.serif.com/" style="fill-rule:evenodd;clip-rule:evenodd;stroke-linejoin:round;stroke-miterlimit:2;">
    <g transform="matrix(1,0,0,1,-118.354,-312.236)">
        <g transform="matrix(208.333,0,0,208.333,580.332,440.481)">
            <path d="M0.349,-0.33L0.343,-0.335L0.341,-0.343L0.338,-0.352L0.332,-0.356L0.327,-0.362L0.321,-0.367L0.316,-0.373L0.311,-0.378L0.306,-0.384L0.297,-0.387L0.289,-0.389L0.284,-0.395L0.275,-0.397L0.268,-0.399L0.263,-0.405L0.254,-0.408L0.211,-0.408L0.203,-0.405L0.198,-0.399L0.192,-0.395L0.188,-0.389L0.182,-0.384L0.177,-0.378L0.171,-0.373L0.166,-0.367L0.16,-0.362L0.158,-0.354L0.155,-0.346L0.149,-0.341L0.147,-0.332L0.147,-0.321L0.149,-0.313L0.155,-0.309L0.158,-0.3L0.158,-0.278L0.16,-0.271L0.166,-0.266L0.171,-0.26L0.177,-0.255L0.182,-0.249L0.188,-0.244L0.192,-0.238L0.198,-0.233L0.203,-0.228L0.209,-0.223L0.214,-0.217L0.222,-0.215L0.23,-0.212L0.235,-0.206L0.243,-0.204L0.254,-0.204L0.263,-0.206L0.268,-0.212L0.273,-0.217L0.278,-0.223L0.286,-0.226L0.295,-0.228L0.3,-0.233L0.306,-0.238L0.311,-0.244L0.316,-0.249L0.319,-0.257L0.321,-0.266L0.327,-0.271L0.33,-0.278L0.332,-0.287L0.338,-0.292L0.341,-0.3L0.341,-0.311L0.343,-0.319L0.349,-0.324L0.349,-0.33ZM0.395,0.065L0.395,0.055L0.392,0.046L0.386,0.041L0.384,0.033L0.381,0.024L0.375,0.02L0.37,0.014L0.361,0.011L0.354,0.009L0.349,0.003L0.34,0L0.332,-0.002L0.327,-0.008L0.318,-0.011L0.308,-0.011L0.3,-0.013L0.295,-0.019L0.286,-0.021L0.265,-0.021L0.257,-0.019L0.252,-0.013L0.243,-0.011L0.222,-0.011L0.214,-0.008L0.209,-0.002L0.2,0L0.179,0L0.171,0.003L0.166,0.009L0.157,0.011L0.149,0.014L0.145,0.02L0.139,0.024L0.134,0.03L0.128,0.035L0.126,0.044L0.126,0.065L0.128,0.073L0.134,0.078L0.139,0.084L0.145,0.089L0.149,0.095L0.157,0.097L0.166,0.1L0.171,0.105L0.179,0.107L0.188,0.11L0.192,0.116L0.2,0.118L0.209,0.121L0.214,0.127L0.222,0.129L0.23,0.132L0.235,0.138L0.243,0.14L0.252,0.138L0.257,0.132L0.265,0.129L0.286,0.129L0.295,0.127L0.3,0.121L0.308,0.118L0.329,0.118L0.338,0.116L0.343,0.11L0.351,0.107L0.359,0.105L0.364,0.1L0.37,0.095L0.375,0.089L0.381,0.084L0.386,0.078L0.392,0.073L0.395,0.065ZM0.472,0.089L0.47,0.098L0.47,0.108L0.467,0.116L0.461,0.121L0.456,0.127L0.45,0.132L0.445,0.138L0.439,0.143L0.435,0.148L0.429,0.153L0.424,0.159L0.415,0.161L0.407,0.164L0.402,0.17L0.394,0.172L0.386,0.175L0.381,0.181L0.375,0.186L0.37,0.191L0.361,0.193L0.354,0.196L0.349,0.202L0.34,0.204L0.157,0.204L0.149,0.202L0.145,0.196L0.136,0.193L0.128,0.191L0.123,0.186L0.117,0.181L0.112,0.175L0.104,0.172L0.096,0.17L0.091,0.164L0.082,0.161L0.074,0.159L0.069,0.153L0.063,0.148L0.059,0.143L0.053,0.138L0.051,0.13L0.048,0.121L0.042,0.116L0.04,0.108L0.04,0.076L0.037,0.067L0.031,0.063L0.031,0.057L0.037,0.052L0.04,0.044L0.04,0.012L0.042,0.003L0.048,-0.002L0.051,-0.01L0.053,-0.019L0.059,-0.023L0.062,-0.031L0.063,-0.04L0.069,-0.045L0.072,-0.053L0.072,-0.063L0.069,-0.072L0.063,-0.077L0.062,-0.085L0.062,-0.139L0.063,-0.147L0.069,-0.152L0.072,-0.16L0.074,-0.169L0.08,-0.174L0.085,-0.18L0.091,-0.185L0.094,-0.192L0.096,-0.201L0.102,-0.206L0.102,-0.212L0.096,-0.217L0.094,-0.225L0.094,-0.235L0.091,-0.244L0.085,-0.249L0.083,-0.257L0.083,-0.3L0.085,-0.309L0.091,-0.313L0.094,-0.321L0.094,-0.354L0.096,-0.362L0.102,-0.367L0.104,-0.375L0.106,-0.384L0.112,-0.389L0.115,-0.396L0.117,-0.405L0.123,-0.41L0.128,-0.416L0.136,-0.419L0.145,-0.421L0.149,-0.427L0.155,-0.432L0.16,-0.438L0.168,-0.44L0.177,-0.442L0.182,-0.448L0.189,-0.451L0.275,-0.451L0.284,-0.448L0.289,-0.442L0.297,-0.44L0.306,-0.438L0.311,-0.432L0.318,-0.43L0.351,-0.43L0.359,-0.432L0.364,-0.438L0.37,-0.442L0.375,-0.448L0.383,-0.451L0.392,-0.453L0.396,-0.459L0.404,-0.462L0.415,-0.462L0.424,-0.459L0.429,-0.453L0.437,-0.451L0.445,-0.448L0.45,-0.442L0.456,-0.438L0.461,-0.432L0.467,-0.427L0.472,-0.421L0.478,-0.416L0.48,-0.407L0.478,-0.399L0.472,-0.395L0.467,-0.389L0.461,-0.384L0.456,-0.378L0.45,-0.373L0.445,-0.367L0.437,-0.365L0.426,-0.365L0.418,-0.362L0.413,-0.356L0.407,-0.352L0.402,-0.346L0.396,-0.341L0.395,-0.332L0.395,-0.268L0.392,-0.26L0.386,-0.255L0.384,-0.246L0.381,-0.238L0.375,-0.233L0.37,-0.228L0.364,-0.223L0.359,-0.217L0.354,-0.212L0.349,-0.206L0.343,-0.201L0.338,-0.195L0.329,-0.193L0.321,-0.19L0.316,-0.185L0.311,-0.18L0.306,-0.174L0.297,-0.172L0.289,-0.169L0.284,-0.163L0.278,-0.158L0.273,-0.152L0.265,-0.15L0.254,-0.15L0.246,-0.147L0.241,-0.142L0.235,-0.142L0.23,-0.147L0.225,-0.147L0.22,-0.142L0.211,-0.14L0.179,-0.14L0.171,-0.137L0.166,-0.131L0.16,-0.126L0.155,-0.12L0.149,-0.115L0.149,-0.109L0.155,-0.104L0.16,-0.099L0.166,-0.094L0.171,-0.088L0.179,-0.086L0.189,-0.086L0.198,-0.083L0.203,-0.077L0.211,-0.075L0.254,-0.075L0.263,-0.072L0.268,-0.066L0.275,-0.064L0.308,-0.064L0.316,-0.066L0.321,-0.072L0.329,-0.075L0.351,-0.075L0.359,-0.072L0.364,-0.066L0.37,-0.062L0.375,-0.056L0.383,-0.054L0.394,-0.054L0.402,-0.051L0.407,-0.045L0.415,-0.043L0.424,-0.04L0.429,-0.034L0.435,-0.029L0.439,-0.023L0.445,-0.019L0.45,-0.013L0.456,-0.008L0.461,-0.002L0.467,0.003L0.472,0.009L0.478,0.014L0.48,0.022L0.48,0.076L0.478,0.084L0.472,0.089Z" style="fill:rgb(51,54,62);fill-rule:nonzero;"/>
        </g>
        <g transform="matrix(208.333,0,0,208.333,683.941,436.243)">
            <path d="M0.495,-0.287L0.493,-0.278L0.49,-0.271L0.484,-0.266L0.479,-0.26L0.474,-0.255L0.469,-0.249L0.463,-0.244L0.458,-0.238L0.449,-0.236L0.438,-0.236L0.431,-0.238L0.426,-0.244L0.417,-0.247L0.409,-0.249L0.404,-0.255L0.398,-0.26L0.394,-0.266L0.388,-0.271L0.386,-0.278L0.383,-0.287L0.377,-0.292L0.375,-0.3L0.375,-0.311L0.377,-0.319L0.383,-0.324L0.383,-0.33L0.377,-0.335L0.372,-0.341L0.366,-0.346L0.361,-0.352L0.353,-0.354L0.342,-0.354L0.334,-0.352L0.329,-0.346L0.32,-0.344L0.313,-0.341L0.308,-0.335L0.302,-0.33L0.297,-0.324L0.291,-0.319L0.286,-0.313L0.28,-0.309L0.278,-0.3L0.275,-0.292L0.27,-0.287L0.265,-0.281L0.259,-0.276L0.254,-0.271L0.248,-0.266L0.246,-0.257L0.243,-0.249L0.237,-0.244L0.235,-0.235L0.232,-0.228L0.227,-0.223L0.225,-0.214L0.225,-0.139L0.222,-0.131L0.216,-0.126L0.216,-0.12L0.222,-0.115L0.225,-0.106L0.225,-0.085L0.227,-0.077L0.232,-0.072L0.235,-0.063L0.237,-0.056L0.243,-0.051L0.248,-0.045L0.254,-0.04L0.259,-0.034L0.267,-0.032L0.275,-0.029L0.28,-0.023L0.288,-0.021L0.32,-0.021L0.329,-0.019L0.334,-0.013L0.342,-0.011L0.351,-0.008L0.355,-0.002L0.361,0.003L0.364,0.012L0.364,0.022L0.361,0.03L0.355,0.035L0.351,0.041L0.345,0.046L0.34,0.052L0.334,0.057L0.329,0.063L0.32,0.064L0.202,0.064L0.194,0.067L0.189,0.073L0.181,0.075L0.138,0.075L0.13,0.073L0.125,0.067L0.116,0.064L0.095,0.064L0.087,0.063L0.082,0.057L0.073,0.054L0.063,0.054L0.055,0.052L0.05,0.046L0.044,0.041L0.039,0.035L0.033,0.03L0.031,0.022L0.031,0.001L0.033,-0.008L0.039,-0.013L0.044,-0.019L0.05,-0.023L0.055,-0.029L0.063,-0.032L0.084,-0.032L0.093,-0.029L0.098,-0.023L0.105,-0.021L0.114,-0.023L0.119,-0.029L0.127,-0.032L0.136,-0.034L0.139,-0.042L0.141,-0.051L0.146,-0.056L0.149,-0.063L0.149,-0.085L0.151,-0.094L0.157,-0.099L0.16,-0.106L0.16,-0.192L0.157,-0.201L0.151,-0.206L0.149,-0.214L0.149,-0.225L0.151,-0.233L0.157,-0.238L0.16,-0.246L0.16,-0.268L0.157,-0.276L0.151,-0.281L0.149,-0.289L0.149,-0.321L0.146,-0.33L0.141,-0.335L0.136,-0.341L0.13,-0.346L0.125,-0.352L0.116,-0.354L0.108,-0.356L0.104,-0.362L0.095,-0.365L0.084,-0.365L0.076,-0.367L0.071,-0.373L0.063,-0.376L0.055,-0.378L0.053,-0.386L0.05,-0.395L0.044,-0.399L0.044,-0.405L0.05,-0.41L0.055,-0.416L0.061,-0.421L0.065,-0.427L0.073,-0.43L0.116,-0.43L0.125,-0.432L0.13,-0.438L0.136,-0.438L0.141,-0.432L0.146,-0.432L0.151,-0.438L0.159,-0.44L0.17,-0.44L0.179,-0.438L0.184,-0.432L0.191,-0.43L0.2,-0.427L0.205,-0.421L0.211,-0.416L0.216,-0.41L0.222,-0.405L0.227,-0.399L0.234,-0.397L0.245,-0.397L0.254,-0.399L0.259,-0.405L0.267,-0.408L0.275,-0.41L0.28,-0.416L0.286,-0.421L0.291,-0.427L0.299,-0.43L0.31,-0.43L0.318,-0.432L0.323,-0.438L0.331,-0.44L0.406,-0.44L0.415,-0.438L0.42,-0.432L0.428,-0.43L0.437,-0.427L0.441,-0.421L0.449,-0.419L0.458,-0.416L0.463,-0.41L0.469,-0.405L0.474,-0.399L0.479,-0.395L0.484,-0.389L0.49,-0.384L0.493,-0.375L0.495,-0.367L0.501,-0.362L0.504,-0.354L0.504,-0.3L0.501,-0.292L0.495,-0.287Z" style="fill:rgb(51,54,62);fill-rule:nonzero;"/>
        </g>
        <g transform="matrix(208.333,0,0,208.333,792.431,438.243)">
            <path d="M0.354,-0.128L0.354,-0.139L0.351,-0.147L0.345,-0.152L0.34,-0.158L0.334,-0.163L0.329,-0.169L0.32,-0.172L0.288,-0.172L0.28,-0.169L0.275,-0.163L0.267,-0.161L0.213,-0.161L0.205,-0.158L0.2,-0.152L0.191,-0.15L0.181,-0.15L0.173,-0.147L0.168,-0.142L0.159,-0.14L0.151,-0.137L0.146,-0.131L0.141,-0.126L0.136,-0.12L0.13,-0.115L0.128,-0.106L0.125,-0.099L0.119,-0.094L0.117,-0.085L0.117,-0.074L0.119,-0.066L0.125,-0.062L0.13,-0.056L0.136,-0.051L0.141,-0.045L0.146,-0.04L0.151,-0.034L0.159,-0.032L0.224,-0.032L0.232,-0.034L0.237,-0.04L0.245,-0.043L0.254,-0.045L0.259,-0.051L0.265,-0.056L0.27,-0.062L0.277,-0.064L0.286,-0.066L0.291,-0.072L0.299,-0.075L0.308,-0.077L0.313,-0.083L0.32,-0.086L0.329,-0.088L0.332,-0.096L0.334,-0.104L0.34,-0.109L0.345,-0.115L0.351,-0.12L0.354,-0.128ZM0.506,0.024L0.501,0.03L0.495,0.035L0.49,0.041L0.481,0.043L0.474,0.046L0.469,0.052L0.46,0.054L0.428,0.054L0.42,0.052L0.415,0.046L0.406,0.043L0.398,0.041L0.394,0.035L0.388,0.03L0.383,0.024L0.374,0.021L0.366,0.02L0.361,0.014L0.355,0.014L0.351,0.02L0.342,0.021L0.331,0.021L0.323,0.024L0.318,0.03L0.31,0.032L0.302,0.035L0.297,0.041L0.288,0.043L0.277,0.043L0.27,0.046L0.265,0.052L0.256,0.054L0.234,0.054L0.227,0.057L0.222,0.063L0.216,0.063L0.211,0.057L0.202,0.054L0.148,0.054L0.141,0.052L0.136,0.046L0.127,0.043L0.119,0.041L0.114,0.035L0.105,0.032L0.098,0.03L0.093,0.024L0.087,0.02L0.082,0.014L0.076,0.009L0.071,0.003L0.065,-0.002L0.061,-0.008L0.055,-0.013L0.053,-0.021L0.05,-0.029L0.044,-0.034L0.042,-0.042L0.042,-0.053L0.039,-0.062L0.033,-0.066L0.031,-0.074L0.031,-0.106L0.033,-0.115L0.039,-0.12L0.042,-0.128L0.042,-0.139L0.044,-0.147L0.05,-0.152L0.053,-0.16L0.055,-0.169L0.061,-0.174L0.065,-0.18L0.071,-0.185L0.076,-0.19L0.082,-0.195L0.087,-0.201L0.095,-0.204L0.105,-0.204L0.114,-0.206L0.119,-0.212L0.127,-0.215L0.138,-0.215L0.146,-0.217L0.151,-0.223L0.159,-0.226L0.202,-0.226L0.211,-0.228L0.216,-0.233L0.224,-0.236L0.256,-0.236L0.265,-0.238L0.27,-0.244L0.277,-0.247L0.331,-0.247L0.34,-0.249L0.345,-0.255L0.351,-0.26L0.355,-0.266L0.363,-0.269L0.372,-0.271L0.375,-0.278L0.375,-0.3L0.372,-0.309L0.366,-0.313L0.366,-0.319L0.372,-0.324L0.372,-0.33L0.366,-0.335L0.364,-0.343L0.361,-0.352L0.355,-0.356L0.351,-0.362L0.345,-0.367L0.34,-0.373L0.331,-0.376L0.32,-0.376L0.313,-0.378L0.308,-0.384L0.302,-0.384L0.297,-0.378L0.288,-0.376L0.213,-0.376L0.205,-0.373L0.2,-0.367L0.194,-0.362L0.189,-0.356L0.184,-0.352L0.182,-0.343L0.182,-0.311L0.179,-0.303L0.173,-0.298L0.168,-0.292L0.162,-0.287L0.157,-0.281L0.148,-0.279L0.127,-0.279L0.119,-0.281L0.114,-0.287L0.105,-0.29L0.098,-0.292L0.093,-0.298L0.087,-0.303L0.085,-0.311L0.085,-0.321L0.082,-0.33L0.076,-0.335L0.074,-0.343L0.074,-0.354L0.076,-0.362L0.082,-0.367L0.085,-0.375L0.087,-0.384L0.093,-0.389L0.098,-0.395L0.104,-0.399L0.108,-0.405L0.116,-0.408L0.125,-0.41L0.13,-0.416L0.138,-0.419L0.146,-0.421L0.151,-0.427L0.159,-0.43L0.202,-0.43L0.211,-0.432L0.216,-0.438L0.222,-0.438L0.227,-0.432L0.234,-0.43L0.277,-0.43L0.286,-0.427L0.291,-0.421L0.299,-0.419L0.331,-0.419L0.34,-0.416L0.345,-0.41L0.353,-0.408L0.361,-0.405L0.366,-0.399L0.372,-0.395L0.377,-0.389L0.383,-0.384L0.388,-0.378L0.394,-0.373L0.398,-0.367L0.404,-0.362L0.407,-0.354L0.409,-0.346L0.415,-0.341L0.418,-0.332L0.418,-0.278L0.42,-0.271L0.426,-0.266L0.429,-0.257L0.429,-0.085L0.431,-0.077L0.437,-0.072L0.441,-0.066L0.447,-0.062L0.452,-0.056L0.46,-0.054L0.469,-0.051L0.474,-0.045L0.481,-0.043L0.49,-0.04L0.495,-0.034L0.503,-0.032L0.512,-0.029L0.515,-0.021L0.515,0.012L0.512,0.02L0.506,0.024Z" style="fill:rgb(51,54,62);fill-rule:nonzero;"/>
        </g>
        <g transform="matrix(208.333,0,0,208.333,903.16,438.243)">
            <path d="M0.431,-0.094L0.429,-0.085L0.429,-0.063L0.426,-0.056L0.42,-0.051L0.418,-0.042L0.415,-0.034L0.409,-0.029L0.407,-0.021L0.404,-0.013L0.398,-0.008L0.396,0.001L0.394,0.009L0.388,0.014L0.383,0.02L0.377,0.024L0.372,0.03L0.363,0.032L0.355,0.035L0.351,0.041L0.342,0.043L0.334,0.046L0.329,0.052L0.32,0.054L0.267,0.054L0.259,0.057L0.254,0.063L0.245,0.064L0.234,0.064L0.227,0.063L0.222,0.057L0.213,0.054L0.191,0.054L0.184,0.052L0.179,0.046L0.17,0.043L0.127,0.043L0.119,0.046L0.114,0.052L0.105,0.054L0.098,0.057L0.093,0.063L0.084,0.064L0.076,0.063L0.071,0.057L0.065,0.052L0.061,0.046L0.055,0.041L0.053,0.033L0.053,0.001L0.05,-0.008L0.044,-0.013L0.042,-0.021L0.039,-0.029L0.033,-0.034L0.031,-0.042L0.031,-0.063L0.033,-0.072L0.039,-0.077L0.042,-0.085L0.044,-0.094L0.05,-0.099L0.055,-0.104L0.063,-0.107L0.084,-0.107L0.093,-0.104L0.096,-0.096L0.098,-0.088L0.105,-0.086L0.114,-0.083L0.119,-0.077L0.125,-0.072L0.13,-0.066L0.136,-0.062L0.141,-0.056L0.148,-0.054L0.157,-0.051L0.162,-0.045L0.17,-0.043L0.181,-0.043L0.189,-0.04L0.194,-0.034L0.202,-0.032L0.213,-0.032L0.222,-0.034L0.227,-0.04L0.234,-0.043L0.267,-0.043L0.275,-0.045L0.28,-0.051L0.288,-0.054L0.297,-0.056L0.302,-0.062L0.308,-0.066L0.313,-0.072L0.318,-0.077L0.323,-0.083L0.331,-0.086L0.34,-0.088L0.343,-0.096L0.343,-0.117L0.34,-0.126L0.334,-0.131L0.329,-0.137L0.323,-0.142L0.318,-0.147L0.31,-0.15L0.302,-0.152L0.297,-0.158L0.288,-0.161L0.277,-0.161L0.27,-0.163L0.265,-0.169L0.256,-0.172L0.234,-0.172L0.227,-0.174L0.222,-0.18L0.213,-0.183L0.181,-0.183L0.173,-0.185L0.168,-0.19L0.159,-0.193L0.151,-0.195L0.146,-0.201L0.141,-0.206L0.136,-0.212L0.13,-0.217L0.125,-0.223L0.116,-0.226L0.108,-0.228L0.106,-0.235L0.104,-0.244L0.095,-0.247L0.087,-0.249L0.085,-0.257L0.082,-0.266L0.076,-0.271L0.071,-0.276L0.065,-0.281L0.063,-0.289L0.063,-0.3L0.061,-0.309L0.055,-0.313L0.053,-0.321L0.055,-0.33L0.061,-0.335L0.063,-0.343L0.063,-0.354L0.065,-0.362L0.071,-0.367L0.074,-0.375L0.076,-0.384L0.082,-0.389L0.087,-0.395L0.093,-0.399L0.098,-0.405L0.105,-0.408L0.114,-0.41L0.119,-0.416L0.127,-0.419L0.136,-0.421L0.141,-0.427L0.148,-0.43L0.159,-0.43L0.168,-0.432L0.173,-0.438L0.181,-0.44L0.189,-0.442L0.194,-0.448L0.202,-0.451L0.213,-0.451L0.222,-0.448L0.227,-0.442L0.234,-0.44L0.256,-0.44L0.265,-0.438L0.27,-0.432L0.277,-0.43L0.363,-0.43L0.372,-0.427L0.377,-0.421L0.383,-0.416L0.386,-0.407L0.388,-0.399L0.394,-0.395L0.396,-0.386L0.396,-0.332L0.394,-0.324L0.388,-0.319L0.383,-0.313L0.374,-0.312L0.363,-0.312L0.355,-0.313L0.351,-0.319L0.345,-0.324L0.34,-0.33L0.334,-0.335L0.329,-0.341L0.323,-0.346L0.318,-0.352L0.313,-0.356L0.308,-0.362L0.299,-0.365L0.291,-0.367L0.286,-0.373L0.277,-0.376L0.245,-0.376L0.237,-0.378L0.232,-0.384L0.224,-0.387L0.181,-0.387L0.173,-0.389L0.168,-0.395L0.162,-0.395L0.16,-0.386L0.157,-0.378L0.151,-0.373L0.146,-0.367L0.141,-0.362L0.139,-0.354L0.136,-0.346L0.13,-0.341L0.128,-0.332L0.125,-0.324L0.119,-0.319L0.119,-0.313L0.125,-0.309L0.128,-0.3L0.13,-0.292L0.136,-0.287L0.141,-0.281L0.146,-0.276L0.151,-0.271L0.157,-0.266L0.162,-0.26L0.17,-0.258L0.213,-0.258L0.222,-0.255L0.227,-0.249L0.234,-0.247L0.245,-0.247L0.254,-0.244L0.259,-0.238L0.267,-0.236L0.31,-0.236L0.318,-0.233L0.323,-0.228L0.331,-0.226L0.342,-0.226L0.351,-0.223L0.355,-0.217L0.363,-0.215L0.372,-0.212L0.377,-0.206L0.383,-0.201L0.388,-0.195L0.394,-0.19L0.398,-0.185L0.404,-0.18L0.407,-0.171L0.409,-0.163L0.415,-0.158L0.418,-0.149L0.42,-0.142L0.426,-0.137L0.429,-0.128L0.431,-0.12L0.437,-0.115L0.439,-0.106L0.437,-0.099L0.431,-0.094Z" style="fill:rgb(51,54,62);fill-rule:nonzero;"/>
        </g>
        <g transform="matrix(208.333,0,0,208.333,998.223,445.243)">
            <path d="M0.448,-0.289L0.445,-0.298L0.439,-0.303L0.438,-0.311L0.435,-0.319L0.429,-0.324L0.424,-0.33L0.418,-0.335L0.416,-0.343L0.413,-0.352L0.407,-0.356L0.402,-0.362L0.396,-0.367L0.392,-0.373L0.386,-0.378L0.381,-0.384L0.375,-0.389L0.37,-0.395L0.364,-0.399L0.359,-0.405L0.351,-0.408L0.275,-0.408L0.268,-0.405L0.263,-0.399L0.254,-0.397L0.232,-0.397L0.225,-0.395L0.22,-0.389L0.214,-0.384L0.209,-0.378L0.203,-0.373L0.198,-0.367L0.192,-0.362L0.19,-0.354L0.19,-0.321L0.188,-0.313L0.182,-0.309L0.18,-0.3L0.18,-0.257L0.177,-0.249L0.171,-0.244L0.169,-0.235L0.169,-0.214L0.171,-0.206L0.177,-0.201L0.18,-0.192L0.18,-0.182L0.182,-0.174L0.188,-0.169L0.19,-0.16L0.19,-0.139L0.192,-0.131L0.198,-0.126L0.201,-0.117L0.203,-0.109L0.209,-0.104L0.214,-0.099L0.22,-0.094L0.223,-0.085L0.225,-0.077L0.232,-0.075L0.241,-0.072L0.246,-0.066L0.254,-0.064L0.263,-0.062L0.268,-0.056L0.275,-0.054L0.284,-0.051L0.289,-0.045L0.297,-0.043L0.361,-0.043L0.37,-0.045L0.375,-0.051L0.381,-0.056L0.386,-0.062L0.392,-0.066L0.395,-0.074L0.396,-0.083L0.402,-0.088L0.405,-0.096L0.407,-0.104L0.413,-0.109L0.416,-0.117L0.416,-0.149L0.418,-0.158L0.424,-0.163L0.427,-0.171L0.427,-0.192L0.429,-0.201L0.435,-0.206L0.438,-0.214L0.438,-0.268L0.439,-0.276L0.445,-0.281L0.448,-0.289ZM0.493,-0.158L0.491,-0.149L0.491,-0.128L0.488,-0.12L0.482,-0.115L0.48,-0.106L0.48,-0.085L0.478,-0.077L0.472,-0.072L0.467,-0.066L0.461,-0.062L0.456,-0.056L0.45,-0.051L0.445,-0.045L0.439,-0.04L0.435,-0.034L0.429,-0.029L0.424,-0.023L0.415,-0.021L0.407,-0.019L0.402,-0.013L0.396,-0.008L0.392,-0.002L0.386,0.003L0.381,0.009L0.372,0.011L0.361,0.011L0.354,0.014L0.349,0.02L0.343,0.02L0.338,0.014L0.332,0.014L0.327,0.02L0.318,0.021L0.297,0.021L0.289,0.024L0.284,0.03L0.278,0.03L0.273,0.024L0.265,0.021L0.222,0.021L0.214,0.024L0.209,0.03L0.203,0.035L0.198,0.041L0.192,0.046L0.19,0.055L0.188,0.063L0.182,0.067L0.18,0.076L0.18,0.098L0.182,0.105L0.188,0.11L0.19,0.119L0.192,0.127L0.2,0.129L0.209,0.132L0.214,0.138L0.222,0.14L0.23,0.143L0.235,0.148L0.241,0.153L0.246,0.159L0.252,0.164L0.255,0.173L0.252,0.181L0.246,0.186L0.241,0.191L0.232,0.193L0.225,0.196L0.22,0.202L0.211,0.204L0.082,0.204L0.074,0.202L0.069,0.196L0.061,0.193L0.053,0.191L0.048,0.186L0.042,0.181L0.037,0.175L0.031,0.17L0.031,0.164L0.037,0.159L0.042,0.153L0.048,0.148L0.053,0.143L0.061,0.14L0.069,0.138L0.074,0.132L0.08,0.127L0.085,0.121L0.091,0.116L0.096,0.11L0.102,0.105L0.104,0.098L0.104,-0.063L0.106,-0.072L0.112,-0.077L0.115,-0.085L0.115,-0.278L0.117,-0.287L0.123,-0.292L0.126,-0.3L0.123,-0.309L0.117,-0.313L0.115,-0.321L0.115,-0.354L0.112,-0.362L0.106,-0.367L0.104,-0.375L0.102,-0.384L0.096,-0.389L0.091,-0.395L0.085,-0.399L0.08,-0.405L0.071,-0.408L0.063,-0.41L0.059,-0.416L0.05,-0.419L0.042,-0.421L0.042,-0.427L0.048,-0.432L0.053,-0.438L0.061,-0.44L0.071,-0.44L0.08,-0.442L0.085,-0.448L0.093,-0.451L0.125,-0.451L0.134,-0.448L0.139,-0.442L0.146,-0.44L0.157,-0.44L0.166,-0.438L0.171,-0.432L0.179,-0.43L0.2,-0.43L0.209,-0.432L0.214,-0.438L0.222,-0.44L0.23,-0.442L0.235,-0.448L0.243,-0.451L0.265,-0.451L0.273,-0.453L0.278,-0.459L0.286,-0.462L0.308,-0.462L0.316,-0.459L0.321,-0.453L0.329,-0.451L0.361,-0.451L0.37,-0.448L0.375,-0.442L0.381,-0.438L0.386,-0.432L0.392,-0.427L0.396,-0.421L0.404,-0.419L0.413,-0.416L0.418,-0.41L0.424,-0.405L0.429,-0.399L0.435,-0.395L0.439,-0.389L0.445,-0.384L0.448,-0.375L0.45,-0.367L0.456,-0.362L0.459,-0.354L0.459,-0.343L0.461,-0.335L0.467,-0.33L0.47,-0.321L0.47,-0.311L0.472,-0.303L0.478,-0.298L0.48,-0.289L0.48,-0.278L0.482,-0.271L0.488,-0.266L0.491,-0.257L0.491,-0.214L0.493,-0.206L0.499,-0.201L0.502,-0.192L0.502,-0.171L0.499,-0.163L0.493,-0.158Z" style="fill:rgb(51,54,62);fill-rule:nonzero;"/>
        </g>
        <g transform="matrix(208.333,0,0,208.333,111.844,437.562)">
            <path d="M0.506,0.024L0.501,0.03L0.495,0.035L0.49,0.041L0.481,0.043L0.471,0.043L0.463,0.046L0.458,0.052L0.449,0.054L0.428,0.054L0.42,0.057L0.415,0.063L0.406,0.064L0.342,0.064L0.334,0.063L0.329,0.057L0.323,0.057L0.318,0.063L0.31,0.064L0.302,0.063L0.297,0.057L0.288,0.054L0.267,0.054L0.259,0.057L0.254,0.063L0.248,0.063L0.243,0.057L0.234,0.054L0.181,0.054L0.173,0.057L0.168,0.063L0.159,0.064L0.073,0.064L0.065,0.063L0.061,0.057L0.055,0.052L0.05,0.046L0.044,0.041L0.039,0.035L0.033,0.03L0.031,0.022L0.031,0.012L0.033,0.003L0.039,-0.002L0.044,-0.008L0.052,-0.011L0.061,-0.013L0.065,-0.019L0.071,-0.019L0.076,-0.013L0.082,-0.013L0.087,-0.019L0.095,-0.021L0.191,-0.021L0.2,-0.023L0.205,-0.029L0.213,-0.032L0.222,-0.034L0.225,-0.042L0.227,-0.051L0.232,-0.056L0.235,-0.063L0.235,-0.375L0.237,-0.384L0.243,-0.389L0.246,-0.396L0.246,-0.429L0.248,-0.438L0.254,-0.442L0.254,-0.448L0.248,-0.453L0.246,-0.461L0.246,-0.525L0.243,-0.534L0.237,-0.539L0.232,-0.545L0.227,-0.55L0.222,-0.556L0.213,-0.559L0.181,-0.559L0.173,-0.561L0.168,-0.566L0.159,-0.569L0.127,-0.569L0.119,-0.571L0.117,-0.579L0.119,-0.588L0.125,-0.588L0.13,-0.582L0.138,-0.58L0.146,-0.582L0.151,-0.588L0.157,-0.593L0.162,-0.599L0.17,-0.602L0.256,-0.602L0.265,-0.599L0.27,-0.593L0.277,-0.591L0.286,-0.588L0.291,-0.582L0.297,-0.577L0.302,-0.571L0.308,-0.566L0.311,-0.558L0.313,-0.55L0.318,-0.545L0.318,-0.539L0.313,-0.534L0.311,-0.525L0.311,-0.504L0.308,-0.496L0.302,-0.491L0.302,-0.485L0.308,-0.48L0.308,-0.475L0.302,-0.47L0.3,-0.461L0.297,-0.453L0.288,-0.451L0.28,-0.448L0.28,-0.442L0.286,-0.438L0.286,-0.432L0.28,-0.427L0.28,-0.421L0.288,-0.419L0.297,-0.416L0.302,-0.41L0.308,-0.405L0.311,-0.396L0.311,-0.257L0.313,-0.249L0.318,-0.244L0.321,-0.235L0.321,-0.063L0.323,-0.056L0.329,-0.051L0.332,-0.042L0.334,-0.034L0.342,-0.032L0.351,-0.029L0.355,-0.023L0.363,-0.021L0.471,-0.021L0.479,-0.019L0.484,-0.013L0.492,-0.011L0.501,-0.008L0.504,0.001L0.506,0.009L0.512,0.014L0.512,0.02L0.506,0.024Z" style="fill:rgb(51,54,62);fill-rule:nonzero;"/>
        </g>
        <g transform="matrix(208.333,0,0,208.333,228.96,438.26)">
            <path d="M0.354,-0.128L0.354,-0.139L0.351,-0.147L0.345,-0.152L0.34,-0.158L0.334,-0.163L0.329,-0.169L0.32,-0.172L0.288,-0.172L0.28,-0.169L0.275,-0.163L0.267,-0.161L0.213,-0.161L0.205,-0.158L0.2,-0.152L0.191,-0.15L0.181,-0.15L0.173,-0.147L0.168,-0.142L0.159,-0.14L0.151,-0.137L0.146,-0.131L0.141,-0.126L0.136,-0.12L0.13,-0.115L0.128,-0.106L0.125,-0.099L0.119,-0.094L0.117,-0.085L0.117,-0.074L0.119,-0.066L0.125,-0.062L0.13,-0.056L0.136,-0.051L0.141,-0.045L0.146,-0.04L0.151,-0.034L0.159,-0.032L0.224,-0.032L0.232,-0.034L0.237,-0.04L0.245,-0.043L0.254,-0.045L0.259,-0.051L0.265,-0.056L0.27,-0.062L0.277,-0.064L0.286,-0.066L0.291,-0.072L0.299,-0.075L0.308,-0.077L0.313,-0.083L0.32,-0.086L0.329,-0.088L0.332,-0.096L0.334,-0.104L0.34,-0.109L0.345,-0.115L0.351,-0.12L0.354,-0.128ZM0.506,0.024L0.501,0.03L0.495,0.035L0.49,0.041L0.481,0.043L0.474,0.046L0.469,0.052L0.46,0.054L0.428,0.054L0.42,0.052L0.415,0.046L0.406,0.043L0.398,0.041L0.394,0.035L0.388,0.03L0.383,0.024L0.374,0.021L0.366,0.02L0.361,0.014L0.355,0.014L0.351,0.02L0.342,0.021L0.331,0.021L0.323,0.024L0.318,0.03L0.31,0.032L0.302,0.035L0.297,0.041L0.288,0.043L0.277,0.043L0.27,0.046L0.265,0.052L0.256,0.054L0.234,0.054L0.227,0.057L0.222,0.063L0.216,0.063L0.211,0.057L0.202,0.054L0.148,0.054L0.141,0.052L0.136,0.046L0.127,0.043L0.119,0.041L0.114,0.035L0.105,0.032L0.098,0.03L0.093,0.024L0.087,0.02L0.082,0.014L0.076,0.009L0.071,0.003L0.065,-0.002L0.061,-0.008L0.055,-0.013L0.053,-0.021L0.05,-0.029L0.044,-0.034L0.042,-0.042L0.042,-0.053L0.039,-0.062L0.033,-0.066L0.031,-0.074L0.031,-0.106L0.033,-0.115L0.039,-0.12L0.042,-0.128L0.042,-0.139L0.044,-0.147L0.05,-0.152L0.053,-0.16L0.055,-0.169L0.061,-0.174L0.065,-0.18L0.071,-0.185L0.076,-0.19L0.082,-0.195L0.087,-0.201L0.095,-0.204L0.105,-0.204L0.114,-0.206L0.119,-0.212L0.127,-0.215L0.138,-0.215L0.146,-0.217L0.151,-0.223L0.159,-0.226L0.202,-0.226L0.211,-0.228L0.216,-0.233L0.224,-0.236L0.256,-0.236L0.265,-0.238L0.27,-0.244L0.277,-0.247L0.331,-0.247L0.34,-0.249L0.345,-0.255L0.351,-0.26L0.355,-0.266L0.363,-0.269L0.372,-0.271L0.375,-0.278L0.375,-0.3L0.372,-0.309L0.366,-0.313L0.366,-0.319L0.372,-0.324L0.372,-0.33L0.366,-0.335L0.364,-0.343L0.361,-0.352L0.355,-0.356L0.351,-0.362L0.345,-0.367L0.34,-0.373L0.331,-0.376L0.32,-0.376L0.313,-0.378L0.308,-0.384L0.302,-0.384L0.297,-0.378L0.288,-0.376L0.213,-0.376L0.205,-0.373L0.2,-0.367L0.194,-0.362L0.189,-0.356L0.184,-0.352L0.182,-0.343L0.182,-0.311L0.179,-0.303L0.173,-0.298L0.168,-0.292L0.162,-0.287L0.157,-0.281L0.148,-0.279L0.127,-0.279L0.119,-0.281L0.114,-0.287L0.105,-0.29L0.098,-0.292L0.093,-0.298L0.087,-0.303L0.085,-0.311L0.085,-0.321L0.082,-0.33L0.076,-0.335L0.074,-0.343L0.074,-0.354L0.076,-0.362L0.082,-0.367L0.085,-0.375L0.087,-0.384L0.093,-0.389L0.098,-0.395L0.104,-0.399L0.108,-0.405L0.116,-0.408L0.125,-0.41L0.13,-0.416L0.138,-0.419L0.146,-0.421L0.151,-0.427L0.159,-0.43L0.202,-0.43L0.211,-0.432L0.216,-0.438L0.222,-0.438L0.227,-0.432L0.234,-0.43L0.277,-0.43L0.286,-0.427L0.291,-0.421L0.299,-0.419L0.331,-0.419L0.34,-0.416L0.345,-0.41L0.353,-0.408L0.361,-0.405L0.366,-0.399L0.372,-0.395L0.377,-0.389L0.383,-0.384L0.388,-0.378L0.394,-0.373L0.398,-0.367L0.404,-0.362L0.407,-0.354L0.409,-0.346L0.415,-0.341L0.418,-0.332L0.418,-0.278L0.42,-0.271L0.426,-0.266L0.429,-0.257L0.429,-0.085L0.431,-0.077L0.437,-0.072L0.441,-0.066L0.447,-0.062L0.452,-0.056L0.46,-0.054L0.469,-0.051L0.474,-0.045L0.481,-0.043L0.49,-0.04L0.495,-0.034L0.503,-0.032L0.512,-0.029L0.515,-0.021L0.515,0.012L0.512,0.02L0.506,0.024Z" style="fill:rgb(51,54,62);fill-rule:nonzero;"/>
        </g>
        <g transform="matrix(208.333,0,0,208.333,339.668,438.481)">
            <path d="M0.431,-0.094L0.429,-0.085L0.429,-0.063L0.426,-0.056L0.42,-0.051L0.418,-0.042L0.415,-0.034L0.409,-0.029L0.407,-0.021L0.404,-0.013L0.398,-0.008L0.396,0.001L0.394,0.009L0.388,0.014L0.383,0.02L0.377,0.024L0.372,0.03L0.363,0.032L0.355,0.035L0.351,0.041L0.342,0.043L0.334,0.046L0.329,0.052L0.32,0.054L0.267,0.054L0.259,0.057L0.254,0.063L0.245,0.064L0.234,0.064L0.227,0.063L0.222,0.057L0.213,0.054L0.191,0.054L0.184,0.052L0.179,0.046L0.17,0.043L0.127,0.043L0.119,0.046L0.114,0.052L0.105,0.054L0.098,0.057L0.093,0.063L0.084,0.064L0.076,0.063L0.071,0.057L0.065,0.052L0.061,0.046L0.055,0.041L0.053,0.033L0.053,0.001L0.05,-0.008L0.044,-0.013L0.042,-0.021L0.039,-0.029L0.033,-0.034L0.031,-0.042L0.031,-0.063L0.033,-0.072L0.039,-0.077L0.042,-0.085L0.044,-0.094L0.05,-0.099L0.055,-0.104L0.063,-0.107L0.084,-0.107L0.093,-0.104L0.096,-0.096L0.098,-0.088L0.105,-0.086L0.114,-0.083L0.119,-0.077L0.125,-0.072L0.13,-0.066L0.136,-0.062L0.141,-0.056L0.148,-0.054L0.157,-0.051L0.162,-0.045L0.17,-0.043L0.181,-0.043L0.189,-0.04L0.194,-0.034L0.202,-0.032L0.213,-0.032L0.222,-0.034L0.227,-0.04L0.234,-0.043L0.267,-0.043L0.275,-0.045L0.28,-0.051L0.288,-0.054L0.297,-0.056L0.302,-0.062L0.308,-0.066L0.313,-0.072L0.318,-0.077L0.323,-0.083L0.331,-0.086L0.34,-0.088L0.343,-0.096L0.343,-0.117L0.34,-0.126L0.334,-0.131L0.329,-0.137L0.323,-0.142L0.318,-0.147L0.31,-0.15L0.302,-0.152L0.297,-0.158L0.288,-0.161L0.277,-0.161L0.27,-0.163L0.265,-0.169L0.256,-0.172L0.234,-0.172L0.227,-0.174L0.222,-0.18L0.213,-0.183L0.181,-0.183L0.173,-0.185L0.168,-0.19L0.159,-0.193L0.151,-0.195L0.146,-0.201L0.141,-0.206L0.136,-0.212L0.13,-0.217L0.125,-0.223L0.116,-0.226L0.108,-0.228L0.106,-0.235L0.104,-0.244L0.095,-0.247L0.087,-0.249L0.085,-0.257L0.082,-0.266L0.076,-0.271L0.071,-0.276L0.065,-0.281L0.063,-0.289L0.063,-0.3L0.061,-0.309L0.055,-0.313L0.053,-0.321L0.055,-0.33L0.061,-0.335L0.063,-0.343L0.063,-0.354L0.065,-0.362L0.071,-0.367L0.074,-0.375L0.076,-0.384L0.082,-0.389L0.087,-0.395L0.093,-0.399L0.098,-0.405L0.105,-0.408L0.114,-0.41L0.119,-0.416L0.127,-0.419L0.136,-0.421L0.141,-0.427L0.148,-0.43L0.159,-0.43L0.168,-0.432L0.173,-0.438L0.181,-0.44L0.189,-0.442L0.194,-0.448L0.202,-0.451L0.213,-0.451L0.222,-0.448L0.227,-0.442L0.234,-0.44L0.256,-0.44L0.265,-0.438L0.27,-0.432L0.277,-0.43L0.363,-0.43L0.372,-0.427L0.377,-0.421L0.383,-0.416L0.386,-0.407L0.388,-0.399L0.394,-0.395L0.396,-0.386L0.396,-0.332L0.394,-0.324L0.388,-0.319L0.383,-0.313L0.374,-0.312L0.363,-0.312L0.355,-0.313L0.351,-0.319L0.345,-0.324L0.34,-0.33L0.334,-0.335L0.329,-0.341L0.323,-0.346L0.318,-0.352L0.313,-0.356L0.308,-0.362L0.299,-0.365L0.291,-0.367L0.286,-0.373L0.277,-0.376L0.245,-0.376L0.237,-0.378L0.232,-0.384L0.224,-0.387L0.181,-0.387L0.173,-0.389L0.168,-0.395L0.162,-0.395L0.16,-0.386L0.157,-0.378L0.151,-0.373L0.146,-0.367L0.141,-0.362L0.139,-0.354L0.136,-0.346L0.13,-0.341L0.128,-0.332L0.125,-0.324L0.119,-0.319L0.119,-0.313L0.125,-0.309L0.128,-0.3L0.13,-0.292L0.136,-0.287L0.141,-0.281L0.146,-0.276L0.151,-0.271L0.157,-0.266L0.162,-0.26L0.17,-0.258L0.213,-0.258L0.222,-0.255L0.227,-0.249L0.234,-0.247L0.245,-0.247L0.254,-0.244L0.259,-0.238L0.267,-0.236L0.31,-0.236L0.318,-0.233L0.323,-0.228L0.331,-0.226L0.342,-0.226L0.351,-0.223L0.355,-0.217L0.363,-0.215L0.372,-0.212L0.377,-0.206L0.383,-0.201L0.388,-0.195L0.394,-0.19L0.398,-0.185L0.404,-0.18L0.407,-0.171L0.409,-0.163L0.415,-0.158L0.418,-0.149L0.42,-0.142L0.426,-0.137L0.429,-0.128L0.431,-0.12L0.437,-0.115L0.439,-0.106L0.437,-0.099L0.431,-0.094Z" style="fill:rgb(51,54,62);fill-rule:nonzero;"/>
        </g>
        <g transform="matrix(208.333,0,0,208.333,434.711,440.551)">
            <path d="M0.484,-0.126L0.482,-0.117L0.482,-0.096L0.479,-0.088L0.474,-0.083L0.472,-0.074L0.472,-0.053L0.469,-0.045L0.463,-0.04L0.461,-0.031L0.458,-0.023L0.452,-0.019L0.447,-0.013L0.441,-0.008L0.437,-0.002L0.431,0.003L0.426,0.009L0.42,0.014L0.415,0.02L0.409,0.024L0.404,0.03L0.396,0.032L0.388,0.035L0.383,0.041L0.374,0.043L0.363,0.043L0.355,0.046L0.351,0.052L0.342,0.054L0.288,0.054L0.28,0.052L0.275,0.046L0.267,0.043L0.256,0.043L0.248,0.041L0.243,0.035L0.234,0.032L0.227,0.03L0.222,0.024L0.216,0.02L0.211,0.014L0.205,0.009L0.2,0.003L0.194,-0.002L0.189,-0.008L0.184,-0.013L0.179,-0.019L0.173,-0.023L0.168,-0.029L0.162,-0.034L0.16,-0.042L0.157,-0.051L0.151,-0.056L0.149,-0.063L0.149,-0.074L0.146,-0.083L0.141,-0.088L0.139,-0.096L0.139,-0.117L0.141,-0.126L0.146,-0.131L0.149,-0.139L0.149,-0.182L0.151,-0.19L0.157,-0.195L0.16,-0.203L0.157,-0.212L0.151,-0.217L0.149,-0.225L0.151,-0.233L0.157,-0.238L0.16,-0.246L0.16,-0.332L0.157,-0.341L0.151,-0.346L0.149,-0.354L0.146,-0.362L0.141,-0.367L0.136,-0.373L0.127,-0.376L0.119,-0.378L0.114,-0.384L0.105,-0.387L0.073,-0.387L0.065,-0.389L0.061,-0.395L0.055,-0.399L0.05,-0.405L0.044,-0.41L0.039,-0.416L0.033,-0.421L0.031,-0.429L0.033,-0.438L0.039,-0.442L0.044,-0.448L0.05,-0.453L0.055,-0.459L0.061,-0.464L0.065,-0.47L0.073,-0.473L0.127,-0.473L0.136,-0.47L0.141,-0.464L0.146,-0.464L0.151,-0.47L0.157,-0.475L0.16,-0.482L0.162,-0.491L0.168,-0.496L0.171,-0.504L0.173,-0.513L0.181,-0.516L0.189,-0.518L0.192,-0.525L0.194,-0.534L0.2,-0.534L0.203,-0.525L0.205,-0.518L0.211,-0.513L0.216,-0.507L0.222,-0.502L0.225,-0.493L0.225,-0.482L0.227,-0.475L0.232,-0.47L0.237,-0.464L0.245,-0.462L0.254,-0.459L0.259,-0.453L0.265,-0.453L0.27,-0.459L0.277,-0.462L0.299,-0.462L0.308,-0.459L0.313,-0.453L0.32,-0.451L0.385,-0.451L0.394,-0.448L0.398,-0.442L0.404,-0.438L0.409,-0.432L0.415,-0.427L0.418,-0.418L0.415,-0.41L0.409,-0.405L0.404,-0.399L0.398,-0.395L0.394,-0.389L0.385,-0.387L0.267,-0.387L0.259,-0.384L0.254,-0.378L0.248,-0.373L0.243,-0.367L0.237,-0.362L0.232,-0.356L0.227,-0.352L0.225,-0.343L0.225,-0.321L0.227,-0.313L0.232,-0.309L0.232,-0.303L0.227,-0.298L0.225,-0.289L0.225,-0.171L0.227,-0.163L0.232,-0.158L0.235,-0.149L0.235,-0.139L0.237,-0.131L0.243,-0.126L0.246,-0.117L0.246,-0.106L0.248,-0.099L0.254,-0.094L0.257,-0.085L0.259,-0.077L0.267,-0.075L0.275,-0.072L0.28,-0.066L0.288,-0.064L0.331,-0.064L0.34,-0.066L0.345,-0.072L0.351,-0.077L0.355,-0.083L0.361,-0.088L0.364,-0.096L0.366,-0.104L0.372,-0.109L0.375,-0.117L0.375,-0.128L0.377,-0.137L0.383,-0.142L0.386,-0.149L0.388,-0.158L0.394,-0.163L0.398,-0.169L0.406,-0.172L0.415,-0.174L0.42,-0.18L0.428,-0.183L0.438,-0.183L0.447,-0.18L0.452,-0.174L0.46,-0.172L0.469,-0.169L0.474,-0.163L0.479,-0.158L0.482,-0.149L0.484,-0.142L0.49,-0.137L0.49,-0.131L0.484,-0.126Z" style="fill:rgb(51,54,62);fill-rule:nonzero;"/>
        </g>
        <g transform="matrix(1,0,0,1,450.801,-219.946)">
            <text x="655.506px" y="661.926px" style="font-family:'RemingtonNoiseless', 'Remington Noiseless';font-size:208.333px;fill:rgb(51,54,62);">.</text>
        </g>
    </g>
</svg>
