<?xml version="1.0" encoding="UTF-8" standalone="no"?><!DOCTYPE svg PUBLIC "-//W3C//DTD SVG 1.1//EN" "http://www.w3.org/Graphics/SVG/1.1/DTD/svg11.dtd"><svg width="100%" height="100%" viewBox="0 0 253 42" version="1.1" xmlns="http://www.w3.org/2000/svg" xmlns:xlink="http://www.w3.org/1999/xlink" xml:space="preserve" xmlns:serif="http://www.serif.com/" style="fill-rule:evenodd;clip-rule:evenodd;stroke-linejoin:round;stroke-miterlimit:2;"><path d="M129.991,13.969l-0.293,-0.244l-0.098,-0.391l-0.146,-0.439l-0.293,-0.244l-0.244,-0.293l-0.293,-0.244l-0.244,-0.293l-0.293,-0.245l-0.244,-0.293l-0.44,-0.146l-0.391,-0.098l-0.244,-0.293l-0.439,-0.146l-0.391,-0.098l-0.244,-0.293l-0.439,-0.146l-2.149,0l-0.39,0.146l-0.245,0.293l-0.292,0.244l-0.245,0.293l-0.293,0.244l-0.244,0.293l-0.293,0.245l-0.244,0.293l-0.293,0.244l-0.097,0.439l-0.147,0.391l-0.293,0.244l-0.098,0.439l0,0.537l0.098,0.391l0.293,0.244l0.147,0.44l0,1.074l0.097,0.391l0.293,0.244l0.244,0.293l0.293,0.244l0.244,0.293l0.293,0.244l0.245,0.293l0.292,0.244l0.245,0.293l0.293,0.244l0.244,0.293l0.39,0.098l0.44,0.146l0.244,0.293l0.391,0.098l0.537,0l0.439,-0.098l0.244,-0.293l0.293,-0.244l0.244,-0.293l0.391,-0.146l0.439,-0.098l0.245,-0.293l0.293,-0.244l0.244,-0.293l0.293,-0.244l0.146,-0.391l0.098,-0.439l0.293,-0.244l0.146,-0.391l0.098,-0.44l0.293,-0.244l0.146,-0.39l0,-0.537l0.098,-0.44l0.293,-0.244l0,-0.293Zm2.295,19.775l0,-0.537l-0.147,-0.439l-0.293,-0.244l-0.097,-0.391l-0.147,-0.439l-0.293,-0.245l-0.244,-0.293l-0.439,-0.146l-0.391,-0.098l-0.244,-0.293l-0.439,-0.146l-0.391,-0.098l-0.244,-0.293l-0.44,-0.146l-0.537,0l-0.39,-0.098l-0.245,-0.293l-0.439,-0.146l-1.074,0l-0.391,0.146l-0.244,0.293l-0.439,0.098l-1.075,0l-0.39,0.146l-0.244,0.293l-0.44,0.098l-1.074,0l-0.391,0.146l-0.244,0.293l-0.439,0.098l-0.391,0.146l-0.244,0.293l-0.293,0.245l-0.244,0.293l-0.293,0.244l-0.098,0.439l0,1.074l0.098,0.391l0.293,0.244l0.244,0.293l0.293,0.244l0.244,0.293l0.391,0.098l0.439,0.146l0.244,0.293l0.391,0.098l0.439,0.146l0.245,0.293l0.39,0.098l0.44,0.147l0.244,0.293l0.39,0.097l0.44,0.147l0.244,0.293l0.391,0.097l0.439,-0.097l0.244,-0.293l0.391,-0.147l1.074,0l0.439,-0.097l0.245,-0.293l0.39,-0.147l1.074,0l0.44,-0.098l0.244,-0.293l0.391,-0.146l0.439,-0.098l0.244,-0.293l0.293,-0.244l0.244,-0.293l0.293,-0.244l0.244,-0.293l0.293,-0.244l0.147,-0.391Zm3.857,1.172l-0.097,0.44l0,0.537l-0.147,0.39l-0.293,0.245l-0.244,0.293l-0.293,0.244l-0.244,0.293l-0.293,0.244l-0.244,0.293l-0.293,0.244l-0.244,0.293l-0.44,0.098l-0.39,0.146l-0.244,0.293l-0.44,0.098l-0.391,0.146l-0.244,0.293l-0.293,0.244l-0.244,0.293l-0.439,0.098l-0.391,0.146l-0.244,0.293l-0.439,0.098l-9.131,0l-0.391,-0.098l-0.244,-0.293l-0.44,-0.146l-0.39,-0.098l-0.244,-0.293l-0.293,-0.244l-0.244,-0.293l-0.44,-0.146l-0.39,-0.098l-0.245,-0.293l-0.439,-0.146l-0.391,-0.098l-0.244,-0.293l-0.293,-0.244l-0.244,-0.293l-0.293,-0.244l-0.098,-0.391l-0.146,-0.439l-0.293,-0.245l-0.098,-0.39l0,-1.612l-0.146,-0.439l-0.293,-0.244l0,-0.293l0.293,-0.244l0.146,-0.391l0,-1.611l0.098,-0.44l0.293,-0.244l0.146,-0.39l0.098,-0.44l0.293,-0.244l0.147,-0.391l0.097,-0.439l0.293,-0.244l0.147,-0.391l0,-0.537l-0.147,-0.439l-0.293,-0.245l-0.097,-0.39l0,-2.686l0.097,-0.439l0.293,-0.244l0.147,-0.391l0.097,-0.439l0.293,-0.245l0.244,-0.292l0.293,-0.245l0.147,-0.39l0.098,-0.44l0.292,-0.244l0,-0.293l-0.292,-0.244l-0.098,-0.391l0,-0.537l-0.147,-0.439l-0.293,-0.244l-0.097,-0.391l0,-2.148l0.097,-0.44l0.293,-0.244l0.147,-0.391l0,-1.611l0.098,-0.439l0.292,-0.244l0.147,-0.391l0.098,-0.44l0.293,-0.244l0.146,-0.39l0.098,-0.44l0.293,-0.244l0.244,-0.293l0.39,-0.146l0.44,-0.098l0.244,-0.293l0.293,-0.244l0.244,-0.293l0.391,-0.147l0.439,-0.097l0.244,-0.293l0.391,-0.147l4.297,0l0.439,0.147l0.244,0.293l0.391,0.097l0.44,0.147l0.244,0.293l0.39,0.098l1.612,0l0.439,-0.098l0.244,-0.293l0.293,-0.244l0.244,-0.293l0.391,-0.147l0.439,-0.097l0.245,-0.293l0.39,-0.147l0.537,0l0.44,0.147l0.244,0.293l0.391,0.097l0.439,0.147l0.244,0.293l0.293,0.244l0.244,0.293l0.293,0.244l0.244,0.293l0.293,0.244l0.147,0.44l-0.147,0.39l-0.293,0.244l-0.244,0.293l-0.293,0.244l-0.244,0.293l-0.293,0.245l-0.244,0.293l-0.439,0.097l-0.538,0l-0.39,0.147l-0.244,0.293l-0.293,0.244l-0.244,0.293l-0.293,0.244l-0.098,0.439l0,3.223l-0.147,0.391l-0.293,0.244l-0.097,0.439l-0.147,0.391l-0.293,0.244l-0.244,0.293l-0.293,0.244l-0.244,0.293l-0.293,0.244l-0.244,0.293l-0.293,0.244l-0.244,0.293l-0.44,0.098l-0.39,0.146l-0.244,0.293l-0.293,0.245l-0.244,0.292l-0.44,0.098l-0.391,0.147l-0.244,0.293l-0.293,0.244l-0.244,0.293l-0.439,0.097l-0.537,0l-0.391,0.147l-0.244,0.293l-0.293,0l-0.244,-0.293l-0.293,0l-0.244,0.293l-0.44,0.097l-1.611,0l-0.391,0.147l-0.244,0.293l-0.293,0.244l-0.244,0.293l-0.293,0.244l0,0.293l0.293,0.244l0.244,0.293l0.293,0.244l0.244,0.293l0.391,0.098l0.537,0l0.439,0.147l0.245,0.292l0.39,0.098l2.149,0l0.439,0.147l0.244,0.293l0.391,0.097l1.611,0l0.44,-0.097l0.244,-0.293l0.39,-0.147l1.075,0l0.439,0.147l0.244,0.293l0.293,0.244l0.244,0.293l0.391,0.097l0.537,0l0.44,0.147l0.244,0.293l0.39,0.097l0.44,0.147l0.244,0.293l0.293,0.244l0.244,0.293l0.293,0.244l0.244,0.293l0.293,0.244l0.244,0.293l0.293,0.244l0.244,0.293l0.293,0.244l0.147,0.44l0,2.685l-0.147,0.391l-0.293,0.244Z" style="fill:#33363e;fill-rule:nonzero;"/><path d="M162.181,15.1l-0.097,0.44l-0.147,0.39l-0.293,0.245l-0.244,0.293l-0.293,0.244l-0.244,0.293l-0.293,0.244l-0.244,0.293l-0.44,0.097l-0.537,0l-0.39,-0.097l-0.245,-0.293l-0.439,-0.147l-0.391,-0.097l-0.244,-0.293l-0.293,-0.244l-0.244,-0.293l-0.293,-0.245l-0.098,-0.39l-0.146,-0.44l-0.293,-0.244l-0.098,-0.39l0,-0.538l0.098,-0.439l0.293,-0.244l0,-0.293l-0.293,-0.244l-0.244,-0.293l-0.293,-0.244l-0.244,-0.293l-0.44,-0.147l-0.537,0l-0.39,0.147l-0.245,0.293l-0.439,0.097l-0.391,0.147l-0.244,0.293l-0.293,0.244l-0.244,0.293l-0.293,0.244l-0.244,0.293l-0.293,0.244l-0.098,0.44l-0.146,0.39l-0.293,0.244l-0.244,0.293l-0.293,0.244l-0.244,0.293l-0.293,0.245l-0.098,0.439l-0.146,0.391l-0.293,0.244l-0.098,0.439l-0.147,0.391l-0.293,0.244l-0.097,0.439l0,3.76l-0.147,0.391l-0.293,0.244l0,0.293l0.293,0.244l0.147,0.44l0,1.074l0.097,0.39l0.293,0.245l0.147,0.439l0.098,0.391l0.293,0.244l0.244,0.293l0.293,0.244l0.244,0.293l0.39,0.097l0.44,0.147l0.244,0.293l0.391,0.098l1.611,0l0.439,0.146l0.245,0.293l0.39,0.098l0.44,0.146l0.244,0.293l0.293,0.244l0.146,0.44l0,0.537l-0.146,0.39l-0.293,0.245l-0.244,0.293l-0.293,0.244l-0.244,0.293l-0.293,0.244l-0.245,0.293l-0.439,0.097l-5.908,0l-0.391,0.147l-0.244,0.293l-0.439,0.098l-2.149,0l-0.391,-0.098l-0.244,-0.293l-0.439,-0.147l-1.074,0l-0.391,-0.097l-0.244,-0.293l-0.44,-0.147l-0.537,0l-0.39,-0.097l-0.244,-0.293l-0.293,-0.244l-0.245,-0.293l-0.293,-0.245l-0.097,-0.39l0,-1.074l0.097,-0.44l0.293,-0.244l0.245,-0.293l0.293,-0.244l0.244,-0.293l0.39,-0.147l1.075,0l0.439,0.147l0.244,0.293l0.391,0.098l0.439,-0.098l0.244,-0.293l0.391,-0.147l0.439,-0.097l0.147,-0.391l0.098,-0.439l0.293,-0.244l0.146,-0.391l0,-1.074l0.098,-0.44l0.293,-0.244l0.146,-0.39l0,-4.297l-0.146,-0.44l-0.293,-0.244l-0.098,-0.391l0,-0.537l0.098,-0.439l0.293,-0.244l0.146,-0.391l0,-1.074l-0.146,-0.44l-0.293,-0.244l-0.098,-0.39l0,-1.612l-0.146,-0.439l-0.293,-0.244l-0.245,-0.293l-0.293,-0.244l-0.244,-0.293l-0.439,-0.147l-0.391,-0.097l-0.244,-0.293l-0.439,-0.147l-0.537,0l-0.391,-0.098l-0.244,-0.293l-0.44,-0.146l-0.39,-0.098l-0.098,-0.39l-0.146,-0.44l-0.293,-0.244l0,-0.293l0.293,-0.244l0.244,-0.293l0.293,-0.244l0.244,-0.293l0.39,-0.147l2.149,0l0.439,-0.097l0.244,-0.293l0.293,0l0.245,0.293l0.293,0l0.244,-0.293l0.39,-0.147l0.537,0l0.44,0.147l0.244,0.293l0.391,0.097l0.439,0.147l0.244,0.293l0.293,0.244l0.244,0.293l0.293,0.244l0.244,0.293l0.391,0.098l0.537,0l0.44,-0.098l0.244,-0.293l0.39,-0.146l0.44,-0.098l0.244,-0.293l0.293,-0.244l0.244,-0.293l0.391,-0.147l0.537,0l0.439,-0.097l0.244,-0.293l0.391,-0.147l3.76,0l0.439,0.147l0.244,0.293l0.391,0.097l0.439,0.147l0.245,0.293l0.39,0.098l0.44,0.146l0.244,0.293l0.293,0.244l0.244,0.293l0.293,0.244l0.244,0.293l0.293,0.244l0.147,0.44l0.097,0.39l0.293,0.245l0.147,0.439l0,2.686l-0.147,0.39l-0.293,0.244Z" style="fill:#33363e;fill-rule:nonzero;"/><path d="M181.139,23.539l0,-0.537l-0.147,-0.439l-0.293,-0.244l-0.244,-0.293l-0.293,-0.245l-0.244,-0.292l-0.439,-0.147l-1.612,0l-0.39,0.147l-0.244,0.292l-0.44,0.098l-2.685,0l-0.391,0.147l-0.244,0.293l-0.44,0.097l-0.537,0l-0.39,0.147l-0.244,0.293l-0.44,0.097l-0.391,0.147l-0.244,0.293l-0.293,0.244l-0.244,0.293l-0.293,0.244l-0.097,0.44l-0.147,0.39l-0.293,0.244l-0.098,0.44l0,0.537l0.098,0.39l0.293,0.245l0.244,0.293l0.293,0.244l0.244,0.293l0.293,0.244l0.244,0.293l0.391,0.097l3.223,0l0.439,-0.097l0.244,-0.293l0.391,-0.147l0.439,-0.097l0.245,-0.293l0.293,-0.244l0.244,-0.293l0.39,-0.147l0.44,-0.098l0.244,-0.292l0.391,-0.147l0.439,-0.098l0.244,-0.293l0.391,-0.146l0.439,-0.098l0.147,-0.39l0.097,-0.44l0.293,-0.244l0.244,-0.293l0.293,-0.244l0.147,-0.391Zm7.617,7.617l-0.244,0.293l-0.293,0.245l-0.244,0.293l-0.44,0.097l-0.39,0.147l-0.244,0.293l-0.44,0.097l-1.611,0l-0.391,-0.097l-0.244,-0.293l-0.439,-0.147l-0.391,-0.097l-0.244,-0.293l-0.293,-0.245l-0.244,-0.293l-0.44,-0.146l-0.39,-0.098l-0.244,-0.293l-0.293,0l-0.245,0.293l-0.439,0.098l-0.537,0l-0.391,0.146l-0.244,0.293l-0.439,0.098l-0.391,0.147l-0.244,0.293l-0.44,0.097l-0.537,0l-0.39,0.147l-0.244,0.293l-0.44,0.097l-1.074,0l-0.391,0.147l-0.244,0.293l-0.293,0l-0.244,-0.293l-0.439,-0.147l-2.686,0l-0.391,-0.097l-0.244,-0.293l-0.439,-0.147l-0.391,-0.097l-0.244,-0.293l-0.439,-0.147l-0.391,-0.098l-0.244,-0.293l-0.293,-0.244l-0.244,-0.293l-0.293,-0.244l-0.244,-0.293l-0.293,-0.244l-0.245,-0.293l-0.293,-0.244l-0.097,-0.391l-0.147,-0.439l-0.293,-0.244l-0.097,-0.391l0,-0.537l-0.147,-0.439l-0.293,-0.245l-0.097,-0.39l0,-1.611l0.097,-0.44l0.293,-0.244l0.147,-0.391l0,-0.537l0.097,-0.439l0.293,-0.244l0.147,-0.391l0.097,-0.439l0.293,-0.245l0.245,-0.293l0.293,-0.244l0.244,-0.293l0.293,-0.244l0.244,-0.293l0.39,-0.146l0.538,0l0.439,-0.098l0.244,-0.293l0.391,-0.146l0.537,0l0.439,-0.098l0.244,-0.293l0.391,-0.147l2.149,0l0.439,-0.097l0.244,-0.293l0.391,-0.147l1.611,0l0.44,-0.097l0.244,-0.293l0.39,-0.147l2.686,0l0.439,-0.097l0.244,-0.293l0.293,-0.244l0.245,-0.293l0.39,-0.147l0.44,-0.098l0.146,-0.39l0,-1.074l-0.146,-0.44l-0.293,-0.244l0,-0.293l0.293,-0.244l0,-0.293l-0.293,-0.244l-0.098,-0.391l-0.146,-0.439l-0.293,-0.244l-0.245,-0.293l-0.293,-0.245l-0.244,-0.293l-0.439,-0.146l-0.537,0l-0.391,-0.098l-0.244,-0.293l-0.293,0l-0.244,0.293l-0.44,0.098l-3.759,0l-0.391,0.146l-0.244,0.293l-0.293,0.245l-0.244,0.293l-0.293,0.244l-0.098,0.439l0,1.611l-0.146,0.391l-0.293,0.244l-0.244,0.293l-0.293,0.244l-0.245,0.293l-0.439,0.098l-1.074,0l-0.391,-0.098l-0.244,-0.293l-0.439,-0.146l-0.391,-0.098l-0.244,-0.293l-0.293,-0.244l-0.098,-0.391l0,-0.537l-0.146,-0.439l-0.293,-0.244l-0.098,-0.391l0,-0.537l0.098,-0.439l0.293,-0.245l0.146,-0.39l0.098,-0.44l0.293,-0.244l0.244,-0.293l0.293,-0.244l0.244,-0.293l0.391,-0.146l0.439,-0.098l0.244,-0.293l0.391,-0.146l0.439,-0.098l0.244,-0.293l0.391,-0.147l2.149,0l0.439,-0.097l0.244,-0.293l0.293,0l0.244,0.293l0.391,0.097l2.148,0l0.44,0.147l0.244,0.293l0.391,0.098l1.611,0l0.439,0.146l0.244,0.293l0.391,0.098l0.44,0.146l0.244,0.293l0.293,0.244l0.244,0.293l0.293,0.244l0.244,0.293l0.293,0.244l0.244,0.293l0.293,0.245l0.146,0.439l0.098,0.391l0.293,0.244l0.147,0.439l0,2.686l0.097,0.39l0.293,0.245l0.147,0.439l0,8.594l0.097,0.39l0.293,0.245l0.244,0.292l0.293,0.245l0.245,0.293l0.39,0.097l0.44,0.147l0.244,0.293l0.39,0.097l0.44,0.147l0.244,0.293l0.391,0.097l0.439,0.147l0.147,0.439l0,1.612l-0.147,0.39l-0.293,0.244Z" style="fill:#33363e;fill-rule:nonzero;"/><path d="M211.571,25.248l-0.097,0.44l0,1.074l-0.147,0.391l-0.293,0.244l-0.098,0.439l-0.146,0.391l-0.293,0.244l-0.098,0.439l-0.146,0.391l-0.293,0.244l-0.098,0.44l-0.146,0.39l-0.293,0.244l-0.244,0.293l-0.293,0.244l-0.244,0.293l-0.44,0.098l-0.391,0.147l-0.244,0.293l-0.439,0.097l-0.391,0.147l-0.244,0.293l-0.439,0.097l-2.686,0l-0.39,0.147l-0.245,0.293l-0.439,0.097l-0.537,0l-0.391,-0.097l-0.244,-0.293l-0.439,-0.147l-1.075,0l-0.39,-0.097l-0.244,-0.293l-0.44,-0.147l-2.148,0l-0.391,0.147l-0.244,0.293l-0.44,0.097l-0.39,0.147l-0.244,0.293l-0.44,0.097l-0.39,-0.097l-0.245,-0.293l-0.292,-0.244l-0.245,-0.293l-0.293,-0.244l-0.097,-0.391l0,-1.611l-0.147,-0.44l-0.293,-0.244l-0.097,-0.391l-0.147,-0.439l-0.293,-0.244l-0.097,-0.391l0,-1.074l0.097,-0.439l0.293,-0.245l0.147,-0.39l0.097,-0.44l0.293,-0.244l0.244,-0.293l0.391,-0.146l1.074,0l0.44,0.146l0.146,0.44l0.098,0.39l0.39,0.098l0.44,0.146l0.244,0.293l0.293,0.245l0.244,0.292l0.293,0.245l0.244,0.293l0.391,0.097l0.439,0.147l0.245,0.293l0.39,0.097l0.537,0l0.44,0.147l0.244,0.293l0.39,0.097l0.538,0l0.439,-0.097l0.244,-0.293l0.391,-0.147l1.611,0l0.44,-0.097l0.244,-0.293l0.39,-0.147l0.44,-0.097l0.244,-0.293l0.293,-0.245l0.244,-0.292l0.293,-0.245l0.244,-0.293l0.391,-0.146l0.439,-0.098l0.147,-0.39l0,-1.075l-0.147,-0.439l-0.293,-0.244l-0.244,-0.293l-0.293,-0.244l-0.244,-0.293l-0.439,-0.147l-0.391,-0.097l-0.244,-0.293l-0.44,-0.147l-0.537,0l-0.39,-0.098l-0.245,-0.292l-0.439,-0.147l-1.074,0l-0.391,-0.098l-0.244,-0.293l-0.439,-0.146l-1.612,0l-0.39,-0.098l-0.245,-0.293l-0.439,-0.146l-0.391,-0.098l-0.244,-0.293l-0.293,-0.244l-0.244,-0.293l-0.293,-0.244l-0.244,-0.293l-0.439,-0.147l-0.391,-0.097l-0.098,-0.391l-0.146,-0.439l-0.44,-0.147l-0.39,-0.097l-0.098,-0.391l-0.146,-0.439l-0.293,-0.245l-0.245,-0.293l-0.292,-0.244l-0.098,-0.39l0,-0.537l-0.147,-0.44l-0.293,-0.244l-0.097,-0.391l0.097,-0.439l0.293,-0.244l0.147,-0.391l0,-0.537l0.098,-0.439l0.292,-0.245l0.147,-0.39l0.098,-0.44l0.293,-0.244l0.244,-0.293l0.293,-0.244l0.244,-0.293l0.39,-0.146l0.44,-0.098l0.244,-0.293l0.391,-0.146l0.439,-0.098l0.244,-0.293l0.391,-0.147l0.537,0l0.439,-0.097l0.245,-0.293l0.39,-0.147l0.44,-0.097l0.244,-0.293l0.39,-0.147l0.538,0l0.439,0.147l0.244,0.293l0.391,0.097l1.074,0l0.439,0.147l0.245,0.293l0.39,0.097l4.297,0l0.44,0.147l0.244,0.293l0.293,0.244l0.146,0.439l0.098,0.391l0.293,0.244l0.146,0.44l0,2.685l-0.146,0.391l-0.293,0.244l-0.244,0.293l-0.44,0.098l-0.537,0l-0.391,-0.098l-0.244,-0.293l-0.293,-0.244l-0.244,-0.293l-0.293,-0.244l-0.244,-0.293l-0.293,-0.244l-0.244,-0.293l-0.293,-0.244l-0.244,-0.293l-0.44,-0.147l-0.39,-0.098l-0.244,-0.293l-0.44,-0.146l-1.611,0l-0.391,-0.098l-0.244,-0.293l-0.439,-0.146l-2.149,0l-0.39,-0.098l-0.245,-0.293l-0.292,0l-0.098,0.44l-0.147,0.39l-0.293,0.244l-0.244,0.293l-0.293,0.245l-0.097,0.439l-0.147,0.391l-0.293,0.244l-0.097,0.439l-0.147,0.391l-0.293,0.244l0,0.293l0.293,0.244l0.147,0.44l0.097,0.39l0.293,0.244l0.244,0.293l0.293,0.244l0.244,0.293l0.293,0.245l0.245,0.293l0.39,0.097l2.149,0l0.439,0.147l0.244,0.293l0.391,0.097l0.537,0l0.439,0.147l0.245,0.293l0.39,0.097l2.149,0l0.439,0.147l0.244,0.293l0.391,0.097l0.537,0l0.439,0.147l0.244,0.293l0.391,0.098l0.44,0.146l0.244,0.293l0.293,0.244l0.244,0.293l0.293,0.244l0.244,0.293l0.293,0.244l0.146,0.44l0.098,0.39l0.293,0.245l0.146,0.439l0.098,0.391l0.293,0.244l0.147,0.439l0.097,0.391l0.293,0.244l0.147,0.44l-0.147,0.39l-0.293,0.244Z" style="fill:#33363e;fill-rule:nonzero;"/><path d="M235.265,17.163l-0.146,-0.44l-0.293,-0.244l-0.098,-0.391l-0.146,-0.439l-0.293,-0.244l-0.244,-0.293l-0.293,-0.244l-0.098,-0.391l-0.147,-0.439l-0.292,-0.244l-0.245,-0.293l-0.293,-0.245l-0.244,-0.293l-0.293,-0.244l-0.244,-0.293l-0.293,-0.244l-0.244,-0.293l-0.293,-0.244l-0.244,-0.293l-0.439,-0.146l-3.76,0l-0.391,0.146l-0.244,0.293l-0.439,0.098l-1.075,0l-0.39,0.146l-0.244,0.293l-0.293,0.244l-0.245,0.293l-0.293,0.244l-0.244,0.293l-0.293,0.245l-0.097,0.439l0,1.611l-0.147,0.391l-0.293,0.244l-0.097,0.44l0,2.148l-0.147,0.391l-0.293,0.244l-0.098,0.439l0,1.074l0.098,0.391l0.293,0.244l0.147,0.44l0,0.537l0.097,0.39l0.293,0.245l0.147,0.439l0,1.074l0.097,0.391l0.293,0.244l0.147,0.439l0.097,0.391l0.293,0.244l0.245,0.293l0.293,0.244l0.146,0.44l0.098,0.39l0.39,0.098l0.44,0.146l0.244,0.293l0.391,0.098l0.439,0.147l0.244,0.293l0.391,0.097l0.439,0.147l0.244,0.293l0.391,0.097l3.223,0l0.439,-0.097l0.244,-0.293l0.293,-0.244l0.244,-0.293l0.293,-0.245l0.147,-0.39l0.097,-0.44l0.293,-0.244l0.147,-0.39l0.098,-0.44l0.292,-0.244l0.147,-0.391l0,-1.611l0.098,-0.439l0.293,-0.245l0.146,-0.39l0,-1.074l0.098,-0.44l0.293,-0.244l0.146,-0.391l0,-2.685l0.098,-0.44l0.293,-0.244l0.146,-0.39Zm2.246,6.543l-0.097,0.439l0,1.074l-0.147,0.391l-0.293,0.244l-0.097,0.44l0,1.074l-0.147,0.39l-0.293,0.245l-0.244,0.292l-0.293,0.245l-0.244,0.293l-0.293,0.244l-0.244,0.293l-0.293,0.244l-0.244,0.293l-0.293,0.244l-0.244,0.293l-0.44,0.098l-0.39,0.146l-0.245,0.293l-0.293,0.244l-0.244,0.293l-0.293,0.244l-0.244,0.293l-0.439,0.098l-0.537,0l-0.391,0.146l-0.244,0.293l-0.293,0l-0.244,-0.293l-0.293,0l-0.244,0.293l-0.44,0.098l-1.074,0l-0.391,0.146l-0.244,0.293l-0.293,0l-0.244,-0.293l-0.439,-0.146l-2.149,0l-0.39,0.146l-0.245,0.293l-0.293,0.245l-0.244,0.293l-0.293,0.244l-0.097,0.439l-0.147,0.391l-0.293,0.244l-0.097,0.439l0,1.075l0.097,0.39l0.293,0.244l0.147,0.44l0.097,0.39l0.391,0.098l0.439,0.147l0.245,0.293l0.39,0.097l0.44,0.147l0.244,0.293l0.293,0.244l0.244,0.293l0.293,0.244l0.146,0.439l-0.146,0.391l-0.293,0.244l-0.244,0.293l-0.44,0.098l-0.39,0.146l-0.244,0.293l-0.44,0.098l-6.445,0l-0.391,-0.098l-0.244,-0.293l-0.439,-0.146l-0.391,-0.098l-0.244,-0.293l-0.293,-0.244l-0.244,-0.293l-0.293,-0.244l0,-0.293l0.293,-0.244l0.244,-0.293l0.293,-0.244l0.244,-0.293l0.391,-0.147l0.439,-0.097l0.244,-0.293l0.293,-0.245l0.244,-0.293l0.293,-0.244l0.244,-0.293l0.293,-0.244l0.147,-0.39l0,-8.057l0.097,-0.439l0.293,-0.245l0.147,-0.39l0,-9.668l0.098,-0.44l0.293,-0.244l0.146,-0.39l-0.146,-0.44l-0.293,-0.244l-0.098,-0.391l0,-1.611l-0.147,-0.439l-0.293,-0.245l-0.097,-0.39l-0.147,-0.44l-0.293,-0.244l-0.244,-0.293l-0.293,-0.244l-0.244,-0.293l-0.439,-0.146l-0.391,-0.098l-0.244,-0.293l-0.44,-0.146l-0.39,-0.098l0,-0.293l0.293,-0.244l0.244,-0.293l0.391,-0.147l0.537,0l0.439,-0.097l0.244,-0.293l0.391,-0.147l1.611,0l0.44,0.147l0.244,0.293l0.39,0.097l0.538,0l0.439,0.147l0.244,0.293l0.391,0.097l1.074,0l0.439,-0.097l0.245,-0.293l0.39,-0.147l0.44,-0.097l0.244,-0.293l0.39,-0.147l1.075,0l0.439,-0.097l0.244,-0.293l0.391,-0.147l1.074,0l0.44,0.147l0.244,0.293l0.39,0.097l1.612,0l0.439,0.147l0.244,0.293l0.293,0.244l0.244,0.293l0.293,0.244l0.244,0.293l0.391,0.098l0.44,0.146l0.244,0.293l0.293,0.244l0.244,0.293l0.293,0.244l0.244,0.293l0.293,0.244l0.146,0.44l0.098,0.39l0.293,0.245l0.146,0.439l0,0.537l0.098,0.391l0.293,0.244l0.147,0.439l0,0.537l0.097,0.391l0.293,0.244l0.147,0.44l0,0.537l0.097,0.39l0.293,0.245l0.147,0.439l0,2.148l0.097,0.391l0.293,0.244l0.147,0.44l0,1.074l-0.147,0.39l-0.293,0.245Z" style="fill:#33363e;fill-rule:nonzero;"/><path d="M45.906,23.543l0,-0.537l-0.147,-0.439l-0.293,-0.244l-0.244,-0.293l-0.293,-0.244l-0.244,-0.293l-0.439,-0.147l-1.612,0l-0.39,0.147l-0.244,0.293l-0.44,0.097l-2.685,0l-0.391,0.147l-0.244,0.293l-0.44,0.097l-0.537,0l-0.39,0.147l-0.244,0.293l-0.44,0.098l-0.391,0.146l-0.244,0.293l-0.293,0.244l-0.244,0.293l-0.293,0.244l-0.097,0.44l-0.147,0.39l-0.293,0.244l-0.098,0.44l0,0.537l0.098,0.391l0.293,0.244l0.244,0.293l0.293,0.244l0.244,0.293l0.293,0.244l0.244,0.293l0.391,0.098l3.223,0l0.439,-0.098l0.244,-0.293l0.391,-0.147l0.439,-0.097l0.245,-0.293l0.293,-0.244l0.244,-0.293l0.39,-0.147l0.44,-0.097l0.244,-0.293l0.39,-0.147l0.44,-0.097l0.244,-0.293l0.391,-0.147l0.439,-0.098l0.147,-0.39l0.097,-0.44l0.293,-0.244l0.244,-0.293l0.293,-0.244l0.147,-0.391Zm7.617,7.618l-0.244,0.293l-0.293,0.244l-0.244,0.293l-0.44,0.097l-0.39,0.147l-0.244,0.293l-0.44,0.097l-1.611,0l-0.391,-0.097l-0.244,-0.293l-0.439,-0.147l-0.391,-0.097l-0.244,-0.293l-0.293,-0.244l-0.244,-0.293l-0.44,-0.147l-0.39,-0.098l-0.245,-0.292l-0.292,0l-0.245,0.292l-0.439,0.098l-0.537,0l-0.391,0.147l-0.244,0.293l-0.439,0.097l-0.391,0.147l-0.244,0.293l-0.44,0.097l-0.537,0l-0.39,0.147l-0.245,0.293l-0.439,0.097l-1.074,0l-0.391,0.147l-0.244,0.293l-0.293,0l-0.244,-0.293l-0.44,-0.147l-2.685,0l-0.391,-0.097l-0.244,-0.293l-0.439,-0.147l-0.391,-0.097l-0.244,-0.293l-0.439,-0.147l-0.391,-0.097l-0.244,-0.293l-0.293,-0.245l-0.244,-0.292l-0.293,-0.245l-0.244,-0.293l-0.293,-0.244l-0.245,-0.293l-0.293,-0.244l-0.097,-0.39l-0.147,-0.44l-0.293,-0.244l-0.097,-0.391l0,-0.537l-0.147,-0.439l-0.293,-0.244l-0.097,-0.391l0,-1.611l0.097,-0.44l0.293,-0.244l0.147,-0.391l0,-0.537l0.097,-0.439l0.293,-0.244l0.147,-0.391l0.097,-0.439l0.293,-0.244l0.245,-0.293l0.293,-0.245l0.244,-0.293l0.293,-0.244l0.244,-0.293l0.39,-0.146l0.538,0l0.439,-0.098l0.244,-0.293l0.391,-0.146l0.537,0l0.439,-0.098l0.244,-0.293l0.391,-0.146l2.148,0l0.44,-0.098l0.244,-0.293l0.391,-0.146l1.611,0l0.439,-0.098l0.245,-0.293l0.39,-0.147l2.686,0l0.439,-0.097l0.244,-0.293l0.293,-0.244l0.245,-0.293l0.39,-0.147l0.44,-0.097l0.146,-0.391l0,-1.074l-0.146,-0.44l-0.293,-0.244l0,-0.293l0.293,-0.244l0,-0.293l-0.293,-0.244l-0.098,-0.391l-0.147,-0.439l-0.292,-0.244l-0.245,-0.293l-0.293,-0.244l-0.244,-0.293l-0.439,-0.147l-0.537,0l-0.391,-0.098l-0.244,-0.293l-0.293,0l-0.244,0.293l-0.44,0.098l-3.759,0l-0.391,0.147l-0.244,0.293l-0.293,0.244l-0.244,0.293l-0.293,0.244l-0.098,0.439l0,1.612l-0.146,0.39l-0.293,0.244l-0.244,0.293l-0.293,0.244l-0.245,0.293l-0.439,0.098l-1.074,0l-0.391,-0.098l-0.244,-0.293l-0.439,-0.146l-0.391,-0.098l-0.244,-0.293l-0.293,-0.244l-0.098,-0.39l0,-0.538l-0.146,-0.439l-0.293,-0.244l-0.098,-0.391l0,-0.537l0.098,-0.439l0.293,-0.244l0.146,-0.391l0.098,-0.44l0.293,-0.244l0.244,-0.293l0.293,-0.244l0.244,-0.293l0.391,-0.146l0.439,-0.098l0.244,-0.293l0.391,-0.146l0.439,-0.098l0.244,-0.293l0.391,-0.146l2.148,0l0.44,-0.098l0.244,-0.293l0.293,0l0.244,0.293l0.391,0.098l2.148,0l0.44,0.146l0.244,0.293l0.39,0.098l1.612,0l0.439,0.146l0.244,0.293l0.391,0.098l0.439,0.146l0.245,0.293l0.293,0.244l0.244,0.293l0.293,0.244l0.244,0.293l0.293,0.245l0.244,0.293l0.293,0.244l0.146,0.439l0.098,0.391l0.293,0.244l0.147,0.439l0,2.686l0.097,0.391l0.293,0.244l0.147,0.439l0,8.594l0.097,0.391l0.293,0.244l0.244,0.293l0.293,0.244l0.244,0.293l0.391,0.097l0.44,0.147l0.244,0.293l0.39,0.097l0.44,0.147l0.244,0.293l0.391,0.098l0.439,0.146l0.146,0.44l0,1.611l-0.146,0.39l-0.293,0.245Z" style="fill:#33363e;fill-rule:nonzero;"/><path d="M76.333,25.305l-0.097,0.44l0,1.074l-0.147,0.391l-0.293,0.244l-0.098,0.439l-0.146,0.391l-0.293,0.244l-0.098,0.44l-0.146,0.39l-0.293,0.244l-0.098,0.44l-0.146,0.39l-0.293,0.244l-0.244,0.293l-0.293,0.245l-0.244,0.293l-0.44,0.097l-0.391,0.147l-0.244,0.293l-0.439,0.097l-0.391,0.147l-0.244,0.293l-0.439,0.097l-2.686,0l-0.391,0.147l-0.244,0.293l-0.439,0.098l-0.537,0l-0.391,-0.098l-0.244,-0.293l-0.439,-0.147l-1.075,0l-0.39,-0.097l-0.244,-0.293l-0.44,-0.147l-2.148,0l-0.391,0.147l-0.244,0.293l-0.44,0.097l-0.39,0.147l-0.244,0.293l-0.44,0.098l-0.39,-0.098l-0.245,-0.293l-0.293,-0.244l-0.244,-0.293l-0.293,-0.244l-0.097,-0.391l0,-1.611l-0.147,-0.44l-0.293,-0.244l-0.097,-0.39l-0.147,-0.44l-0.293,-0.244l-0.097,-0.391l0,-1.074l0.097,-0.439l0.293,-0.245l0.147,-0.39l0.097,-0.44l0.293,-0.244l0.244,-0.293l0.391,-0.146l1.074,0l0.44,0.146l0.146,0.44l0.098,0.39l0.39,0.098l0.44,0.147l0.244,0.292l0.293,0.245l0.244,0.293l0.293,0.244l0.244,0.293l0.391,0.097l0.439,0.147l0.244,0.293l0.391,0.097l0.537,0l0.44,0.147l0.244,0.293l0.39,0.098l0.538,0l0.439,-0.098l0.244,-0.293l0.391,-0.147l1.611,0l0.44,-0.097l0.244,-0.293l0.39,-0.147l0.44,-0.097l0.244,-0.293l0.293,-0.244l0.244,-0.293l0.293,-0.245l0.244,-0.292l0.391,-0.147l0.439,-0.098l0.147,-0.39l0,-1.074l-0.147,-0.44l-0.293,-0.244l-0.244,-0.293l-0.293,-0.244l-0.244,-0.293l-0.439,-0.147l-0.391,-0.097l-0.244,-0.293l-0.44,-0.147l-0.537,0l-0.39,-0.097l-0.245,-0.293l-0.439,-0.147l-1.074,0l-0.391,-0.098l-0.244,-0.292l-0.439,-0.147l-1.612,0l-0.39,-0.098l-0.245,-0.293l-0.439,-0.146l-0.391,-0.098l-0.244,-0.293l-0.293,-0.244l-0.244,-0.293l-0.293,-0.244l-0.244,-0.293l-0.439,-0.146l-0.391,-0.098l-0.098,-0.391l-0.146,-0.439l-0.44,-0.147l-0.39,-0.097l-0.098,-0.391l-0.146,-0.439l-0.293,-0.244l-0.245,-0.293l-0.293,-0.245l-0.097,-0.39l0,-0.537l-0.147,-0.44l-0.293,-0.244l-0.097,-0.391l0.097,-0.439l0.293,-0.244l0.147,-0.391l0,-0.537l0.097,-0.439l0.293,-0.244l0.147,-0.391l0.098,-0.44l0.293,-0.244l0.244,-0.293l0.293,-0.244l0.244,-0.293l0.39,-0.146l0.44,-0.098l0.244,-0.293l0.391,-0.146l0.439,-0.098l0.244,-0.293l0.391,-0.146l0.537,0l0.439,-0.098l0.245,-0.293l0.39,-0.147l0.44,-0.097l0.244,-0.293l0.39,-0.147l0.538,0l0.439,0.147l0.244,0.293l0.391,0.097l1.074,0l0.439,0.147l0.245,0.293l0.39,0.098l4.297,0l0.44,0.146l0.244,0.293l0.293,0.244l0.146,0.44l0.098,0.39l0.293,0.244l0.146,0.44l0,2.685l-0.146,0.391l-0.293,0.244l-0.244,0.293l-0.44,0.098l-0.537,0l-0.391,-0.098l-0.244,-0.293l-0.293,-0.244l-0.244,-0.293l-0.293,-0.244l-0.244,-0.293l-0.293,-0.244l-0.244,-0.293l-0.293,-0.244l-0.244,-0.293l-0.44,-0.147l-0.39,-0.097l-0.244,-0.293l-0.44,-0.147l-1.611,0l-0.391,-0.098l-0.244,-0.293l-0.439,-0.146l-2.149,0l-0.39,-0.098l-0.245,-0.293l-0.293,0l-0.097,0.44l-0.147,0.39l-0.293,0.245l-0.244,0.293l-0.293,0.244l-0.097,0.439l-0.147,0.391l-0.293,0.244l-0.098,0.439l-0.146,0.391l-0.293,0.244l0,0.293l0.293,0.244l0.146,0.44l0.098,0.39l0.293,0.244l0.244,0.293l0.293,0.245l0.244,0.293l0.293,0.244l0.244,0.293l0.391,0.097l2.149,0l0.439,0.147l0.244,0.293l0.391,0.097l0.537,0l0.439,0.147l0.244,0.293l0.391,0.097l2.149,0l0.439,0.147l0.244,0.293l0.391,0.098l0.537,0l0.439,0.146l0.244,0.293l0.391,0.098l0.44,0.146l0.244,0.293l0.293,0.244l0.244,0.293l0.293,0.244l0.244,0.293l0.293,0.245l0.146,0.439l0.098,0.391l0.293,0.244l0.146,0.439l0.098,0.391l0.293,0.244l0.147,0.439l0.097,0.391l0.293,0.244l0.147,0.44l-0.147,0.39l-0.293,0.244Z" style="fill:#33363e;fill-rule:nonzero;"/><path d="M101.829,24.191l-0.098,0.44l0,1.074l-0.146,0.39l-0.293,0.244l-0.098,0.44l0,1.074l-0.146,0.391l-0.293,0.244l-0.098,0.439l-0.146,0.391l-0.293,0.244l-0.245,0.293l-0.293,0.244l-0.244,0.293l-0.293,0.244l-0.244,0.293l-0.293,0.244l-0.244,0.293l-0.293,0.245l-0.244,0.293l-0.439,0.097l-0.391,0.147l-0.244,0.293l-0.44,0.097l-0.537,0l-0.39,0.147l-0.245,0.293l-0.439,0.097l-2.686,0l-0.39,-0.097l-0.244,-0.293l-0.44,-0.147l-0.537,0l-0.39,-0.097l-0.245,-0.293l-0.439,-0.147l-0.391,-0.097l-0.244,-0.293l-0.293,-0.245l-0.244,-0.293l-0.293,-0.244l-0.244,-0.293l-0.293,-0.244l-0.244,-0.293l-0.293,-0.244l-0.244,-0.293l-0.293,-0.244l-0.244,-0.293l-0.293,-0.244l-0.098,-0.391l-0.147,-0.439l-0.292,-0.244l-0.098,-0.391l0,-0.537l-0.147,-0.44l-0.293,-0.244l-0.097,-0.39l0,-1.074l0.097,-0.44l0.293,-0.244l0.147,-0.391l0,-2.148l0.098,-0.44l0.292,-0.244l0.147,-0.39l-0.147,-0.44l-0.292,-0.244l-0.098,-0.391l0.098,-0.439l0.292,-0.244l0.147,-0.391l0,-4.297l-0.147,-0.439l-0.292,-0.244l-0.098,-0.391l-0.147,-0.439l-0.293,-0.244l-0.244,-0.293l-0.439,-0.147l-0.391,-0.098l-0.244,-0.293l-0.439,-0.146l-1.612,0l-0.39,-0.098l-0.244,-0.293l-0.293,-0.244l-0.245,-0.293l-0.293,-0.244l-0.244,-0.293l-0.293,-0.244l-0.097,-0.391l0.097,-0.439l0.293,-0.244l0.244,-0.293l0.293,-0.244l0.245,-0.293l0.293,-0.244l0.244,-0.293l0.39,-0.147l2.686,0l0.439,0.147l0.244,0.293l0.293,0l0.245,-0.293l0.292,-0.245l0.147,-0.39l0.098,-0.44l0.293,-0.244l0.146,-0.39l0.098,-0.44l0.39,-0.146l0.44,-0.098l0.146,-0.391l0.098,-0.439l0.293,0l0.146,0.439l0.098,0.391l0.293,0.244l0.244,0.293l0.293,0.244l0.147,0.44l0,0.537l0.097,0.39l0.293,0.245l0.244,0.293l0.391,0.097l0.439,0.147l0.245,0.293l0.293,0l0.244,-0.293l0.39,-0.147l1.075,0l0.439,0.147l0.244,0.293l0.391,0.097l3.222,0l0.44,0.147l0.244,0.293l0.293,0.244l0.244,0.293l0.293,0.244l0.147,0.439l-0.147,0.391l-0.293,0.244l-0.244,0.293l-0.293,0.244l-0.244,0.293l-0.44,0.098l-5.908,0l-0.39,0.146l-0.245,0.293l-0.292,0.245l-0.245,0.293l-0.293,0.244l-0.244,0.293l-0.293,0.244l-0.097,0.439l0,1.074l0.097,0.391l0.293,0.244l0,0.293l-0.293,0.244l-0.097,0.44l0,5.908l0.097,0.391l0.293,0.244l0.147,0.439l0,0.537l0.097,0.391l0.293,0.244l0.147,0.44l0,0.537l0.098,0.39l0.292,0.244l0.147,0.44l0.098,0.39l0.39,0.098l0.44,0.147l0.244,0.293l0.39,0.097l2.149,0l0.439,-0.097l0.244,-0.293l0.293,-0.245l0.245,-0.293l0.293,-0.244l0.146,-0.39l0.098,-0.44l0.293,-0.244l0.146,-0.39l0,-0.538l0.098,-0.439l0.293,-0.244l0.146,-0.391l0.098,-0.439l0.293,-0.244l0.244,-0.293l0.391,-0.147l0.439,-0.098l0.244,-0.292l0.391,-0.147l0.537,0l0.439,0.147l0.245,0.292l0.39,0.098l0.44,0.147l0.244,0.293l0.293,0.244l0.146,0.439l0.098,0.391l0.293,0.244l0,0.293l-0.293,0.244Z" style="fill:#33363e;fill-rule:nonzero;"/><text x="238.793px" y="30.833px" style="font-family:'RemingtonNoiseless', 'Remington Noiseless';font-size:50px;fill:#33363e;">.</text><text x="-1.563px" y="31.152px" style="font-family:'RemingtonNoiseless', 'Remington Noiseless';font-size:50px;fill:#33363e;">L</text></svg>