<?xml version="1.0" encoding="UTF-8" standalone="no"?><!DOCTYPE svg PUBLIC "-//W3C//DTD SVG 1.1//EN" "http://www.w3.org/Graphics/SVG/1.1/DTD/svg11.dtd"><svg width="100%" height="100%" viewBox="0 0 5167 864" version="1.1" xmlns="http://www.w3.org/2000/svg" xmlns:xlink="http://www.w3.org/1999/xlink" xml:space="preserve" xmlns:serif="http://www.serif.com/" style="fill-rule:evenodd;clip-rule:evenodd;stroke-linejoin:round;stroke-miterlimit:2;"><path d="M486.958,642.264l-5.01,6.012l-6.011,5.01l-5.01,6.011l-9.018,2.004l-11.022,0l-8.015,3.006l-5.01,6.012l-9.018,2.004l-22.043,0l-8.016,3.006l-5.01,6.012l-9.018,2.004l-66.13,0l-8.016,-2.004l-5.01,-6.012l-6.011,0l-5.01,6.012l-9.018,2.004l-8.016,-2.004l-5.01,-6.012l-9.017,-3.006l-22.044,0l-8.016,3.006l-5.009,6.012l-6.012,0l-5.01,-6.012l-9.018,-3.006l-55.108,0l-8.016,3.006l-5.01,6.012l-9.018,2.004l-88.173,0l-8.016,-2.004l-5.01,-6.012l-6.012,-5.01l-5.01,-6.012l-6.011,-5.01l-5.01,-6.011l-6.012,-5.01l-2.004,-8.016l0,-11.022l2.004,-9.017l6.012,-5.01l5.01,-6.012l8.015,-3.006l9.018,-2.004l5.01,-6.012l6.012,0l5.01,6.012l6.012,0l5.009,-6.012l8.016,-3.006l99.195,0l9.018,-2.004l5.01,-6.012l8.016,-3.005l9.018,-2.004l3.005,-8.016l2.004,-9.018l6.012,-5.01l3.006,-8.016l0,-319.629l2.004,-9.017l6.012,-5.01l3.006,-8.016l0,-33.065l2.004,-9.018l6.012,-5.01l0,-6.011l-6.012,-5.01l-2.004,-8.016l0,-66.13l-3.006,-9.018l-6.012,-5.01l-5.01,-6.012l-6.012,-5.009l-5.009,-6.012l-9.018,-3.006l-33.065,0l-8.016,-2.004l-5.01,-6.012l-9.018,-3.006l-33.065,0l-8.016,-2.004l-2.003,-8.016l2.003,-9.017l6.012,0l5.01,6.011l8.016,2.004l9.018,-2.004l5.01,-6.011l6.011,-5.01l5.01,-6.012l8.016,-3.006l88.174,0l9.017,3.006l5.01,6.012l8.016,2.004l9.018,3.006l5.01,6.011l6.011,5.01l5.01,6.012l6.012,5.01l3.006,9.018l2.004,8.016l6.012,5.009l0,6.012l-6.012,5.01l-2.004,9.018l0,22.043l-3.006,8.016l-6.012,5.01l0,6.012l6.012,5.01l0,6.011l-6.012,5.01l-2.004,9.018l-3.006,8.016l-9.017,2.004l-8.016,3.006l0,6.011l6.012,5.01l0,6.012l-6.012,5.01l0,6.012l8.016,2.004l9.017,3.006l5.01,6.011l6.012,5.01l3.006,9.018l0,143.282l2.004,8.016l6.012,5.01l3.006,9.017l0,176.347l2.004,8.016l6.011,5.01l3.006,9.018l2.004,8.016l8.016,2.004l9.018,3.005l5.01,6.012l8.015,2.004l110.217,0l9.018,3.006l5.01,6.012l8.016,2.004l9.017,3.006l3.006,9.018l2.004,8.015l6.012,5.01l0,6.012l-6.012,5.01Z" style="fill-rule:nonzero;"/><path d="M880.572,497.971l0,-11.022l-3.006,-9.017l-6.012,-5.01l-5.009,-6.012l-6.012,-5.01l-5.01,-6.012l-9.018,-3.006l-33.065,0l-8.016,3.006l-5.01,6.012l-9.017,2.004l-55.109,0l-8.016,3.006l-5.009,6.012l-9.018,2.004l-11.022,0l-8.016,3.006l-5.009,6.011l-9.018,2.004l-8.016,3.006l-5.01,6.012l-6.012,5.01l-5.01,6.012l-6.011,5.01l-2.004,9.017l-3.006,8.016l-6.012,5.01l-2.004,9.018l0,11.021l2.004,8.016l6.012,5.01l5.01,6.012l6.011,5.01l5.01,6.012l6.012,5.009l5.01,6.012l8.016,2.004l66.13,0l9.018,-2.004l5.01,-6.012l8.015,-3.005l9.018,-2.004l5.01,-6.012l6.012,-5.01l5.01,-6.012l8.015,-3.006l9.018,-2.004l5.01,-6.012l8.016,-3.005l9.018,-2.004l5.009,-6.012l8.016,-3.006l9.018,-2.004l3.006,-8.016l2.004,-9.018l6.012,-5.01l5.009,-6.011l6.012,-5.01l3.006,-8.016Zm156.308,156.308l-5.01,6.011l-6.012,5.01l-5.01,6.012l-9.018,2.004l-8.015,3.006l-5.01,6.012l-9.018,2.004l-33.065,0l-8.016,-2.004l-5.01,-6.012l-9.017,-3.006l-8.016,-2.004l-5.01,-6.012l-6.012,-5.01l-5.01,-6.011l-9.017,-3.006l-8.016,-2.004l-5.01,-6.012l-6.012,0l-5.01,6.012l-9.017,2.004l-11.022,0l-8.016,3.006l-5.01,6.011l-9.018,2.004l-8.015,3.006l-5.01,6.012l-9.018,2.004l-11.022,0l-8.015,3.006l-5.01,6.012l-9.018,2.004l-22.043,0l-8.016,3.006l-5.01,6.012l-6.012,0l-5.01,-6.012l-9.017,-3.006l-55.109,0l-8.016,-2.004l-5.01,-6.012l-9.017,-3.006l-8.016,-2.004l-5.01,-6.012l-9.018,-3.006l-8.015,-2.004l-5.01,-6.011l-6.012,-5.01l-5.01,-6.012l-6.012,-5.01l-5.01,-6.012l-6.012,-5.01l-5.009,-6.011l-6.012,-5.01l-2.004,-8.016l-3.006,-9.018l-6.012,-5.01l-2.004,-8.015l0,-11.022l-3.006,-9.018l-6.012,-5.01l-2.004,-8.016l0,-33.065l2.004,-9.017l6.012,-5.01l3.006,-8.016l0,-11.022l2.004,-9.017l6.012,-5.01l3.006,-8.016l2.004,-9.018l6.012,-5.01l5.009,-6.011l6.012,-5.01l5.01,-6.012l6.012,-5.01l5.01,-6.012l8.016,-3.006l11.021,0l9.018,-2.004l5.01,-6.012l8.016,-3.005l11.021,0l9.018,-2.004l5.01,-6.012l8.016,-3.006l44.087,0l9.017,-2.004l5.01,-6.012l8.016,-3.006l33.065,0l9.018,-2.004l5.01,-6.012l8.015,-3.006l55.109,0l9.018,-2.003l5.009,-6.012l6.012,-5.01l5.01,-6.012l8.016,-3.006l9.018,-2.004l3.006,-8.016l0,-22.043l-3.006,-9.018l-6.012,-5.01l0,-6.011l6.012,-5.01l0,-6.012l-6.012,-5.01l-2.004,-8.016l-3.006,-9.018l-6.012,-5.009l-5.01,-6.012l-6.012,-5.01l-5.009,-6.012l-9.018,-3.006l-11.022,0l-8.016,-2.004l-5.009,-6.012l-6.012,0l-5.01,6.012l-9.018,2.004l-77.152,0l-8.016,3.006l-5.009,6.012l-6.012,5.01l-5.01,6.012l-6.012,5.009l-2.004,9.018l0,33.065l-3.006,8.016l-6.012,5.01l-5.009,6.012l-6.012,5.01l-5.01,6.011l-9.018,2.004l-22.043,0l-8.016,-2.004l-5.01,-6.011l-9.018,-3.006l-8.015,-2.004l-5.01,-6.012l-6.012,-5.01l-2.004,-8.016l0,-11.021l-3.006,-9.018l-6.012,-5.01l-2.004,-8.016l0,-11.021l2.004,-9.018l6.012,-5.01l3.006,-8.016l2.004,-9.018l6.012,-5.009l5.01,-6.012l6.011,-5.01l5.01,-6.012l8.016,-3.006l9.018,-2.004l5.01,-6.012l8.015,-3.006l9.018,-2.004l5.01,-6.011l8.016,-3.006l44.087,0l9.017,-2.004l5.01,-6.012l6.012,0l5.01,6.012l8.016,2.004l44.086,0l9.018,3.006l5.01,6.011l8.016,2.004l33.065,0l9.018,3.006l5.009,6.012l8.016,2.004l9.018,3.006l5.01,6.012l6.012,5.01l5.01,6.012l6.011,5.009l5.01,6.012l6.012,5.01l5.01,6.012l6.012,5.01l3.006,9.018l2.004,8.015l6.011,5.01l3.006,9.018l0,55.108l2.004,8.016l6.012,5.01l3.006,9.018l0,176.347l2.004,8.016l6.012,5.009l5.01,6.012l6.011,5.01l5.01,6.012l8.016,2.004l9.018,3.006l5.01,6.012l8.015,2.004l9.018,3.005l5.01,6.012l8.016,2.004l9.018,3.006l3.006,9.018l0,33.065l-3.006,8.016l-6.012,5.01Z" style="fill-rule:nonzero;"/><path d="M1512.65,530.589l-2.004,9.017l0,22.044l-3.006,8.016l-6.011,5.009l-2.004,9.018l-3.006,8.016l-6.012,5.01l-2.004,9.018l-3.006,8.015l-6.012,5.01l-2.004,9.018l-3.006,8.016l-6.011,5.01l-5.01,6.011l-6.012,5.01l-5.01,6.012l-9.018,2.004l-8.015,3.006l-5.01,6.012l-9.018,2.004l-8.016,3.006l-5.01,6.012l-9.017,2.003l-55.109,0l-8.016,3.006l-5.01,6.012l-9.017,2.004l-11.022,0l-8.016,-2.004l-5.01,-6.012l-9.017,-3.006l-22.044,0l-8.016,-2.003l-5.009,-6.012l-9.018,-3.006l-44.087,0l-8.016,3.006l-5.01,6.012l-9.017,2.003l-8.016,3.006l-5.01,6.012l-9.018,2.004l-8.015,-2.004l-5.01,-6.012l-6.012,-5.009l-5.01,-6.012l-6.012,-5.01l-2.004,-8.016l0,-33.065l-3.006,-9.018l-6.011,-5.01l-2.004,-8.015l-3.006,-9.018l-6.012,-5.01l-2.004,-8.016l0,-22.043l2.004,-9.018l6.012,-5.01l3.006,-8.016l2.004,-9.017l6.011,-5.01l5.01,-6.012l8.016,-3.006l22.043,0l9.018,3.006l3.006,9.018l2.004,8.016l8.016,2.004l9.017,3.005l5.01,6.012l6.012,5.01l5.01,6.012l6.012,5.01l5.01,6.012l8.016,2.004l9.017,3.005l5.01,6.012l8.016,2.004l11.022,0l9.017,3.006l5.01,6.012l8.016,2.004l11.022,0l9.017,-2.004l5.01,-6.012l8.016,-3.006l33.065,0l9.018,-2.004l5.01,-6.012l8.015,-3.005l9.018,-2.004l5.01,-6.012l6.012,-5.01l5.01,-6.012l6.012,-5.01l5.009,-6.012l8.016,-3.005l9.018,-2.004l3.006,-8.016l0,-22.044l-3.006,-9.017l-6.012,-5.01l-5.01,-6.012l-6.012,-5.01l-5.009,-6.012l-9.018,-3.006l-8.016,-2.004l-5.01,-6.011l-9.018,-3.006l-11.021,0l-8.016,-2.004l-5.01,-6.012l-9.018,-3.006l-22.043,0l-8.016,-2.004l-5.01,-6.012l-9.017,-3.006l-33.065,0l-8.016,-2.004l-5.01,-6.011l-9.018,-3.006l-8.016,-2.004l-5.009,-6.012l-6.012,-5.01l-5.01,-6.012l-6.012,-5.01l-5.01,-6.012l-9.018,-3.005l-8.015,-2.004l-2.004,-8.016l-3.006,-9.018l-9.018,-3.006l-8.016,-2.004l-2.004,-8.016l-3.006,-9.017l-6.011,-5.01l-5.01,-6.012l-6.012,-5.01l-2.004,-8.016l0,-11.021l-3.006,-9.018l-6.012,-5.01l-2.004,-8.016l2.004,-9.017l6.012,-5.01l3.006,-8.016l0,-11.022l2.004,-9.018l6.012,-5.009l3.006,-8.016l2.004,-9.018l6.011,-5.01l5.01,-6.012l6.012,-5.009l5.01,-6.012l8.016,-3.006l9.017,-2.004l5.01,-6.012l8.016,-3.006l9.018,-2.004l5.01,-6.012l8.016,-3.006l11.021,0l9.018,-2.004l5.01,-6.011l8.016,-3.006l9.017,-2.004l5.01,-6.012l8.016,-3.006l11.022,0l9.017,3.006l5.01,6.012l8.016,2.004l22.043,0l9.018,3.006l5.01,6.011l8.016,2.004l88.173,0l9.018,3.006l5.01,6.012l6.012,5.01l3.006,9.018l2.004,8.016l6.011,5.009l3.006,9.018l0,55.109l-3.006,8.015l-6.011,5.01l-5.01,6.012l-9.018,2.004l-11.022,0l-8.015,-2.004l-5.01,-6.012l-6.012,-5.01l-5.01,-6.011l-6.012,-5.01l-5.01,-6.012l-6.012,-5.01l-5.009,-6.012l-6.012,-5.01l-5.01,-6.012l-9.018,-3.005l-8.016,-2.004l-5.009,-6.012l-9.018,-3.006l-33.065,0l-8.016,-2.004l-5.01,-6.012l-9.018,-3.006l-44.086,0l-8.016,-2.004l-5.01,-6.012l-6.012,0l-2.004,9.018l-3.006,8.016l-6.012,5.01l-5.009,6.012l-6.012,5.009l-2.004,9.018l-3.006,8.016l-6.012,5.01l-2.004,9.018l-3.006,8.015l-6.012,5.01l0,6.012l6.012,5.01l3.006,9.018l2.004,8.015l6.012,5.01l5.01,6.012l6.012,5.01l5.009,6.012l6.012,5.01l5.01,6.012l8.016,2.003l44.087,0l9.017,3.006l5.01,6.012l8.016,2.004l11.022,0l9.017,3.006l5.01,6.012l8.016,2.004l44.087,0l9.018,3.006l5.009,6.012l8.016,2.004l11.022,0l9.018,3.005l5.01,6.012l8.015,2.004l9.018,3.006l5.01,6.012l6.012,5.01l5.01,6.012l6.011,5.01l5.01,6.011l6.012,5.01l3.006,9.018l2.004,8.016l6.012,5.01l3.006,9.017l2.004,8.016l6.011,5.01l3.006,9.018l2.004,8.015l6.012,5.01l3.006,9.018l-3.006,8.016l-6.012,5.01Z" style="fill-rule:nonzero;"/><path d="M2043.54,508.545l-2.004,9.018l0,22.043l-3.005,8.016l-6.012,5.01l-2.004,9.018l0,22.043l-3.006,8.016l-6.012,5.01l-2.004,9.018l-3.006,8.015l-6.012,5.01l-5.01,6.012l-6.011,5.01l-5.01,6.012l-6.012,5.01l-5.01,6.011l-6.012,5.01l-5.01,6.012l-6.011,5.01l-5.01,6.012l-9.018,2.004l-8.016,3.006l-5.01,6.012l-9.017,2.003l-11.022,0l-8.016,3.006l-5.01,6.012l-9.018,2.004l-55.108,0l-8.016,-2.004l-5.01,-6.012l-9.017,-3.006l-11.022,0l-8.016,-2.003l-5.01,-6.012l-9.017,-3.006l-8.016,-2.004l-5.01,-6.012l-6.012,-5.01l-5.01,-6.012l-6.012,-5.01l-5.009,-6.011l-6.012,-5.01l-5.01,-6.012l-6.012,-5.01l-5.01,-6.012l-6.012,-5.01l-5.009,-6.011l-6.012,-5.01l-2.004,-8.016l-3.006,-9.018l-6.012,-5.01l-2.004,-8.015l0,-11.022l-3.006,-9.018l-6.012,-5.01l-2.004,-8.016l0,-22.043l2.004,-9.018l6.012,-5.01l3.006,-8.015l0,-44.087l2.004,-9.018l6.012,-5.01l3.006,-8.015l-3.006,-9.018l-6.012,-5.01l-2.004,-8.016l2.004,-9.018l6.012,-5.009l3.006,-8.016l0,-88.174l-3.006,-9.017l-6.012,-5.01l-2.004,-8.016l-3.006,-9.018l-6.012,-5.01l-5.01,-6.012l-9.017,-3.005l-8.016,-2.004l-5.01,-6.012l-9.018,-3.006l-33.065,0l-8.016,-2.004l-5.009,-6.012l-6.012,-5.01l-5.01,-6.012l-6.012,-5.009l-5.01,-6.012l-6.012,-5.01l-2.004,-8.016l2.004,-9.018l6.012,-5.01l5.01,-6.011l6.012,-5.01l5.01,-6.012l6.012,-5.01l5.009,-6.012l8.016,-3.006l55.109,0l9.017,3.006l5.01,6.012l6.012,0l5.01,-6.012l6.012,-5.01l3.006,-8.015l2.004,-9.018l6.012,-5.01l3.005,-8.016l2.004,-9.017l8.016,-3.006l9.018,-2.004l3.006,-8.016l2.004,-9.018l6.012,0l3.005,9.018l2.004,8.016l6.012,5.01l5.01,6.011l6.012,5.01l3.006,9.018l0,11.022l2.004,8.015l6.012,5.01l5.01,6.012l8.015,2.004l9.018,3.006l5.01,6.012l6.012,0l5.01,-6.012l8.015,-3.006l22.044,0l9.017,3.006l5.01,6.012l8.016,2.004l66.13,0l9.018,3.006l5.01,6.011l6.012,5.01l5.01,6.012l6.011,5.01l3.006,9.018l-3.006,8.016l-6.011,5.009l-5.01,6.012l-6.012,5.01l-5.01,6.012l-9.018,2.004l-121.238,0l-8.016,3.006l-5.01,6.012l-6.012,5.009l-5.01,6.012l-6.011,5.01l-5.01,6.012l-6.012,5.01l-2.004,9.018l0,22.043l2.004,8.016l6.012,5.01l0,6.011l-6.012,5.01l-2.004,9.018l0,121.239l2.004,8.015l6.012,5.01l3.006,9.018l0,11.022l2.004,8.015l6.011,5.01l3.006,9.018l0,11.022l2.004,8.016l6.012,5.009l3.006,9.018l2.004,8.016l8.016,2.004l9.017,3.006l5.01,6.012l8.016,2.004l44.087,0l9.018,-2.004l5.009,-6.012l6.012,-5.01l5.01,-6.012l6.012,-5.01l3.006,-8.016l2.004,-9.017l6.012,-5.01l3.006,-8.016l0,-11.022l2.003,-9.017l6.012,-5.01l3.006,-8.016l2.004,-9.018l6.012,-5.01l5.01,-6.011l8.016,-3.006l9.017,-2.004l5.01,-6.012l8.016,-3.006l11.022,0l9.017,3.006l5.01,6.012l8.016,2.004l9.018,3.006l5.01,6.011l6.012,5.01l3.005,9.018l2.004,8.016l6.012,5.01l0,6.011l-6.012,5.01Z" style="fill-rule:nonzero;"/><path d="M2735.88,301.374l-6.012,-5.01l-2.004,-8.015l-3.006,-9.018l-6.012,-5.01l-5.009,-6.012l-6.012,-5.01l-5.01,-6.011l-6.012,-5.01l-5.01,-6.012l-9.018,-3.006l-8.015,-2.004l-5.01,-6.012l-9.018,-3.006l-8.016,-2.004l-5.01,-6.012l-9.017,-3.005l-44.087,0l-8.016,3.005l-5.01,6.012l-6.012,5.01l-5.009,6.012l-6.012,5.01l-5.01,6.012l-6.012,5.01l-5.01,6.011l-6.012,5.01l-2.004,9.018l-3.005,8.016l-6.012,5.01l-2.004,9.017l0,11.022l2.004,8.016l6.012,5.01l3.005,9.017l0,22.044l2.004,8.016l6.012,5.009l5.01,6.012l6.012,5.01l5.01,6.012l6.012,5.01l5.009,6.012l6.012,5.01l5.01,6.011l6.012,5.01l5.01,6.012l8.016,2.004l9.017,3.006l5.01,6.012l8.016,2.004l11.022,0l9.017,-2.004l5.01,-6.012l6.012,-5.01l5.01,-6.012l8.016,-3.006l9.018,-2.004l5.009,-6.011l6.012,-5.01l5.01,-6.012l6.012,-5.01l3.006,-8.016l2.004,-9.018l6.012,-5.009l3.006,-8.016l2.003,-9.018l6.012,-5.01l3.006,-8.016l0,-11.021l2.004,-9.018l6.012,-5.01l0,-6.012Zm47.093,405.799l0,-11.022l-3.006,-9.018l-6.012,-5.009l-2.004,-8.016l-3.006,-9.018l-6.012,-5.01l-5.01,-6.012l-9.017,-3.006l-8.016,-2.003l-5.01,-6.012l-9.018,-3.006l-8.016,-2.004l-5.009,-6.012l-9.018,-3.006l-11.022,0l-8.016,-2.004l-5.009,-6.012l-9.018,-3.006l-22.044,0l-8.015,3.006l-5.01,6.012l-9.018,2.004l-22.043,0l-8.016,3.006l-5.01,6.012l-9.018,2.004l-22.043,0l-8.016,3.006l-5.01,6.012l-9.018,2.003l-8.015,3.006l-5.01,6.012l-6.012,5.01l-5.01,6.012l-6.012,5.01l-2.004,9.018l0,22.043l2.004,8.016l6.012,5.01l5.01,6.011l6.012,5.01l5.01,6.012l8.015,2.004l9.018,3.006l5.01,6.012l8.016,2.004l9.018,3.006l5.009,6.011l8.016,2.004l9.018,3.006l5.01,6.012l8.016,2.004l9.017,3.006l5.01,6.012l8.016,2.004l9.018,-2.004l5.01,-6.012l8.015,-3.006l22.044,0l9.018,-2.004l5.009,-6.012l8.016,-3.006l22.044,0l9.017,-2.004l5.01,-6.011l8.016,-3.006l9.018,-2.004l5.01,-6.012l6.011,-5.01l5.01,-6.012l6.012,-5.01l5.01,-6.011l6.012,-5.01l3.006,-8.016Zm79.155,24.047l-2.004,9.018l0,11.022l-3.005,8.015l-6.012,5.01l-5.01,6.012l-6.012,5.01l-5.01,6.012l-6.012,5.01l-5.01,6.012l-6.011,5.009l-5.01,6.012l-9.018,2.004l-8.016,3.006l-5.01,6.012l-9.017,2.004l-8.016,3.006l-5.01,6.012l-6.012,5.009l-5.01,6.012l-9.017,2.004l-8.016,3.006l-5.01,6.012l-9.018,2.004l-187.369,0l-8.015,-2.004l-5.01,-6.012l-9.018,-3.006l-8.016,-2.004l-5.01,-6.012l-6.011,-5.009l-5.01,-6.012l-9.018,-3.006l-8.016,-2.004l-5.01,-6.012l-9.017,-3.006l-8.016,-2.004l-5.01,-6.012l-6.012,-5.009l-5.01,-6.012l-6.011,-5.01l-2.004,-8.016l-3.006,-9.018l-6.012,-5.01l-2.004,-8.015l0,-33.065l-3.006,-9.018l-6.012,-5.01l0,-6.012l6.012,-5.01l3.006,-8.015l0,-33.066l2.004,-9.017l6.012,-5.01l3.006,-8.016l2.004,-9.018l6.011,-5.01l3.006,-8.015l2.004,-9.018l6.012,-5.01l3.006,-8.016l0,-11.021l-3.006,-9.018l-6.012,-5.01l-2.004,-8.016l0,-55.108l2.004,-9.018l6.012,-5.01l3.006,-8.016l2.004,-9.017l6.012,-5.01l5.01,-6.012l6.011,-5.01l3.006,-8.016l2.004,-9.017l6.012,-5.01l0,-6.012l-6.012,-5.01l-2.004,-8.016l0,-11.021l-3.006,-9.018l-6.011,-5.01l-2.004,-8.016l0,-44.087l2.004,-9.017l6.011,-5.01l3.006,-8.016l0,-33.065l2.004,-9.018l6.012,-5.01l3.006,-8.015l2.004,-9.018l6.012,-5.01l3.006,-8.016l2.004,-9.018l6.011,-5.009l5.01,-6.012l8.016,-3.006l9.018,-2.004l5.01,-6.012l6.012,-5.01l5.009,-6.012l8.016,-3.005l9.018,-2.004l5.01,-6.012l8.016,-3.006l88.173,0l9.018,3.006l5.01,6.012l8.015,2.004l9.018,3.005l5.01,6.012l8.016,2.004l33.065,0l9.018,-2.004l5.01,-6.012l6.011,-5.009l5.01,-6.012l8.016,-3.006l9.018,-2.004l5.01,-6.012l8.015,-3.006l11.022,0l9.018,3.006l5.01,6.012l8.015,2.004l9.018,3.006l5.01,6.012l6.012,5.009l5.01,6.012l6.012,5.01l5.009,6.012l6.012,5.01l3.006,9.018l-3.006,8.015l-6.012,5.01l-5.009,6.012l-6.012,5.01l-5.01,6.012l-6.012,5.01l-5.01,6.011l-9.018,2.004l-11.021,0l-8.016,3.006l-5.01,6.012l-6.012,5.01l-5.01,6.012l-6.011,5.01l-2.004,9.017l0,66.131l-3.006,8.015l-6.012,5.01l-2.004,9.018l-3.006,8.016l-6.012,5.01l-5.01,6.011l-6.011,5.01l-5.01,6.012l-6.012,5.01l-5.01,6.012l-6.012,5.01l-5.01,6.011l-9.017,2.004l-8.016,3.006l-5.01,6.012l-6.012,5.01l-5.01,6.012l-9.018,2.004l-8.015,3.006l-5.01,6.011l-6.012,5.01l-5.01,6.012l-9.018,2.004l-11.021,0l-8.016,3.006l-5.01,6.012l-6.012,0l-5.01,-6.012l-6.011,0l-5.01,6.012l-9.018,2.004l-33.065,0l-8.016,3.006l-5.01,6.012l-6.012,5.009l-5.009,6.012l-6.012,5.01l0,6.012l6.012,5.01l5.009,6.012l6.012,5.009l5.01,6.012l8.016,2.004l11.022,0l9.017,3.006l5.01,6.012l8.016,2.004l44.087,0l9.017,3.006l5.01,6.012l8.016,2.004l33.065,0l9.018,-2.004l5.01,-6.012l8.016,-3.006l22.043,0l9.018,3.006l5.01,6.012l6.011,5.01l5.01,6.011l8.016,2.004l11.022,0l9.017,3.006l5.01,6.012l8.016,2.004l9.018,3.006l5.01,6.012l6.011,5.01l5.01,6.011l6.012,5.01l5.01,6.012l6.012,5.01l5.01,6.012l6.012,5.01l5.009,6.012l6.012,5.009l3.006,9.018l0,55.109l-3.006,8.015l-6.012,5.01Z" style="fill-rule:nonzero;"/><path d="M3404.04,321.177l-2.004,9.017l-3.006,8.016l-6.012,5.01l-5.009,6.012l-6.012,5.01l-5.01,6.012l-6.012,5.009l-5.01,6.012l-9.018,2.004l-11.021,0l-8.016,-2.004l-5.01,-6.012l-9.018,-3.006l-8.015,-2.003l-5.01,-6.012l-6.012,-5.01l-5.01,-6.012l-6.012,-5.01l-2.004,-8.016l-3.006,-9.017l-6.011,-5.01l-2.004,-8.016l0,-11.022l2.004,-9.017l6.011,-5.01l0,-6.012l-6.011,-5.01l-5.01,-6.012l-6.012,-5.01l-5.01,-6.012l-9.018,-3.005l-11.021,0l-8.016,3.005l-5.01,6.012l-9.018,2.004l-8.016,3.006l-5.009,6.012l-6.012,5.01l-5.01,6.012l-6.012,5.01l-5.01,6.011l-6.012,5.01l-2.004,9.018l-3.006,8.016l-6.011,5.01l-5.01,6.011l-6.012,5.01l-5.01,6.012l-6.012,5.01l-2.004,9.018l-3.006,8.016l-6.011,5.009l-2.004,9.018l-3.006,8.016l-6.012,5.01l-2.004,9.018l0,77.151l-3.006,8.016l-6.012,5.01l0,6.012l6.012,5.01l3.006,9.017l0,22.044l2.004,8.016l6.012,5.009l3.006,9.018l2.004,8.016l6.011,5.01l5.01,6.012l6.012,5.009l5.01,6.012l8.016,2.004l9.017,3.006l5.01,6.012l8.016,2.004l33.065,0l9.018,3.006l5.01,6.012l8.016,2.004l9.017,3.006l5.01,6.011l6.012,5.01l3.006,9.018l0,11.022l-3.006,8.015l-6.012,5.01l-5.01,6.012l-6.012,5.01l-5.009,6.012l-6.012,5.01l-5.01,6.012l-9.018,2.003l-121.238,0l-8.016,3.006l-5.01,6.012l-9.018,2.004l-44.087,0l-8.015,-2.004l-5.01,-6.012l-9.018,-3.006l-22.043,0l-8.016,-2.003l-5.01,-6.012l-9.018,-3.006l-11.021,0l-8.016,-2.004l-5.01,-6.012l-6.012,-5.01l-5.01,-6.012l-6.012,-5.01l-2.003,-8.015l0,-22.044l2.003,-9.017l6.012,-5.01l5.01,-6.012l6.012,-5.01l5.01,-6.012l8.016,-3.006l22.043,0l9.018,3.006l5.01,6.012l8.015,2.004l9.018,-2.004l5.01,-6.012l8.016,-3.006l9.018,-2.004l3.005,-8.015l2.004,-9.018l6.012,-5.01l3.006,-8.016l0,-22.043l2.004,-9.018l6.012,-5.01l3.006,-8.016l0,-88.173l-3.006,-9.018l-6.012,-5.01l-2.004,-8.015l0,-11.022l2.004,-9.018l6.012,-5.01l3.006,-8.016l0,-22.043l-3.006,-9.018l-6.012,-5.01l-2.004,-8.015l0,-33.065l-3.006,-9.018l-6.012,-5.01l-5.009,-6.012l-6.012,-5.01l-5.01,-6.012l-9.018,-3.005l-8.016,-2.004l-5.01,-6.012l-9.017,-3.006l-11.022,0l-8.016,-2.004l-5.01,-6.012l-9.017,-3.006l-8.016,-2.004l-2.004,-8.016l-3.006,-9.017l-6.012,-5.01l0,-6.012l6.012,-5.01l5.01,-6.012l6.012,-5.01l5.01,-6.011l8.015,-3.006l44.087,0l9.018,-2.004l5.01,-6.012l6.012,0l5.009,6.012l6.012,0l5.01,-6.012l8.016,-3.006l11.022,0l9.017,3.006l5.01,6.012l8.016,2.004l9.018,3.006l5.009,6.011l6.012,5.01l5.01,6.012l6.012,5.01l5.01,6.012l8.016,2.004l11.021,0l9.018,-2.004l5.01,-6.012l8.016,-3.006l9.017,-2.004l5.01,-6.012l6.012,-5.01l5.01,-6.011l8.016,-3.006l11.021,0l9.018,-2.004l5.01,-6.012l8.016,-3.006l77.152,0l9.017,3.006l5.01,6.012l8.016,2.004l9.018,3.006l5.01,6.011l8.015,2.004l9.018,3.006l5.01,6.012l6.012,5.01l5.01,6.012l6.012,5.01l5.009,6.012l6.012,5.009l3.006,9.018l2.004,8.016l6.012,5.01l3.006,9.018l0,55.108l-3.006,8.016l-6.012,5.01Z" style="fill-rule:nonzero;"/><path d="M3742.99,497.971l0,-11.022l-3.006,-9.017l-6.012,-5.01l-5.01,-6.012l-6.011,-5.01l-5.01,-6.012l-9.018,-3.006l-33.065,0l-8.016,3.006l-5.01,6.012l-9.017,2.004l-55.109,0l-8.016,3.006l-5.009,6.012l-9.018,2.004l-11.022,0l-8.016,3.006l-5.01,6.011l-9.017,2.004l-8.016,3.006l-5.01,6.012l-6.012,5.01l-5.01,6.012l-6.011,5.01l-2.004,9.017l-3.006,8.016l-6.012,5.01l-2.004,9.018l0,11.021l2.004,8.016l6.012,5.01l5.01,6.012l6.011,5.01l5.01,6.012l6.012,5.009l5.01,6.012l8.016,2.004l66.13,0l9.018,-2.004l5.009,-6.012l8.016,-3.005l9.018,-2.004l5.01,-6.012l6.012,-5.01l5.01,-6.012l8.015,-3.006l9.018,-2.004l5.01,-6.012l8.016,-3.005l9.017,-2.004l5.01,-6.012l8.016,-3.006l9.018,-2.004l3.006,-8.016l2.004,-9.018l6.011,-5.01l5.01,-6.011l6.012,-5.01l3.006,-8.016Zm156.308,156.308l-5.01,6.011l-6.012,5.01l-5.01,6.012l-9.018,2.004l-8.015,3.006l-5.01,6.012l-9.018,2.004l-33.065,0l-8.016,-2.004l-5.01,-6.012l-9.017,-3.006l-8.016,-2.004l-5.01,-6.012l-6.012,-5.01l-5.01,-6.011l-9.017,-3.006l-8.016,-2.004l-5.01,-6.012l-6.012,0l-5.01,6.012l-9.018,2.004l-11.021,0l-8.016,3.006l-5.01,6.011l-9.018,2.004l-8.015,3.006l-5.01,6.012l-9.018,2.004l-11.022,0l-8.015,3.006l-5.01,6.012l-9.018,2.004l-22.043,0l-8.016,3.006l-5.01,6.012l-6.012,0l-5.01,-6.012l-9.018,-3.006l-55.108,0l-8.016,-2.004l-5.01,-6.012l-9.017,-3.006l-8.016,-2.004l-5.01,-6.012l-9.018,-3.006l-8.016,-2.004l-5.009,-6.011l-6.012,-5.01l-5.01,-6.012l-6.012,-5.01l-5.01,-6.012l-6.012,-5.01l-5.009,-6.011l-6.012,-5.01l-2.004,-8.016l-3.006,-9.018l-6.012,-5.01l-2.004,-8.015l0,-11.022l-3.006,-9.018l-6.012,-5.01l-2.004,-8.016l0,-33.065l2.004,-9.017l6.012,-5.01l3.006,-8.016l0,-11.022l2.004,-9.017l6.012,-5.01l3.006,-8.016l2.004,-9.018l6.012,-5.01l5.009,-6.011l6.012,-5.01l5.01,-6.012l6.012,-5.01l5.01,-6.012l8.016,-3.006l11.021,0l9.018,-2.004l5.01,-6.012l8.016,-3.005l11.021,0l9.018,-2.004l5.01,-6.012l8.016,-3.006l44.086,0l9.018,-2.004l5.01,-6.012l8.016,-3.006l33.065,0l9.018,-2.004l5.01,-6.012l8.015,-3.006l55.109,0l9.017,-2.003l5.01,-6.012l6.012,-5.01l5.01,-6.012l8.016,-3.006l9.018,-2.004l3.005,-8.016l0,-22.043l-3.005,-9.018l-6.012,-5.01l0,-6.011l6.012,-5.01l0,-6.012l-6.012,-5.01l-2.004,-8.016l-3.006,-9.018l-6.012,-5.009l-5.01,-6.012l-6.012,-5.01l-5.01,-6.012l-9.017,-3.006l-11.022,0l-8.016,-2.004l-5.01,-6.012l-6.011,0l-5.01,6.012l-9.018,2.004l-77.152,0l-8.016,3.006l-5.009,6.012l-6.012,5.01l-5.01,6.012l-6.012,5.009l-2.004,9.018l0,33.065l-3.006,8.016l-6.012,5.01l-5.01,6.012l-6.011,5.01l-5.01,6.011l-9.018,2.004l-22.043,0l-8.016,-2.004l-5.01,-6.011l-9.018,-3.006l-8.016,-2.004l-5.009,-6.012l-6.012,-5.01l-2.004,-8.016l0,-11.021l-3.006,-9.018l-6.012,-5.01l-2.004,-8.016l0,-11.021l2.004,-9.018l6.012,-5.01l3.006,-8.016l2.004,-9.018l6.012,-5.009l5.009,-6.012l6.012,-5.01l5.01,-6.012l8.016,-3.006l9.018,-2.004l5.01,-6.012l8.015,-3.006l9.018,-2.004l5.01,-6.011l8.016,-3.006l44.086,0l9.018,-2.004l5.01,-6.012l6.012,0l5.01,6.012l8.016,2.004l44.086,0l9.018,3.006l5.01,6.011l8.016,2.004l33.065,0l9.017,3.006l5.01,6.012l8.016,2.004l9.018,3.006l5.01,6.012l6.012,5.01l5.009,6.012l6.012,5.009l5.01,6.012l6.012,5.01l5.01,6.012l6.012,5.01l3.006,9.018l2.003,8.015l6.012,5.01l3.006,9.018l0,55.108l2.004,8.016l6.012,5.01l3.006,9.018l0,176.347l2.004,8.016l6.012,5.009l5.01,6.012l6.011,5.01l5.01,6.012l8.016,2.004l9.018,3.006l5.01,6.012l8.015,2.004l9.018,3.005l5.01,6.012l8.016,2.004l9.018,3.006l3.005,9.018l0,33.065l-3.005,8.016l-6.012,5.01Z" style="fill-rule:nonzero;"/><path d="M4375.07,532.83l-2.004,9.018l0,22.043l-3.006,8.016l-6.011,5.01l-2.004,9.017l-3.006,8.016l-6.012,5.01l-2.004,9.018l-3.006,8.015l-6.012,5.01l-2.004,9.018l-3.006,8.016l-6.011,5.01l-5.01,6.012l-6.012,5.009l-5.01,6.012l-9.018,2.004l-8.016,3.006l-5.009,6.012l-9.018,2.004l-8.016,3.006l-5.01,6.012l-9.018,2.004l-55.108,0l-8.016,3.005l-5.01,6.012l-9.017,2.004l-11.022,0l-8.016,-2.004l-5.01,-6.012l-9.017,-3.005l-22.044,0l-8.016,-2.004l-5.009,-6.012l-9.018,-3.006l-44.087,0l-8.016,3.006l-5.01,6.012l-9.017,2.004l-8.016,3.005l-5.01,6.012l-9.018,2.004l-8.015,-2.004l-5.01,-6.012l-6.012,-5.009l-5.01,-6.012l-6.012,-5.01l-2.004,-8.016l0,-33.065l-3.006,-9.018l-6.012,-5.01l-2.004,-8.015l-3.005,-9.018l-6.012,-5.01l-2.004,-8.016l0,-22.043l2.004,-9.018l6.012,-5.01l3.005,-8.015l2.004,-9.018l6.012,-5.01l5.01,-6.012l8.016,-3.006l22.043,0l9.018,3.006l3.006,9.018l2.004,8.016l8.016,2.004l9.017,3.005l5.01,6.012l6.012,5.01l5.01,6.012l6.012,5.01l5.01,6.012l8.015,2.004l9.018,3.006l5.01,6.011l8.016,2.004l11.021,0l9.018,3.006l5.01,6.012l8.016,2.004l11.022,0l9.017,-2.004l5.01,-6.012l8.016,-3.006l33.065,0l9.018,-2.004l5.01,-6.011l8.015,-3.006l9.018,-2.004l5.01,-6.012l6.012,-5.01l5.01,-6.012l6.012,-5.01l5.009,-6.012l8.016,-3.005l9.018,-2.004l3.006,-8.016l0,-22.044l-3.006,-9.017l-6.012,-5.01l-5.01,-6.012l-6.012,-5.01l-5.009,-6.012l-9.018,-3.006l-8.016,-2.004l-5.01,-6.011l-9.018,-3.006l-11.021,0l-8.016,-2.004l-5.01,-6.012l-9.018,-3.006l-22.043,0l-8.016,-2.004l-5.01,-6.012l-9.017,-3.006l-33.066,0l-8.015,-2.004l-5.01,-6.011l-9.018,-3.006l-8.016,-2.004l-5.01,-6.012l-6.011,-5.01l-5.01,-6.012l-6.012,-5.01l-5.01,-6.011l-9.018,-3.006l-8.015,-2.004l-2.004,-8.016l-3.006,-9.018l-9.018,-3.006l-8.016,-2.004l-2.004,-8.015l-3.006,-9.018l-6.011,-5.01l-5.01,-6.012l-6.012,-5.01l-2.004,-8.016l0,-11.021l-3.006,-9.018l-6.012,-5.01l-2.004,-8.016l2.004,-9.017l6.012,-5.01l3.006,-8.016l0,-11.022l2.004,-9.017l6.012,-5.01l3.006,-8.016l2.004,-9.018l6.011,-5.01l5.01,-6.012l6.012,-5.009l5.01,-6.012l8.016,-3.006l9.017,-2.004l5.01,-6.012l8.016,-3.006l9.018,-2.004l5.01,-6.012l8.015,-3.005l11.022,0l9.018,-2.004l5.01,-6.012l8.015,-3.006l9.018,-2.004l5.01,-6.012l8.016,-3.006l11.022,0l9.017,3.006l5.01,6.012l8.016,2.004l22.043,0l9.018,3.006l5.01,6.012l8.016,2.004l88.173,0l9.018,3.005l5.01,6.012l6.012,5.01l3.006,9.018l2.004,8.016l6.011,5.009l3.006,9.018l0,55.109l-3.006,8.015l-6.011,5.01l-5.01,6.012l-9.018,2.004l-11.022,0l-8.016,-2.004l-5.009,-6.012l-6.012,-5.01l-5.01,-6.011l-6.012,-5.01l-5.01,-6.012l-6.012,-5.01l-5.009,-6.012l-6.012,-5.01l-5.01,-6.011l-9.018,-3.006l-8.016,-2.004l-5.01,-6.012l-9.017,-3.006l-33.065,0l-8.016,-2.004l-5.01,-6.012l-9.018,-3.006l-44.087,0l-8.015,-2.004l-5.01,-6.012l-6.012,0l-2.004,9.018l-3.006,8.016l-6.012,5.01l-5.01,6.012l-6.011,5.01l-2.004,9.017l-3.006,8.016l-6.012,5.01l-2.004,9.018l-3.006,8.015l-6.012,5.01l0,6.012l6.012,5.01l3.006,9.018l2.004,8.016l6.012,5.009l5.01,6.012l6.011,5.01l5.01,6.012l6.012,5.01l5.01,6.012l8.016,2.004l44.087,0l9.017,3.005l5.01,6.012l8.016,2.004l11.022,0l9.017,3.006l5.01,6.012l8.016,2.004l44.087,0l9.018,3.006l5.009,6.012l8.016,2.004l11.022,0l9.018,3.006l5.009,6.011l8.016,2.004l9.018,3.006l5.01,6.012l6.012,5.01l5.01,6.012l6.011,5.01l5.01,6.011l6.012,5.01l3.006,9.018l2.004,8.016l6.012,5.01l3.006,9.017l2.004,8.016l6.011,5.01l3.006,9.018l2.004,8.016l6.012,5.009l3.006,9.018l-3.006,8.016l-6.012,5.01Z" style="fill-rule:nonzero;"/><path d="M4868.88,357.695l-3.006,-9.018l-6.011,-5.01l-2.004,-8.015l-3.006,-9.018l-6.012,-5.01l-5.01,-6.012l-6.012,-5.01l-2.004,-8.015l-3.006,-9.018l-6.011,-5.01l-5.01,-6.012l-6.012,-5.01l-5.01,-6.012l-6.012,-5.009l-5.01,-6.012l-6.012,-5.01l-5.009,-6.012l-6.012,-5.01l-5.01,-6.012l-9.018,-3.006l-77.152,0l-8.015,3.006l-5.01,6.012l-9.018,2.004l-22.043,0l-8.016,3.006l-5.01,6.012l-6.012,5.01l-5.01,6.012l-6.012,5.009l-5.009,6.012l-6.012,5.01l-2.004,9.018l0,33.065l-3.006,8.016l-6.012,5.01l-2.004,9.017l0,44.087l-3.006,8.016l-6.012,5.01l-2.004,9.017l0,22.044l2.004,8.016l6.012,5.009l3.006,9.018l0,11.022l2.004,8.016l6.012,5.01l3.006,9.017l0,22.044l2.004,8.015l6.012,5.01l3.005,9.018l2.004,8.016l6.012,5.01l5.01,6.011l6.012,5.01l3.006,9.018l2.004,8.016l8.016,2.004l9.017,3.006l5.01,6.012l8.016,2.003l9.018,3.006l5.01,6.012l8.015,2.004l9.018,3.006l5.01,6.012l8.016,2.004l66.13,0l9.018,-2.004l5.009,-6.012l6.012,-5.01l5.01,-6.012l6.012,-5.009l3.006,-8.016l2.004,-9.018l6.012,-5.01l3.006,-8.016l2.004,-9.017l6.011,-5.01l3.006,-8.016l0,-33.065l2.004,-9.018l6.012,-5.01l3.006,-8.015l0,-22.044l2.004,-9.018l6.012,-5.009l3.006,-8.016l0,-55.109l2.004,-9.017l6.011,-5.01l3.006,-8.016Zm46.091,134.264l-2.004,9.018l0,22.043l-3.006,8.016l-6.012,5.01l-2.004,9.018l0,22.043l-3.006,8.016l-6.011,5.01l-5.01,6.012l-6.012,5.009l-5.01,6.012l-6.012,5.01l-5.01,6.012l-6.011,5.01l-5.01,6.012l-6.012,5.009l-5.01,6.012l-9.018,2.004l-8.015,3.006l-5.01,6.012l-6.012,5.01l-5.01,6.012l-6.012,5.01l-5.01,6.011l-9.017,2.004l-11.022,0l-8.016,3.006l-5.01,6.012l-6.012,0l-5.009,-6.012l-6.012,0l-5.01,6.012l-9.018,2.004l-22.043,0l-8.016,3.006l-5.01,6.012l-6.012,0l-5.01,-6.012l-9.017,-3.006l-44.087,0l-8.016,3.006l-5.01,6.012l-6.012,5.01l-5.009,6.011l-6.012,5.01l-2.004,9.018l-3.006,8.016l-6.012,5.01l-2.004,9.017l0,22.044l2.004,8.016l6.012,5.009l3.006,9.018l2.004,8.016l8.015,2.004l9.018,3.006l5.01,6.012l8.016,2.004l9.018,3.006l5.009,6.011l6.012,5.01l5.01,6.012l6.012,5.01l3.006,9.018l-3.006,8.015l-6.012,5.01l-5.01,6.012l-9.017,2.004l-8.016,3.006l-5.01,6.012l-9.018,2.004l-132.26,0l-8.016,-2.004l-5.01,-6.012l-9.017,-3.006l-8.016,-2.004l-5.01,-6.012l-6.012,-5.01l-5.01,-6.011l-6.012,-5.01l0,-6.012l6.012,-5.01l5.01,-6.012l6.012,-5.01l5.01,-6.011l8.016,-3.006l9.017,-2.004l5.01,-6.012l6.012,-5.01l5.01,-6.012l6.012,-5.01l5.01,-6.012l6.011,-5.009l3.006,-8.016l0,-165.326l2.004,-9.017l6.012,-5.01l3.006,-8.016l0,-198.39l2.004,-9.018l6.012,-5.01l3.006,-8.016l-3.006,-9.017l-6.012,-5.01l-2.004,-8.016l0,-33.065l-3.006,-9.018l-6.012,-5.01l-2.004,-8.016l-3.006,-9.017l-6.011,-5.01l-5.01,-6.012l-6.012,-5.01l-5.01,-6.012l-9.018,-3.006l-8.016,-2.004l-5.009,-6.011l-9.018,-3.006l-8.016,-2.004l0,-6.012l6.012,-5.01l5.01,-6.012l8.016,-3.006l11.021,0l9.018,-2.004l5.01,-6.011l8.016,-3.006l33.065,0l9.017,3.006l5.01,6.011l8.016,2.004l11.022,0l9.017,3.006l5.01,6.012l8.016,2.004l22.043,0l9.018,-2.004l5.01,-6.012l8.016,-3.006l9.018,-2.004l5.009,-6.011l8.016,-3.006l22.044,0l9.017,-2.004l5.01,-6.012l8.016,-3.006l22.043,0l9.018,3.006l5.01,6.012l8.016,2.004l33.065,0l9.018,3.006l5.009,6.011l6.012,5.01l5.01,6.012l6.012,5.01l5.01,6.012l8.016,2.004l9.017,3.006l5.01,6.011l6.012,5.01l5.01,6.012l6.012,5.01l5.01,6.012l6.011,5.01l3.006,9.017l2.004,8.016l6.012,5.01l3.006,9.018l0,11.022l2.004,8.015l6.012,5.01l3.006,9.018l0,11.022l2.004,8.015l6.011,5.01l3.006,9.018l0,11.022l2.004,8.015l6.012,5.01l3.006,9.018l0,44.087l2.004,8.016l6.012,5.009l3.006,9.018l0,22.044l-3.006,8.015l-6.012,5.01Z" style="fill-rule:nonzero;"/><path d="M5159.7,623.587l-1.548,6.965l-2.321,6.191l-4.644,3.869l-3.869,4.643l-4.643,3.869l-3.869,4.644l-4.643,3.869l-3.87,4.643l-4.643,3.869l-3.869,4.643l-4.643,3.87l-3.87,4.643l-6.964,1.548l-6.191,2.321l-3.87,4.643l-6.964,1.548l-25.538,0l-6.191,-1.548l-3.869,-4.643l-6.965,-2.321l-6.191,-1.548l-3.869,-4.643l-4.643,-3.87l-3.869,-4.643l-4.644,-3.869l-3.869,-4.643l-4.643,-3.869l-1.548,-6.191l-2.321,-6.965l-4.643,-3.869l-3.87,-4.644l-6.965,-2.321l-6.19,-1.548l-1.548,-6.191l0,-25.537l-2.322,-6.965l-4.643,-3.869l0,-4.643l4.643,-3.87l2.322,-6.191l1.548,-6.964l4.643,-3.87l2.321,-6.19l0,-8.513l1.548,-6.965l4.643,-3.869l2.322,-6.191l1.548,-6.965l4.643,-3.869l3.869,-4.643l6.191,-2.322l6.965,-1.547l3.869,-4.644l6.191,-2.321l6.965,-1.548l3.869,-4.643l6.191,-2.322l6.964,2.322l3.87,4.643l6.191,1.548l8.512,0l6.965,2.321l3.869,4.644l6.191,1.547l6.965,2.322l3.869,4.643l6.191,1.548l6.965,2.321l3.869,4.644l4.643,3.869l3.87,4.643l4.643,3.869l3.869,4.643l4.643,3.87l3.869,4.643l4.644,3.869l2.321,6.965l0,25.537l1.548,6.191l4.643,3.87l2.322,6.964l0,8.513l-2.322,6.191l-4.643,3.869Z" style="fill-rule:nonzero;"/></svg>