<?xml version="1.0" encoding="UTF-8" standalone="no"?>
<!DOCTYPE svg PUBLIC "-//W3C//DTD SVG 1.1//EN" "http://www.w3.org/Graphics/SVG/1.1/DTD/svg11.dtd">
<svg width="100%" height="100%" viewBox="0 0 1280 800" version="1.1" xmlns="http://www.w3.org/2000/svg" xmlns:xlink="http://www.w3.org/1999/xlink" xml:space="preserve" xmlns:serif="http://www.serif.com/" style="fill-rule:evenodd;clip-rule:evenodd;stroke-linejoin:round;stroke-miterlimit:2;">
    <g transform="matrix(208.333,0,0,208.333,583.842,439.844)">
        <path d="M0.349,-0.33l-0.006,-0.005l-0.002,-0.008l-0.003,-0.009l-0.006,-0.004l-0.005,-0.006l-0.006,-0.005l-0.005,-0.006l-0.005,-0.005l-0.005,-0.006l-0.009,-0.003l-0.008,-0.002l-0.005,-0.006l-0.009,-0.002l-0.007,-0.002l-0.005,-0.006l-0.009,-0.003l-0.043,0l-0.008,0.003l-0.005,0.006l-0.006,0.004l-0.004,0.006l-0.006,0.005l-0.005,0.006l-0.006,0.005l-0.005,0.006l-0.006,0.005l-0.002,0.008l-0.003,0.008l-0.006,0.005l-0.002,0.009l0,0.011l0.002,0.008l0.006,0.004l0.003,0.009l0,0.022l0.002,0.007l0.006,0.005l0.005,0.006l0.006,0.005l0.005,0.006l0.006,0.005l0.004,0.006l0.006,0.005l0.005,0.005l0.006,0.005l0.005,0.006l0.008,0.002l0.008,0.003l0.005,0.006l0.008,0.002l0.011,0l0.009,-0.002l0.005,-0.006l0.005,-0.005l0.005,-0.006l0.008,-0.003l0.009,-0.002l0.005,-0.005l0.006,-0.005l0.005,-0.006l0.005,-0.005l0.003,-0.008l0.002,-0.009l0.006,-0.005l0.003,-0.007l0.002,-0.009l0.006,-0.005l0.003,-0.008l0,-0.011l0.002,-0.008l0.006,-0.005l0,-0.006Zm0.046,0.395l0,-0.01l-0.003,-0.009l-0.006,-0.005l-0.002,-0.008l-0.003,-0.009l-0.006,-0.004l-0.005,-0.006l-0.009,-0.003l-0.007,-0.002l-0.005,-0.006l-0.009,-0.003l-0.008,-0.002l-0.005,-0.006l-0.009,-0.003l-0.01,0l-0.008,-0.002l-0.005,-0.006l-0.009,-0.002l-0.021,0l-0.008,0.002l-0.005,0.006l-0.009,0.002l-0.021,0l-0.008,0.003l-0.005,0.006l-0.009,0.002l-0.021,0l-0.008,0.003l-0.005,0.006l-0.009,0.002l-0.008,0.003l-0.004,0.006l-0.006,0.004l-0.005,0.006l-0.006,0.005l-0.002,0.009l0,0.021l0.002,0.008l0.006,0.005l0.005,0.006l0.006,0.005l0.004,0.006l0.008,0.002l0.009,0.003l0.005,0.005l0.008,0.002l0.009,0.003l0.004,0.006l0.008,0.002l0.009,0.003l0.005,0.006l0.008,0.002l0.008,0.003l0.005,0.006l0.008,0.002l0.009,-0.002l0.005,-0.006l0.008,-0.003l0.021,0l0.009,-0.002l0.005,-0.006l0.008,-0.003l0.021,0l0.009,-0.002l0.005,-0.006l0.008,-0.003l0.008,-0.002l0.005,-0.005l0.006,-0.005l0.005,-0.006l0.006,-0.005l0.005,-0.006l0.006,-0.005l0.003,-0.008Zm0.077,0.024l-0.002,0.009l0,0.01l-0.003,0.008l-0.006,0.005l-0.005,0.006l-0.006,0.005l-0.005,0.006l-0.006,0.005l-0.004,0.005l-0.006,0.005l-0.005,0.006l-0.009,0.002l-0.008,0.003l-0.005,0.006l-0.008,0.002l-0.008,0.003l-0.005,0.006l-0.006,0.005l-0.005,0.005l-0.009,0.002l-0.007,0.003l-0.005,0.006l-0.009,0.002l-0.183,0l-0.008,-0.002l-0.004,-0.006l-0.009,-0.003l-0.008,-0.002l-0.005,-0.005l-0.006,-0.005l-0.005,-0.006l-0.008,-0.003l-0.008,-0.002l-0.005,-0.006l-0.009,-0.003l-0.008,-0.002l-0.005,-0.006l-0.006,-0.005l-0.004,-0.005l-0.006,-0.005l-0.002,-0.008l-0.003,-0.009l-0.006,-0.005l-0.002,-0.008l0,-0.032l-0.003,-0.009l-0.006,-0.004l0,-0.006l0.006,-0.005l0.003,-0.008l0,-0.032l0.002,-0.009l0.006,-0.005l0.003,-0.008l0.002,-0.009l0.006,-0.004l0.003,-0.008l0.001,-0.009l0.006,-0.005l0.003,-0.008l0,-0.01l-0.003,-0.009l-0.006,-0.005l-0.001,-0.008l0,-0.054l0.001,-0.008l0.006,-0.005l0.003,-0.008l0.002,-0.009l0.006,-0.005l0.005,-0.006l0.006,-0.005l0.003,-0.007l0.002,-0.009l0.006,-0.005l0,-0.006l-0.006,-0.005l-0.002,-0.008l0,-0.01l-0.003,-0.009l-0.006,-0.005l-0.002,-0.008l0,-0.043l0.002,-0.009l0.006,-0.004l0.003,-0.008l0,-0.033l0.002,-0.008l0.006,-0.005l0.002,-0.008l0.002,-0.009l0.006,-0.005l0.003,-0.007l0.002,-0.009l0.006,-0.005l0.005,-0.006l0.008,-0.003l0.009,-0.002l0.004,-0.006l0.006,-0.005l0.005,-0.005l0.008,-0.003l0.009,-0.002l0.005,-0.006l0.007,-0.003l0.086,0l0.009,0.003l0.005,0.006l0.008,0.002l0.009,0.003l0.005,0.005l0.007,0.002l0.033,0l0.008,-0.002l0.005,-0.005l0.006,-0.005l0.005,-0.006l0.008,-0.003l0.009,-0.002l0.004,-0.006l0.008,-0.003l0.011,0l0.009,0.003l0.005,0.006l0.008,0.002l0.008,0.003l0.005,0.006l0.006,0.005l0.005,0.005l0.006,0.005l0.005,0.006l0.006,0.005l0.002,0.009l-0.002,0.008l-0.006,0.004l-0.005,0.006l-0.006,0.005l-0.005,0.006l-0.006,0.005l-0.005,0.006l-0.008,0.002l-0.011,0l-0.008,0.003l-0.005,0.006l-0.006,0.004l-0.005,0.006l-0.006,0.005l-0.001,0.009l0,0.064l-0.003,0.008l-0.006,0.005l-0.002,0.009l-0.003,0.008l-0.006,0.005l-0.005,0.005l-0.006,0.005l-0.005,0.006l-0.005,0.005l-0.005,0.006l-0.006,0.005l-0.005,0.006l-0.009,0.002l-0.008,0.003l-0.005,0.005l-0.005,0.005l-0.005,0.006l-0.009,0.002l-0.008,0.003l-0.005,0.006l-0.006,0.005l-0.005,0.006l-0.008,0.002l-0.011,0l-0.008,0.003l-0.005,0.005l-0.006,0l-0.005,-0.005l-0.005,0l-0.005,0.005l-0.009,0.002l-0.032,0l-0.008,0.003l-0.005,0.006l-0.006,0.005l-0.005,0.006l-0.006,0.005l0,0.006l0.006,0.005l0.005,0.005l0.006,0.005l0.005,0.006l0.008,0.002l0.01,0l0.009,0.003l0.005,0.006l0.008,0.002l0.043,0l0.009,0.003l0.005,0.006l0.007,0.002l0.033,0l0.008,-0.002l0.005,-0.006l0.008,-0.003l0.022,0l0.008,0.003l0.005,0.006l0.006,0.004l0.005,0.006l0.008,0.002l0.011,0l0.008,0.003l0.005,0.006l0.008,0.002l0.009,0.003l0.005,0.006l0.006,0.005l0.004,0.006l0.006,0.004l0.005,0.006l0.006,0.005l0.005,0.006l0.006,0.005l0.005,0.006l0.006,0.005l0.002,0.008l0,0.054l-0.002,0.008l-0.006,0.005Z" style="fill:#33363e;fill-rule:nonzero;"/>
    </g>
    <g transform="matrix(208.333,0,0,208.333,687.45,435.606)">
        <path d="M0.495,-0.287l-0.002,0.009l-0.003,0.007l-0.006,0.005l-0.005,0.006l-0.005,0.005l-0.005,0.006l-0.006,0.005l-0.005,0.006l-0.009,0.002l-0.011,0l-0.007,-0.002l-0.005,-0.006l-0.009,-0.003l-0.008,-0.002l-0.005,-0.006l-0.006,-0.005l-0.004,-0.006l-0.006,-0.005l-0.002,-0.007l-0.003,-0.009l-0.006,-0.005l-0.002,-0.008l0,-0.011l0.002,-0.008l0.006,-0.005l0,-0.006l-0.006,-0.005l-0.005,-0.006l-0.006,-0.005l-0.005,-0.006l-0.008,-0.002l-0.011,0l-0.008,0.002l-0.005,0.006l-0.009,0.002l-0.007,0.003l-0.005,0.006l-0.006,0.005l-0.005,0.006l-0.006,0.005l-0.005,0.006l-0.006,0.004l-0.002,0.009l-0.003,0.008l-0.005,0.005l-0.005,0.006l-0.006,0.005l-0.005,0.005l-0.006,0.005l-0.002,0.009l-0.003,0.008l-0.006,0.005l-0.002,0.009l-0.003,0.007l-0.005,0.005l-0.002,0.009l0,0.075l-0.003,0.008l-0.006,0.005l0,0.006l0.006,0.005l0.003,0.009l0,0.021l0.002,0.008l0.005,0.005l0.003,0.009l0.002,0.007l0.006,0.005l0.005,0.006l0.006,0.005l0.005,0.006l0.008,0.002l0.008,0.003l0.005,0.006l0.008,0.002l0.032,0l0.009,0.002l0.005,0.006l0.008,0.002l0.009,0.003l0.004,0.006l0.006,0.005l0.003,0.009l0,0.01l-0.003,0.008l-0.006,0.005l-0.004,0.006l-0.006,0.005l-0.005,0.006l-0.006,0.005l-0.005,0.005l-0.009,0.002l-0.118,0l-0.008,0.003l-0.005,0.006l-0.008,0.002l-0.043,0l-0.008,-0.002l-0.005,-0.006l-0.009,-0.003l-0.021,0l-0.008,-0.002l-0.005,-0.005l-0.009,-0.003l-0.01,0l-0.008,-0.002l-0.005,-0.006l-0.006,-0.005l-0.005,-0.006l-0.006,-0.005l-0.002,-0.008l0,-0.021l0.002,-0.009l0.006,-0.005l0.005,-0.006l0.006,-0.004l0.005,-0.006l0.008,-0.003l0.021,0l0.009,0.003l0.005,0.006l0.007,0.002l0.009,-0.002l0.005,-0.006l0.008,-0.003l0.009,-0.002l0.003,-0.008l0.002,-0.009l0.005,-0.005l0.003,-0.007l0,-0.022l0.002,-0.009l0.006,-0.005l0.003,-0.007l0,-0.086l-0.003,-0.009l-0.006,-0.005l-0.002,-0.008l0,-0.011l0.002,-0.008l0.006,-0.005l0.003,-0.008l0,-0.022l-0.003,-0.008l-0.006,-0.005l-0.002,-0.008l0,-0.032l-0.003,-0.009l-0.005,-0.005l-0.005,-0.006l-0.006,-0.005l-0.005,-0.006l-0.009,-0.002l-0.008,-0.002l-0.004,-0.006l-0.009,-0.003l-0.011,0l-0.008,-0.002l-0.005,-0.006l-0.008,-0.003l-0.008,-0.002l-0.002,-0.008l-0.003,-0.009l-0.006,-0.004l0,-0.006l0.006,-0.005l0.005,-0.006l0.006,-0.005l0.004,-0.006l0.008,-0.003l0.043,0l0.009,-0.002l0.005,-0.005l0.006,0l0.005,0.005l0.005,0l0.005,-0.005l0.008,-0.003l0.011,0l0.009,0.003l0.005,0.005l0.007,0.002l0.009,0.003l0.005,0.006l0.006,0.005l0.005,0.006l0.006,0.005l0.005,0.006l0.007,0.002l0.011,0l0.009,-0.002l0.005,-0.006l0.008,-0.003l0.008,-0.002l0.005,-0.006l0.006,-0.005l0.005,-0.006l0.008,-0.003l0.011,0l0.008,-0.002l0.005,-0.005l0.008,-0.003l0.075,0l0.009,0.003l0.005,0.005l0.008,0.002l0.009,0.003l0.004,0.006l0.008,0.002l0.009,0.003l0.005,0.006l0.006,0.005l0.005,0.006l0.005,0.004l0.005,0.006l0.006,0.005l0.003,0.009l0.002,0.008l0.006,0.005l0.003,0.008l0,0.054l-0.003,0.008l-0.006,0.005Z" style="fill:#33363e;fill-rule:nonzero;"/>
    </g>
    <g transform="matrix(208.333,0,0,208.333,795.941,437.606)">
        <path d="M0.354,-0.128l0,-0.011l-0.003,-0.008l-0.006,-0.005l-0.005,-0.006l-0.006,-0.005l-0.005,-0.006l-0.009,-0.003l-0.032,0l-0.008,0.003l-0.005,0.006l-0.008,0.002l-0.054,0l-0.008,0.003l-0.005,0.006l-0.009,0.002l-0.01,0l-0.008,0.003l-0.005,0.005l-0.009,0.002l-0.008,0.003l-0.005,0.006l-0.005,0.005l-0.005,0.006l-0.006,0.005l-0.002,0.009l-0.003,0.007l-0.006,0.005l-0.002,0.009l0,0.011l0.002,0.008l0.006,0.004l0.005,0.006l0.006,0.005l0.005,0.006l0.005,0.005l0.005,0.006l0.008,0.002l0.065,0l0.008,-0.002l0.005,-0.006l0.008,-0.003l0.009,-0.002l0.005,-0.006l0.006,-0.005l0.005,-0.006l0.007,-0.002l0.009,-0.002l0.005,-0.006l0.008,-0.003l0.009,-0.002l0.005,-0.006l0.007,-0.003l0.009,-0.002l0.003,-0.008l0.002,-0.008l0.006,-0.005l0.005,-0.006l0.006,-0.005l0.003,-0.008Zm0.152,0.152l-0.005,0.006l-0.006,0.005l-0.005,0.006l-0.009,0.002l-0.007,0.003l-0.005,0.006l-0.009,0.002l-0.032,0l-0.008,-0.002l-0.005,-0.006l-0.009,-0.003l-0.008,-0.002l-0.004,-0.006l-0.006,-0.005l-0.005,-0.006l-0.009,-0.003l-0.008,-0.001l-0.005,-0.006l-0.006,0l-0.004,0.006l-0.009,0.001l-0.011,0l-0.008,0.003l-0.005,0.006l-0.008,0.002l-0.008,0.003l-0.005,0.006l-0.009,0.002l-0.011,0l-0.007,0.003l-0.005,0.006l-0.009,0.002l-0.022,0l-0.007,0.003l-0.005,0.006l-0.006,0l-0.005,-0.006l-0.009,-0.003l-0.054,0l-0.007,-0.002l-0.005,-0.006l-0.009,-0.003l-0.008,-0.002l-0.005,-0.006l-0.009,-0.003l-0.007,-0.002l-0.005,-0.006l-0.006,-0.004l-0.005,-0.006l-0.006,-0.005l-0.005,-0.006l-0.006,-0.005l-0.004,-0.006l-0.006,-0.005l-0.002,-0.008l-0.003,-0.008l-0.006,-0.005l-0.002,-0.008l0,-0.011l-0.003,-0.009l-0.006,-0.004l-0.002,-0.008l0,-0.032l0.002,-0.009l0.006,-0.005l0.003,-0.008l0,-0.011l0.002,-0.008l0.006,-0.005l0.003,-0.008l0.002,-0.009l0.006,-0.005l0.004,-0.006l0.006,-0.005l0.005,-0.005l0.006,-0.005l0.005,-0.006l0.008,-0.003l0.01,0l0.009,-0.002l0.005,-0.006l0.008,-0.003l0.011,0l0.008,-0.002l0.005,-0.006l0.008,-0.003l0.043,0l0.009,-0.002l0.005,-0.005l0.008,-0.003l0.032,0l0.009,-0.002l0.005,-0.006l0.007,-0.003l0.054,0l0.009,-0.002l0.005,-0.006l0.006,-0.005l0.004,-0.006l0.008,-0.003l0.009,-0.002l0.003,-0.007l0,-0.022l-0.003,-0.009l-0.006,-0.004l0,-0.006l0.006,-0.005l0,-0.006l-0.006,-0.005l-0.002,-0.008l-0.003,-0.009l-0.006,-0.004l-0.004,-0.006l-0.006,-0.005l-0.005,-0.006l-0.009,-0.003l-0.011,0l-0.007,-0.002l-0.005,-0.006l-0.006,0l-0.005,0.006l-0.009,0.002l-0.075,0l-0.008,0.003l-0.005,0.006l-0.006,0.005l-0.005,0.006l-0.005,0.004l-0.002,0.009l0,0.032l-0.003,0.008l-0.006,0.005l-0.005,0.006l-0.006,0.005l-0.005,0.006l-0.009,0.002l-0.021,0l-0.008,-0.002l-0.005,-0.006l-0.009,-0.003l-0.007,-0.002l-0.005,-0.006l-0.006,-0.005l-0.002,-0.008l0,-0.01l-0.003,-0.009l-0.006,-0.005l-0.002,-0.008l0,-0.011l0.002,-0.008l0.006,-0.005l0.003,-0.008l0.002,-0.009l0.006,-0.005l0.005,-0.006l0.006,-0.004l0.004,-0.006l0.008,-0.003l0.009,-0.002l0.005,-0.006l0.008,-0.003l0.008,-0.002l0.005,-0.006l0.008,-0.003l0.043,0l0.009,-0.002l0.005,-0.005l0.006,0l0.005,0.005l0.007,0.002l0.043,0l0.009,0.003l0.005,0.006l0.008,0.002l0.032,0l0.009,0.003l0.005,0.006l0.008,0.002l0.008,0.003l0.005,0.006l0.006,0.004l0.005,0.006l0.006,0.005l0.005,0.006l0.006,0.005l0.004,0.006l0.006,0.005l0.003,0.008l0.002,0.008l0.006,0.005l0.003,0.009l0,0.054l0.002,0.007l0.006,0.005l0.003,0.009l0,0.172l0.002,0.008l0.006,0.005l0.004,0.006l0.006,0.004l0.005,0.006l0.008,0.002l0.009,0.003l0.005,0.006l0.007,0.002l0.009,0.003l0.005,0.006l0.008,0.002l0.009,0.003l0.003,0.008l0,0.033l-0.003,0.008l-0.006,0.004Z" style="fill:#33363e;fill-rule:nonzero;"/>
    </g>
    <g transform="matrix(208.333,0,0,208.333,906.67,437.606)">
        <path d="M0.431,-0.094l-0.002,0.009l0,0.022l-0.003,0.007l-0.006,0.005l-0.002,0.009l-0.003,0.008l-0.006,0.005l-0.002,0.008l-0.003,0.008l-0.006,0.005l-0.002,0.009l-0.002,0.008l-0.006,0.005l-0.005,0.006l-0.006,0.004l-0.005,0.006l-0.009,0.002l-0.008,0.003l-0.004,0.006l-0.009,0.002l-0.008,0.003l-0.005,0.006l-0.009,0.002l-0.053,0l-0.008,0.003l-0.005,0.005l-0.009,0.002l-0.011,0l-0.007,-0.002l-0.005,-0.005l-0.009,-0.003l-0.022,0l-0.007,-0.002l-0.005,-0.006l-0.009,-0.003l-0.043,0l-0.008,0.003l-0.005,0.006l-0.009,0.002l-0.007,0.003l-0.005,0.005l-0.009,0.002l-0.008,-0.002l-0.005,-0.005l-0.006,-0.005l-0.004,-0.006l-0.006,-0.005l-0.002,-0.008l0,-0.032l-0.003,-0.009l-0.006,-0.005l-0.002,-0.008l-0.003,-0.008l-0.006,-0.005l-0.002,-0.008l0,-0.021l0.002,-0.009l0.006,-0.005l0.003,-0.008l0.002,-0.009l0.006,-0.005l0.005,-0.005l0.008,-0.003l0.021,0l0.009,0.003l0.003,0.008l0.002,0.008l0.007,0.002l0.009,0.003l0.005,0.006l0.006,0.005l0.005,0.006l0.006,0.004l0.005,0.006l0.007,0.002l0.009,0.003l0.005,0.006l0.008,0.002l0.011,0l0.008,0.003l0.005,0.006l0.008,0.002l0.011,0l0.009,-0.002l0.005,-0.006l0.007,-0.003l0.033,0l0.008,-0.002l0.005,-0.006l0.008,-0.003l0.009,-0.002l0.005,-0.006l0.006,-0.004l0.005,-0.006l0.005,-0.005l0.005,-0.006l0.008,-0.003l0.009,-0.002l0.003,-0.008l0,-0.021l-0.003,-0.009l-0.006,-0.005l-0.005,-0.006l-0.006,-0.005l-0.005,-0.005l-0.008,-0.003l-0.008,-0.002l-0.005,-0.006l-0.009,-0.003l-0.011,0l-0.007,-0.002l-0.005,-0.006l-0.009,-0.003l-0.022,0l-0.007,-0.002l-0.005,-0.006l-0.009,-0.003l-0.032,0l-0.008,-0.002l-0.005,-0.005l-0.009,-0.003l-0.008,-0.002l-0.005,-0.006l-0.005,-0.005l-0.005,-0.006l-0.006,-0.005l-0.005,-0.006l-0.009,-0.003l-0.008,-0.002l-0.002,-0.007l-0.002,-0.009l-0.009,-0.003l-0.008,-0.002l-0.002,-0.008l-0.003,-0.009l-0.006,-0.005l-0.005,-0.005l-0.006,-0.005l-0.002,-0.008l0,-0.011l-0.002,-0.009l-0.006,-0.004l-0.002,-0.008l0.002,-0.009l0.006,-0.005l0.002,-0.008l0,-0.011l0.002,-0.008l0.006,-0.005l0.003,-0.008l0.002,-0.009l0.006,-0.005l0.005,-0.006l0.006,-0.004l0.005,-0.006l0.007,-0.003l0.009,-0.002l0.005,-0.006l0.008,-0.003l0.009,-0.002l0.005,-0.006l0.007,-0.003l0.011,0l0.009,-0.002l0.005,-0.005l0.008,-0.003l0.008,-0.002l0.005,-0.006l0.008,-0.003l0.011,0l0.009,0.003l0.005,0.006l0.007,0.002l0.022,0l0.009,0.003l0.005,0.005l0.007,0.002l0.086,0l0.009,0.003l0.005,0.006l0.006,0.005l0.003,0.009l0.002,0.008l0.006,0.004l0.002,0.009l0,0.054l-0.002,0.008l-0.006,0.005l-0.005,0.006l-0.009,0.001l-0.011,0l-0.008,-0.001l-0.004,-0.006l-0.006,-0.005l-0.005,-0.006l-0.006,-0.005l-0.005,-0.006l-0.006,-0.005l-0.005,-0.006l-0.005,-0.004l-0.005,-0.006l-0.009,-0.003l-0.008,-0.002l-0.005,-0.006l-0.009,-0.003l-0.032,0l-0.008,-0.002l-0.005,-0.006l-0.008,-0.003l-0.043,0l-0.008,-0.002l-0.005,-0.006l-0.006,0l-0.002,0.009l-0.003,0.008l-0.006,0.005l-0.005,0.006l-0.005,0.005l-0.002,0.008l-0.003,0.008l-0.006,0.005l-0.002,0.009l-0.003,0.008l-0.006,0.005l0,0.006l0.006,0.004l0.003,0.009l0.002,0.008l0.006,0.005l0.005,0.006l0.005,0.005l0.005,0.005l0.006,0.005l0.005,0.006l0.008,0.002l0.043,0l0.009,0.003l0.005,0.006l0.007,0.002l0.011,0l0.009,0.003l0.005,0.006l0.008,0.002l0.043,0l0.008,0.003l0.005,0.005l0.008,0.002l0.011,0l0.009,0.003l0.004,0.006l0.008,0.002l0.009,0.003l0.005,0.006l0.006,0.005l0.005,0.006l0.006,0.005l0.004,0.005l0.006,0.005l0.003,0.009l0.002,0.008l0.006,0.005l0.003,0.009l0.002,0.007l0.006,0.005l0.003,0.009l0.002,0.008l0.006,0.005l0.002,0.009l-0.002,0.007l-0.006,0.005Z" style="fill:#33363e;fill-rule:nonzero;"/>
    </g>
    <g transform="matrix(208.333,0,0,208.333,1001.73,444.606)">
        <path d="M0.448,-0.289l-0.003,-0.009l-0.006,-0.005l-0.002,-0.008l-0.002,-0.008l-0.006,-0.005l-0.005,-0.006l-0.006,-0.005l-0.002,-0.008l-0.003,-0.009l-0.006,-0.004l-0.005,-0.006l-0.006,-0.005l-0.004,-0.006l-0.006,-0.005l-0.005,-0.006l-0.006,-0.005l-0.005,-0.006l-0.006,-0.004l-0.005,-0.006l-0.008,-0.003l-0.076,0l-0.007,0.003l-0.005,0.006l-0.009,0.002l-0.022,0l-0.007,0.002l-0.005,0.006l-0.006,0.005l-0.005,0.006l-0.006,0.005l-0.005,0.006l-0.006,0.005l-0.002,0.008l0,0.033l-0.002,0.008l-0.006,0.004l-0.002,0.009l0,0.043l-0.003,0.008l-0.006,0.005l-0.002,0.009l0,0.021l0.002,0.008l0.006,0.005l0.003,0.009l0,0.01l0.002,0.008l0.006,0.005l0.002,0.009l0,0.021l0.002,0.008l0.006,0.005l0.003,0.009l0.002,0.008l0.006,0.005l0.005,0.005l0.006,0.005l0.003,0.009l0.002,0.008l0.007,0.002l0.009,0.003l0.005,0.006l0.008,0.002l0.009,0.002l0.005,0.006l0.007,0.002l0.009,0.003l0.005,0.006l0.008,0.002l0.064,0l0.009,-0.002l0.005,-0.006l0.006,-0.005l0.005,-0.006l0.006,-0.004l0.003,-0.008l0.001,-0.009l0.006,-0.005l0.003,-0.008l0.002,-0.008l0.006,-0.005l0.003,-0.008l0,-0.032l0.002,-0.009l0.006,-0.005l0.003,-0.008l0,-0.021l0.002,-0.009l0.006,-0.005l0.003,-0.008l-0.001,-0.054l0.002,-0.008l0.006,-0.005l0.003,-0.008Zm0.045,0.131l-0.002,0.009l0,0.021l-0.003,0.008l-0.006,0.005l-0.002,0.009l0,0.021l-0.002,0.008l-0.006,0.005l-0.005,0.006l-0.006,0.004l-0.005,0.006l-0.006,0.005l-0.005,0.006l-0.006,0.005l-0.004,0.006l-0.006,0.005l-0.005,0.006l-0.009,0.002l-0.008,0.002l-0.005,0.006l-0.006,0.005l-0.004,0.006l-0.006,0.005l-0.005,0.006l-0.009,0.002l-0.011,0l-0.007,0.003l-0.005,0.006l-0.006,0l-0.005,-0.006l-0.006,0l-0.005,0.006l-0.009,0.001l-0.021,0l-0.008,0.003l-0.005,0.006l-0.006,0l-0.005,-0.006l-0.008,-0.003l-0.043,0l-0.008,0.003l-0.005,0.006l-0.006,0.005l-0.005,0.006l-0.006,0.005l-0.002,0.009l-0.002,0.008l-0.006,0.004l-0.002,0.009l0,0.022l0.002,0.007l0.006,0.005l0.002,0.009l0.002,0.008l0.008,0.002l0.009,0.003l0.005,0.006l0.008,0.002l0.008,0.003l0.005,0.005l0.006,0.005l0.005,0.006l0.006,0.005l0.003,0.009l-0.003,0.008l-0.006,0.005l-0.005,0.005l-0.009,0.002l-0.007,0.003l-0.005,0.006l-0.009,0.002l-0.129,0l-0.008,-0.002l-0.005,-0.006l-0.008,-0.003l-0.008,-0.002l-0.005,-0.005l-0.006,-0.005l-0.005,-0.006l-0.006,-0.005l0,-0.006l0.006,-0.005l0.005,-0.006l0.006,-0.005l0.005,-0.005l0.008,-0.003l0.008,-0.002l0.005,-0.006l0.006,-0.005l0.005,-0.006l0.006,-0.005l0.005,-0.006l0.006,-0.005l0.002,-0.007l0,-0.161l0.002,-0.009l0.006,-0.005l0.003,-0.008l0,-0.193l0.002,-0.009l0.006,-0.005l0.003,-0.008l-0.003,-0.009l-0.006,-0.004l-0.002,-0.008l0,-0.033l-0.003,-0.008l-0.006,-0.005l-0.002,-0.008l-0.002,-0.009l-0.006,-0.005l-0.005,-0.006l-0.006,-0.004l-0.005,-0.006l-0.009,-0.003l-0.008,-0.002l-0.004,-0.006l-0.009,-0.003l-0.008,-0.002l0,-0.006l0.006,-0.005l0.005,-0.005l0.008,-0.003l0.01,0l0.009,-0.002l0.005,-0.006l0.008,-0.003l0.032,0l0.009,0.003l0.005,0.006l0.007,0.002l0.011,0l0.009,0.003l0.005,0.005l0.008,0.002l0.021,0l0.009,-0.002l0.005,-0.005l0.008,-0.003l0.008,-0.002l0.005,-0.006l0.008,-0.003l0.022,0l0.008,-0.002l0.005,-0.006l0.008,-0.003l0.022,0l0.008,0.003l0.005,0.006l0.008,0.002l0.032,0l0.009,0.003l0.005,0.006l0.006,0.005l0.005,0.005l0.006,0.005l0.004,0.006l0.008,0.002l0.009,0.003l0.005,0.006l0.006,0.005l0.005,0.006l0.006,0.004l0.004,0.006l0.006,0.005l0.003,0.009l0.002,0.008l0.006,0.005l0.003,0.008l0,0.011l0.002,0.008l0.006,0.005l0.003,0.009l0,0.01l0.002,0.008l0.006,0.005l0.002,0.009l0,0.011l0.002,0.007l0.006,0.005l0.003,0.009l0,0.043l0.002,0.008l0.006,0.005l0.003,0.009l0,0.021l-0.003,0.008l-0.006,0.005Z" style="fill:#33363e;fill-rule:nonzero;"/>
    </g>
    <g transform="matrix(208.333,0,0,208.333,232.47,437.623)">
        <path d="M0.354,-0.128l0,-0.011l-0.003,-0.008l-0.006,-0.005l-0.005,-0.006l-0.006,-0.005l-0.005,-0.006l-0.009,-0.003l-0.032,0l-0.008,0.003l-0.005,0.006l-0.008,0.002l-0.054,0l-0.008,0.003l-0.005,0.006l-0.009,0.002l-0.01,0l-0.008,0.003l-0.005,0.005l-0.009,0.002l-0.008,0.003l-0.005,0.006l-0.005,0.005l-0.005,0.006l-0.006,0.005l-0.002,0.009l-0.003,0.007l-0.006,0.005l-0.002,0.009l0,0.011l0.002,0.008l0.006,0.004l0.005,0.006l0.006,0.005l0.005,0.006l0.005,0.005l0.005,0.006l0.008,0.002l0.065,0l0.008,-0.002l0.005,-0.006l0.008,-0.003l0.009,-0.002l0.005,-0.006l0.006,-0.005l0.005,-0.006l0.007,-0.002l0.009,-0.002l0.005,-0.006l0.008,-0.003l0.009,-0.002l0.005,-0.006l0.007,-0.003l0.009,-0.002l0.003,-0.008l0.002,-0.008l0.006,-0.005l0.005,-0.006l0.006,-0.005l0.003,-0.008Zm0.152,0.152l-0.005,0.006l-0.006,0.005l-0.005,0.006l-0.009,0.002l-0.007,0.003l-0.005,0.006l-0.009,0.002l-0.032,0l-0.008,-0.002l-0.005,-0.006l-0.009,-0.003l-0.008,-0.002l-0.004,-0.006l-0.006,-0.005l-0.005,-0.006l-0.009,-0.003l-0.008,-0.001l-0.005,-0.006l-0.006,0l-0.004,0.006l-0.009,0.001l-0.011,0l-0.008,0.003l-0.005,0.006l-0.008,0.002l-0.008,0.003l-0.005,0.006l-0.009,0.002l-0.011,0l-0.007,0.003l-0.005,0.006l-0.009,0.002l-0.022,0l-0.007,0.003l-0.005,0.006l-0.006,0l-0.005,-0.006l-0.009,-0.003l-0.054,0l-0.007,-0.002l-0.005,-0.006l-0.009,-0.003l-0.008,-0.002l-0.005,-0.006l-0.009,-0.003l-0.007,-0.002l-0.005,-0.006l-0.006,-0.004l-0.005,-0.006l-0.006,-0.005l-0.005,-0.006l-0.006,-0.005l-0.004,-0.006l-0.006,-0.005l-0.002,-0.008l-0.003,-0.008l-0.006,-0.005l-0.002,-0.008l0,-0.011l-0.003,-0.009l-0.006,-0.004l-0.002,-0.008l0,-0.032l0.002,-0.009l0.006,-0.005l0.003,-0.008l0,-0.011l0.002,-0.008l0.006,-0.005l0.003,-0.008l0.002,-0.009l0.006,-0.005l0.004,-0.006l0.006,-0.005l0.005,-0.005l0.006,-0.005l0.005,-0.006l0.008,-0.003l0.01,0l0.009,-0.002l0.005,-0.006l0.008,-0.003l0.011,0l0.008,-0.002l0.005,-0.006l0.008,-0.003l0.043,0l0.009,-0.002l0.005,-0.005l0.008,-0.003l0.032,0l0.009,-0.002l0.005,-0.006l0.007,-0.003l0.054,0l0.009,-0.002l0.005,-0.006l0.006,-0.005l0.004,-0.006l0.008,-0.003l0.009,-0.002l0.003,-0.007l0,-0.022l-0.003,-0.009l-0.006,-0.004l0,-0.006l0.006,-0.005l0,-0.006l-0.006,-0.005l-0.002,-0.008l-0.003,-0.009l-0.006,-0.004l-0.004,-0.006l-0.006,-0.005l-0.005,-0.006l-0.009,-0.003l-0.011,0l-0.007,-0.002l-0.005,-0.006l-0.006,0l-0.005,0.006l-0.009,0.002l-0.075,0l-0.008,0.003l-0.005,0.006l-0.006,0.005l-0.005,0.006l-0.005,0.004l-0.002,0.009l0,0.032l-0.003,0.008l-0.006,0.005l-0.005,0.006l-0.006,0.005l-0.005,0.006l-0.009,0.002l-0.021,0l-0.008,-0.002l-0.005,-0.006l-0.009,-0.003l-0.007,-0.002l-0.005,-0.006l-0.006,-0.005l-0.002,-0.008l0,-0.01l-0.003,-0.009l-0.006,-0.005l-0.002,-0.008l0,-0.011l0.002,-0.008l0.006,-0.005l0.003,-0.008l0.002,-0.009l0.006,-0.005l0.005,-0.006l0.006,-0.004l0.004,-0.006l0.008,-0.003l0.009,-0.002l0.005,-0.006l0.008,-0.003l0.008,-0.002l0.005,-0.006l0.008,-0.003l0.043,0l0.009,-0.002l0.005,-0.005l0.006,0l0.005,0.005l0.007,0.002l0.043,0l0.009,0.003l0.005,0.006l0.008,0.002l0.032,0l0.009,0.003l0.005,0.006l0.008,0.002l0.008,0.003l0.005,0.006l0.006,0.004l0.005,0.006l0.006,0.005l0.005,0.006l0.006,0.005l0.004,0.006l0.006,0.005l0.003,0.008l0.002,0.008l0.006,0.005l0.003,0.009l0,0.054l0.002,0.007l0.006,0.005l0.003,0.009l0,0.172l0.002,0.008l0.006,0.005l0.004,0.006l0.006,0.004l0.005,0.006l0.008,0.002l0.009,0.003l0.005,0.006l0.007,0.002l0.009,0.003l0.005,0.006l0.008,0.002l0.009,0.003l0.003,0.008l0,0.033l-0.003,0.008l-0.006,0.004Z" style="fill:#33363e;fill-rule:nonzero;"/>
    </g>
    <g transform="matrix(208.333,0,0,208.333,343.178,437.844)">
        <path d="M0.431,-0.094l-0.002,0.009l0,0.022l-0.003,0.007l-0.006,0.005l-0.002,0.009l-0.003,0.008l-0.006,0.005l-0.002,0.008l-0.003,0.008l-0.006,0.005l-0.002,0.009l-0.002,0.008l-0.006,0.005l-0.005,0.006l-0.006,0.004l-0.005,0.006l-0.009,0.002l-0.008,0.003l-0.004,0.006l-0.009,0.002l-0.008,0.003l-0.005,0.006l-0.009,0.002l-0.053,0l-0.008,0.003l-0.005,0.005l-0.009,0.002l-0.011,0l-0.007,-0.002l-0.005,-0.005l-0.009,-0.003l-0.022,0l-0.007,-0.002l-0.005,-0.006l-0.009,-0.003l-0.043,0l-0.008,0.003l-0.005,0.006l-0.009,0.002l-0.007,0.003l-0.005,0.005l-0.009,0.002l-0.008,-0.002l-0.005,-0.005l-0.006,-0.005l-0.004,-0.006l-0.006,-0.005l-0.002,-0.008l0,-0.032l-0.003,-0.009l-0.006,-0.005l-0.002,-0.008l-0.003,-0.008l-0.006,-0.005l-0.002,-0.008l0,-0.021l0.002,-0.009l0.006,-0.005l0.003,-0.008l0.002,-0.009l0.006,-0.005l0.005,-0.005l0.008,-0.003l0.021,0l0.009,0.003l0.003,0.008l0.002,0.008l0.007,0.002l0.009,0.003l0.005,0.006l0.006,0.005l0.005,0.006l0.006,0.004l0.005,0.006l0.007,0.002l0.009,0.003l0.005,0.006l0.008,0.002l0.011,0l0.008,0.003l0.005,0.006l0.008,0.002l0.011,0l0.009,-0.002l0.005,-0.006l0.007,-0.003l0.033,0l0.008,-0.002l0.005,-0.006l0.008,-0.003l0.009,-0.002l0.005,-0.006l0.006,-0.004l0.005,-0.006l0.005,-0.005l0.005,-0.006l0.008,-0.003l0.009,-0.002l0.003,-0.008l0,-0.021l-0.003,-0.009l-0.006,-0.005l-0.005,-0.006l-0.006,-0.005l-0.005,-0.005l-0.008,-0.003l-0.008,-0.002l-0.005,-0.006l-0.009,-0.003l-0.011,0l-0.007,-0.002l-0.005,-0.006l-0.009,-0.003l-0.022,0l-0.007,-0.002l-0.005,-0.006l-0.009,-0.003l-0.032,0l-0.008,-0.002l-0.005,-0.005l-0.009,-0.003l-0.008,-0.002l-0.005,-0.006l-0.005,-0.005l-0.005,-0.006l-0.006,-0.005l-0.005,-0.006l-0.009,-0.003l-0.008,-0.002l-0.002,-0.007l-0.002,-0.009l-0.009,-0.003l-0.008,-0.002l-0.002,-0.008l-0.003,-0.009l-0.006,-0.005l-0.005,-0.005l-0.006,-0.005l-0.002,-0.008l0,-0.011l-0.002,-0.009l-0.006,-0.004l-0.002,-0.008l0.002,-0.009l0.006,-0.005l0.002,-0.008l0,-0.011l0.002,-0.008l0.006,-0.005l0.003,-0.008l0.002,-0.009l0.006,-0.005l0.005,-0.006l0.006,-0.004l0.005,-0.006l0.007,-0.003l0.009,-0.002l0.005,-0.006l0.008,-0.003l0.009,-0.002l0.005,-0.006l0.007,-0.003l0.011,0l0.009,-0.002l0.005,-0.005l0.008,-0.003l0.008,-0.002l0.005,-0.006l0.008,-0.003l0.011,0l0.009,0.003l0.005,0.006l0.007,0.002l0.022,0l0.009,0.003l0.005,0.005l0.007,0.002l0.086,0l0.009,0.003l0.005,0.006l0.006,0.005l0.003,0.009l0.002,0.008l0.006,0.004l0.002,0.009l0,0.054l-0.002,0.008l-0.006,0.005l-0.005,0.006l-0.009,0.001l-0.011,0l-0.008,-0.001l-0.004,-0.006l-0.006,-0.005l-0.005,-0.006l-0.006,-0.005l-0.005,-0.006l-0.006,-0.005l-0.005,-0.006l-0.005,-0.004l-0.005,-0.006l-0.009,-0.003l-0.008,-0.002l-0.005,-0.006l-0.009,-0.003l-0.032,0l-0.008,-0.002l-0.005,-0.006l-0.008,-0.003l-0.043,0l-0.008,-0.002l-0.005,-0.006l-0.006,0l-0.002,0.009l-0.003,0.008l-0.006,0.005l-0.005,0.006l-0.005,0.005l-0.002,0.008l-0.003,0.008l-0.006,0.005l-0.002,0.009l-0.003,0.008l-0.006,0.005l0,0.006l0.006,0.004l0.003,0.009l0.002,0.008l0.006,0.005l0.005,0.006l0.005,0.005l0.005,0.005l0.006,0.005l0.005,0.006l0.008,0.002l0.043,0l0.009,0.003l0.005,0.006l0.007,0.002l0.011,0l0.009,0.003l0.005,0.006l0.008,0.002l0.043,0l0.008,0.003l0.005,0.005l0.008,0.002l0.011,0l0.009,0.003l0.004,0.006l0.008,0.002l0.009,0.003l0.005,0.006l0.006,0.005l0.005,0.006l0.006,0.005l0.004,0.005l0.006,0.005l0.003,0.009l0.002,0.008l0.006,0.005l0.003,0.009l0.002,0.007l0.006,0.005l0.003,0.009l0.002,0.008l0.006,0.005l0.002,0.009l-0.002,0.007l-0.006,0.005Z" style="fill:#33363e;fill-rule:nonzero;"/>
    </g>
    <g transform="matrix(208.333,0,0,208.333,438.22,439.914)">
        <path d="M0.484,-0.126l-0.002,0.009l0,0.021l-0.003,0.008l-0.005,0.005l-0.002,0.009l0,0.021l-0.003,0.008l-0.006,0.005l-0.002,0.009l-0.003,0.008l-0.006,0.004l-0.005,0.006l-0.006,0.005l-0.004,0.006l-0.006,0.005l-0.005,0.006l-0.006,0.005l-0.005,0.006l-0.006,0.004l-0.005,0.006l-0.008,0.002l-0.008,0.003l-0.005,0.006l-0.009,0.002l-0.011,0l-0.008,0.003l-0.004,0.006l-0.009,0.002l-0.054,0l-0.008,-0.002l-0.005,-0.006l-0.008,-0.003l-0.011,0l-0.008,-0.002l-0.005,-0.006l-0.009,-0.003l-0.007,-0.002l-0.005,-0.006l-0.006,-0.004l-0.005,-0.006l-0.006,-0.005l-0.005,-0.006l-0.006,-0.005l-0.005,-0.006l-0.005,-0.005l-0.005,-0.006l-0.006,-0.004l-0.005,-0.006l-0.006,-0.005l-0.002,-0.008l-0.003,-0.009l-0.006,-0.005l-0.002,-0.007l0,-0.011l-0.003,-0.009l-0.005,-0.005l-0.002,-0.008l0,-0.021l0.002,-0.009l0.005,-0.005l0.003,-0.008l0,-0.043l0.002,-0.008l0.006,-0.005l0.003,-0.008l-0.003,-0.009l-0.006,-0.005l-0.002,-0.008l0.002,-0.008l0.006,-0.005l0.003,-0.008l0,-0.086l-0.003,-0.009l-0.006,-0.005l-0.002,-0.008l-0.003,-0.008l-0.005,-0.005l-0.005,-0.006l-0.009,-0.003l-0.008,-0.002l-0.005,-0.006l-0.009,-0.003l-0.032,0l-0.008,-0.002l-0.004,-0.006l-0.006,-0.004l-0.005,-0.006l-0.006,-0.005l-0.005,-0.006l-0.006,-0.005l-0.002,-0.008l0.002,-0.008l0.006,-0.005l0.005,-0.006l0.006,-0.005l0.005,-0.006l0.006,-0.005l0.004,-0.006l0.008,-0.003l0.054,0l0.009,0.003l0.005,0.006l0.005,0l0.005,-0.006l0.006,-0.005l0.003,-0.007l0.002,-0.009l0.006,-0.005l0.003,-0.008l0.002,-0.009l0.008,-0.003l0.008,-0.002l0.003,-0.007l0.002,-0.009l0.006,0l0.003,0.009l0.002,0.007l0.006,0.005l0.005,0.006l0.006,0.005l0.003,0.009l0,0.011l0.002,0.007l0.005,0.005l0.005,0.006l0.008,0.002l0.009,0.003l0.005,0.006l0.006,0l0.005,-0.006l0.007,-0.003l0.022,0l0.009,0.003l0.005,0.006l0.007,0.002l0.065,0l0.009,0.003l0.004,0.006l0.006,0.005l0.005,0.005l0.006,0.005l0.003,0.009l-0.003,0.008l-0.006,0.005l-0.005,0.006l-0.006,0.004l-0.004,0.006l-0.009,0.002l-0.118,0l-0.008,0.003l-0.005,0.006l-0.006,0.005l-0.005,0.006l-0.006,0.005l-0.005,0.006l-0.005,0.004l-0.002,0.009l0,0.022l0.002,0.008l0.005,0.004l0,0.006l-0.005,0.005l-0.002,0.009l0,0.118l0.002,0.008l0.005,0.005l0.003,0.009l0,0.01l0.002,0.008l0.006,0.005l0.003,0.009l0,0.011l0.002,0.007l0.006,0.005l0.003,0.009l0.002,0.008l0.008,0.002l0.008,0.003l0.005,0.006l0.008,0.002l0.043,0l0.009,-0.002l0.005,-0.006l0.006,-0.005l0.004,-0.006l0.006,-0.005l0.003,-0.008l0.002,-0.008l0.006,-0.005l0.003,-0.008l0,-0.011l0.002,-0.009l0.006,-0.005l0.003,-0.007l0.002,-0.009l0.006,-0.005l0.004,-0.006l0.008,-0.003l0.009,-0.002l0.005,-0.006l0.008,-0.003l0.01,0l0.009,0.003l0.005,0.006l0.008,0.002l0.009,0.003l0.005,0.006l0.005,0.005l0.003,0.009l0.002,0.007l0.006,0.005l0,0.006l-0.006,0.005Z" style="fill:#33363e;fill-rule:nonzero;"/>
    </g>
    <g transform="matrix(1,0,0,1,454.311,-220.583)">
        <g transform="matrix(208.333,0,0,208.333,655.506,661.926)">
            <path d="M0.257,-0.04l-0.002,0.009l-0.003,0.008l-0.006,0.004l-0.005,0.006l-0.006,0.005l-0.005,0.006l-0.005,0.005l-0.005,0.006l-0.006,0.005l-0.005,0.006l-0.006,0.004l-0.005,0.006l-0.009,0.002l-0.007,0.003l-0.005,0.006l-0.009,0.002l-0.032,0l-0.008,-0.002l-0.005,-0.006l-0.009,-0.003l-0.008,-0.002l-0.004,-0.006l-0.006,-0.004l-0.005,-0.006l-0.006,-0.005l-0.005,-0.006l-0.006,-0.005l-0.002,-0.008l-0.003,-0.009l-0.006,-0.004l-0.004,-0.006l-0.009,-0.003l-0.008,-0.002l-0.002,-0.008l0,-0.032l-0.003,-0.009l-0.006,-0.005l0,-0.006l0.006,-0.005l0.003,-0.007l0.002,-0.009l0.006,-0.005l0.003,-0.008l0,-0.011l0.002,-0.008l0.006,-0.005l0.003,-0.008l0.001,-0.009l0.006,-0.005l0.005,-0.006l0.008,-0.003l0.009,-0.002l0.005,-0.005l0.008,-0.003l0.008,-0.002l0.005,-0.006l0.008,-0.003l0.009,0.003l0.005,0.006l0.007,0.002l0.011,0l0.009,0.003l0.005,0.005l0.008,0.002l0.009,0.003l0.004,0.006l0.008,0.002l0.009,0.003l0.005,0.006l0.006,0.005l0.005,0.006l0.005,0.005l0.005,0.005l0.006,0.005l0.005,0.006l0.006,0.005l0.003,0.009l0,0.032l0.002,0.008l0.006,0.005l0.003,0.009l0,0.01l-0.003,0.008l-0.006,0.005Z" style="fill:#33363e;fill-rule:nonzero;"/>
        </g>
    </g>
    <g transform="matrix(1,0,0,1,-233.041,-169.86)">
        <g transform="matrix(208.333,0,0,208.333,341.375,612.535)">
            <path d="M0.57,-0.019l-0.005,0.006l-0.005,0.005l-0.002,0.009l-0.003,0.008l-0.009,0.002l-0.008,0.003l-0.005,0.006l-0.009,0.001l-0.007,0.003l-0.005,0.006l-0.009,0.002l-0.129,0l-0.008,0.003l-0.005,0.006l-0.008,0.002l-0.011,0l-0.008,-0.002l-0.005,-0.006l-0.009,-0.003l-0.032,0l-0.008,0.003l-0.005,0.006l-0.008,0.002l-0.194,0l-0.008,-0.002l-0.004,-0.006l-0.009,-0.003l-0.008,-0.002l-0.002,-0.008l-0.003,-0.008l-0.006,-0.005l-0.002,-0.008l0.002,-0.009l0.006,-0.005l0.003,-0.008l0.002,-0.008l0.008,-0.003l0.009,-0.002l0.004,-0.006l0.008,-0.003l0.009,0.003l0.005,0.006l0.008,0.002l0.01,0l0.009,-0.002l0.005,-0.006l0.006,-0.005l0.005,-0.006l0.006,-0.005l0.005,-0.006l0.005,-0.004l0.003,-0.008l0,-0.032l0.002,-0.009l0.006,-0.005l0.003,-0.008l0,-0.064l0.002,-0.009l0.006,-0.005l0.003,-0.008l0,-0.129l-0.003,-0.009l-0.006,-0.004l-0.002,-0.008l0,-0.011l0.002,-0.009l0.006,-0.005l0.003,-0.007l0,-0.151l-0.003,-0.009l-0.006,-0.005l-0.005,-0.005l-0.006,-0.005l-0.005,-0.006l-0.008,-0.003l-0.033,0l-0.007,-0.002l-0.005,-0.006l-0.006,-0.005l-0.002,-0.008l0.002,-0.008l0.006,-0.005l0.005,-0.006l0.007,-0.003l0.226,0l0.009,0.003l0.003,0.009l-0.003,0.007l-0.006,0.005l-0.005,0.006l-0.009,0.002l-0.007,0.003l-0.005,0.006l-0.009,0.002l-0.008,0.003l-0.005,0.006l-0.009,0.002l-0.007,0.003l-0.005,0.005l-0.006,0.005l-0.002,0.009l0,0.054l-0.003,0.008l-0.006,0.005l-0.002,0.008l0,0.022l-0.003,0.008l-0.006,0.005l0,0.005l0.006,0.005l0.003,0.009l0.002,0.008l0.006,0.005l0.005,0.006l0.006,0.004l0,0.006l-0.006,0.005l-0.002,0.009l-0.003,0.008l-0.006,0.005l-0.002,0.008l-0.003,0.008l-0.006,0.005l-0.002,0.009l0,0.043l-0.003,0.008l-0.005,0.005l-0.002,0.008l0,0.043l0.002,0.008l0.005,0.005l0.003,0.009l0,0.064l0.002,0.008l0.006,0.005l0.003,0.009l0,0.043l0.002,0.008l0.006,0.004l0.005,0.006l0.006,0.005l0.005,0.006l0.007,0.002l0.011,0l0.009,0.003l0.005,0.006l0.008,0.002l0.043,0l0.008,-0.002l0.005,-0.006l0.008,-0.003l0.054,0l0.009,-0.002l0.004,-0.006l0.006,-0.005l0.005,-0.006l0.006,-0.004l0.003,-0.008l0,-0.032l0.002,-0.009l0.006,-0.005l0.003,-0.008l0,-0.054l0.002,-0.008l0.005,-0.005l0.003,-0.008l0.002,-0.009l0.006,-0.005l0.005,-0.006l0.008,-0.003l0.021,0l0.009,0.003l0.005,0.006l0.006,0.005l0.005,0.006l0.006,0.005l0.003,0.009l0.002,0.007l0.005,0.005l0.003,0.009l0,0.054l0.002,0.008l0.006,0.005l0,0.005l-0.006,0.005l-0.002,0.009l0,0.011l0.002,0.008l0.006,0.004l0.003,0.009l0,0.022l-0.003,0.008l-0.006,0.004Z" style="fill:#33363e;fill-rule:nonzero;"/>
        </g>
    </g>
</svg>
