<?xml version="1.0" encoding="UTF-8" standalone="no"?><!DOCTYPE svg PUBLIC "-//W3C//DTD SVG 1.1//EN" "http://www.w3.org/Graphics/SVG/1.1/DTD/svg11.dtd"><svg width="100%" height="100%" viewBox="0 0 8000 4500" version="1.1" xmlns="http://www.w3.org/2000/svg" xmlns:xlink="http://www.w3.org/1999/xlink" xml:space="preserve" xmlns:serif="http://www.serif.com/" style="fill-rule:evenodd;clip-rule:evenodd;stroke-linejoin:round;stroke-miterlimit:2;"><path d="M290.703,350.195l-1.919,2.303l-2.303,1.919l-1.919,2.303l-3.454,0.768l-4.222,0l-3.071,1.151l-1.919,2.303l-3.454,0.768l-8.444,0l-3.071,1.151l-1.919,2.303l-3.455,0.768l-25.332,0l-3.07,-0.768l-1.919,-2.303l-2.303,0l-1.919,2.303l-3.455,0.768l-3.07,-0.768l-1.919,-2.303l-3.455,-1.151l-8.444,0l-3.07,1.151l-1.919,2.303l-2.303,0l-1.919,-2.303l-3.455,-1.151l-21.11,0l-3.07,1.151l-1.92,2.303l-3.454,0.768l-33.776,0l-3.071,-0.768l-1.919,-2.303l-2.303,-1.919l-1.919,-2.303l-2.303,-1.919l-1.919,-2.303l-2.303,-1.919l-0.767,-3.07l0,-4.222l0.767,-3.455l2.303,-1.919l1.919,-2.303l3.071,-1.151l3.454,-0.768l1.919,-2.303l2.303,0l1.919,2.303l2.303,0l1.919,-2.303l3.071,-1.151l37.998,0l3.455,-0.768l1.919,-2.303l3.07,-1.151l3.455,-0.768l1.151,-3.071l0.768,-3.454l2.303,-1.919l1.151,-3.071l0,-122.438l0.768,-3.455l2.303,-1.919l1.151,-3.07l0,-12.666l0.768,-3.455l2.303,-1.919l0,-2.303l-2.303,-1.919l-0.768,-3.07l0,-25.332l-1.151,-3.455l-2.303,-1.919l-1.919,-2.303l-2.303,-1.919l-1.919,-2.303l-3.455,-1.151l-12.666,0l-3.07,-0.768l-1.92,-2.303l-3.454,-1.151l-12.666,0l-3.071,-0.768l-0.767,-3.07l0.767,-3.455l2.303,0l1.919,2.303l3.071,0.768l3.454,-0.768l1.92,-2.303l2.302,-1.919l1.92,-2.303l3.07,-1.151l33.776,0l3.455,1.151l1.919,2.303l3.07,0.768l3.455,1.151l1.919,2.303l2.303,1.919l1.919,2.303l2.303,1.919l1.151,3.455l0.768,3.07l2.303,1.919l0,2.303l-2.303,1.919l-0.768,3.455l0,8.444l-1.151,3.07l-2.303,1.919l0,2.303l2.303,1.919l0,2.303l-2.303,1.919l-0.768,3.455l-1.151,3.07l-3.455,0.768l-3.07,1.151l0,2.303l2.303,1.919l0,2.303l-2.303,1.919l0,2.303l3.07,0.768l3.455,1.151l1.919,2.303l2.303,1.919l1.151,3.455l0,54.886l0.768,3.071l2.303,1.919l1.151,3.454l0,67.552l0.768,3.071l2.303,1.919l1.151,3.454l0.768,3.071l3.07,0.768l3.455,1.151l1.919,2.303l3.07,0.768l42.221,0l3.454,1.151l1.919,2.303l3.071,0.768l3.454,1.151l1.151,3.455l0.768,3.07l2.303,1.919l0,2.303l-2.303,1.919Z" style="fill-rule:nonzero;"/><path d="M441.483,294.922l0,-4.222l-1.152,-3.455l-2.303,-1.919l-1.919,-2.303l-2.303,-1.919l-1.919,-2.303l-3.454,-1.151l-12.666,0l-3.071,1.151l-1.919,2.303l-3.454,0.768l-21.11,0l-3.071,1.151l-1.919,2.303l-3.454,0.768l-4.222,0l-3.071,1.151l-1.919,2.303l-3.455,0.768l-3.07,1.151l-1.919,2.303l-2.303,1.919l-1.919,2.303l-2.303,1.919l-0.768,3.455l-1.151,3.07l-2.303,1.919l-0.768,3.455l0,4.222l0.768,3.07l2.303,1.919l1.919,2.303l2.303,1.919l1.919,2.303l2.303,1.919l1.919,2.303l3.07,0.768l25.333,0l3.454,-0.768l1.919,-2.303l3.071,-1.151l3.454,-0.768l1.919,-2.303l2.303,-1.919l1.919,-2.303l3.071,-1.151l3.454,-0.768l1.919,-2.303l3.071,-1.151l3.454,-0.768l1.919,-2.303l3.071,-1.151l3.454,-0.768l1.152,-3.07l0.767,-3.455l2.303,-1.919l1.919,-2.303l2.303,-1.919l1.152,-3.07Zm59.876,59.876l-1.92,2.303l-2.302,1.919l-1.92,2.303l-3.454,0.767l-3.071,1.152l-1.919,2.303l-3.454,0.767l-12.666,0l-3.071,-0.767l-1.919,-2.303l-3.454,-1.152l-3.071,-0.767l-1.919,-2.303l-2.303,-1.919l-1.919,-2.303l-3.454,-1.152l-3.071,-0.768l-1.919,-2.302l-2.303,0l-1.919,2.302l-3.454,0.768l-4.222,0l-3.071,1.152l-1.919,2.303l-3.454,0.767l-3.071,1.152l-1.919,2.303l-3.454,0.767l-4.222,0l-3.071,1.152l-1.919,2.303l-3.454,0.767l-8.444,0l-3.071,1.152l-1.919,2.303l-2.303,0l-1.919,-2.303l-3.454,-1.152l-21.111,0l-3.07,-0.767l-1.919,-2.303l-3.455,-1.152l-3.07,-0.767l-1.919,-2.303l-3.455,-1.152l-3.07,-0.767l-1.919,-2.303l-2.303,-1.92l-1.919,-2.302l-2.303,-1.92l-1.919,-2.302l-2.303,-1.92l-1.919,-2.302l-2.303,-1.92l-0.768,-3.07l-1.151,-3.454l-2.303,-1.92l-0.768,-3.07l0,-4.222l-1.151,-3.455l-2.303,-1.919l-0.768,-3.07l0,-12.666l0.768,-3.455l2.303,-1.919l1.151,-3.07l0,-4.222l0.768,-3.455l2.303,-1.919l1.151,-3.07l0.768,-3.455l2.303,-1.919l1.919,-2.303l2.303,-1.919l1.919,-2.303l2.303,-1.919l1.919,-2.303l3.07,-1.151l4.222,0l3.455,-0.768l1.919,-2.303l3.07,-1.151l4.222,0l3.455,-0.768l1.919,-2.303l3.07,-1.151l16.889,0l3.454,-0.768l1.919,-2.303l3.071,-1.151l12.666,0l3.454,-0.768l1.919,-2.303l3.071,-1.151l21.11,0l3.454,-0.768l1.919,-2.303l2.303,-1.919l1.919,-2.303l3.071,-1.151l3.454,-0.768l1.152,-3.071l0,-8.444l-1.152,-3.454l-2.303,-1.919l0,-2.303l2.303,-1.919l0,-2.303l-2.303,-1.919l-0.767,-3.071l-1.152,-3.454l-2.303,-1.919l-1.919,-2.303l-2.303,-1.919l-1.919,-2.303l-3.454,-1.152l-4.222,0l-3.071,-0.767l-1.919,-2.303l-2.303,0l-1.919,2.303l-3.454,0.767l-29.554,0l-3.071,1.152l-1.919,2.303l-2.303,1.919l-1.919,2.303l-2.303,1.919l-0.768,3.454l0,12.666l-1.151,3.071l-2.303,1.919l-1.919,2.303l-2.303,1.919l-1.919,2.303l-3.455,0.768l-8.444,0l-3.07,-0.768l-1.919,-2.303l-3.455,-1.151l-3.07,-0.768l-1.919,-2.303l-2.303,-1.919l-0.768,-3.071l0,-4.222l-1.151,-3.454l-2.303,-1.919l-0.768,-3.071l0,-4.222l0.768,-3.454l2.303,-1.919l1.151,-3.071l0.768,-3.454l2.303,-1.919l1.919,-2.303l2.303,-1.919l1.919,-2.303l3.07,-1.152l3.455,-0.767l1.919,-2.303l3.07,-1.152l3.455,-0.767l1.919,-2.303l3.07,-1.152l16.889,0l3.454,-0.767l1.919,-2.303l2.303,0l1.919,2.303l3.071,0.767l16.888,0l3.454,1.152l1.919,2.303l3.071,0.767l12.666,0l3.454,1.152l1.919,2.303l3.071,0.767l3.454,1.152l1.919,2.303l2.303,1.919l1.919,2.303l2.303,1.919l1.919,2.303l2.303,1.919l1.919,2.303l2.303,1.919l1.152,3.454l0.767,3.071l2.303,1.919l1.152,3.454l0,21.11l0.767,3.071l2.303,1.919l1.152,3.454l0,67.553l0.767,3.07l2.303,1.919l1.919,2.303l2.303,1.919l1.919,2.303l3.071,0.768l3.454,1.151l1.919,2.303l3.071,0.768l3.454,1.151l1.92,2.303l3.07,0.768l3.454,1.152l1.152,3.454l0,12.666l-1.152,3.07l-2.302,1.92Z" style="fill-rule:nonzero;"/><path d="M683.611,307.416l-0.767,3.455l0,8.444l-1.152,3.07l-2.303,1.919l-0.767,3.455l-1.152,3.07l-2.303,1.919l-0.767,3.455l-1.152,3.07l-2.303,1.92l-0.767,3.454l-1.152,3.07l-2.303,1.92l-1.919,2.302l-2.303,1.92l-1.919,2.303l-3.454,0.767l-3.071,1.152l-1.919,2.303l-3.454,0.767l-3.071,1.152l-1.919,2.303l-3.454,0.767l-21.11,0l-3.071,1.152l-1.919,2.303l-3.455,0.767l-4.222,0l-3.07,-0.767l-1.919,-2.303l-3.455,-1.152l-8.444,0l-3.07,-0.767l-1.919,-2.303l-3.455,-1.152l-16.888,0l-3.07,1.152l-1.919,2.303l-3.455,0.767l-3.07,1.152l-1.919,2.303l-3.455,0.767l-3.07,-0.767l-1.919,-2.303l-2.303,-1.919l-1.919,-2.303l-2.303,-1.919l-0.768,-3.071l0,-12.666l-1.151,-3.454l-2.303,-1.92l-0.768,-3.07l-1.151,-3.455l-2.303,-1.919l-0.768,-3.07l0,-8.444l0.768,-3.455l2.303,-1.919l1.151,-3.07l0.768,-3.455l2.303,-1.919l1.919,-2.303l3.07,-1.151l8.444,0l3.455,1.151l1.151,3.455l0.768,3.07l3.07,0.768l3.455,1.151l1.919,2.303l2.303,1.919l1.919,2.303l2.303,1.919l1.919,2.303l3.07,0.768l3.455,1.151l1.919,2.303l3.07,0.768l4.222,0l3.455,1.151l1.919,2.303l3.07,0.768l4.222,0l3.455,-0.768l1.919,-2.303l3.07,-1.151l12.667,0l3.454,-0.768l1.919,-2.303l3.071,-1.151l3.454,-0.768l1.919,-2.303l2.303,-1.919l1.919,-2.303l2.303,-1.919l1.919,-2.303l3.071,-1.151l3.454,-0.768l1.151,-3.07l0,-8.444l-1.151,-3.455l-2.303,-1.919l-1.919,-2.303l-2.303,-1.919l-1.919,-2.303l-3.454,-1.151l-3.071,-0.768l-1.919,-2.303l-3.454,-1.151l-4.222,0l-3.071,-0.768l-1.919,-2.303l-3.454,-1.151l-8.445,0l-3.07,-0.768l-1.919,-2.303l-3.455,-1.151l-12.666,0l-3.07,-0.768l-1.919,-2.303l-3.455,-1.151l-3.07,-0.768l-1.919,-2.303l-2.303,-1.919l-1.919,-2.303l-2.303,-1.919l-1.919,-2.303l-3.455,-1.151l-3.07,-0.768l-0.768,-3.07l-1.151,-3.455l-3.455,-1.151l-3.07,-0.768l-0.768,-3.071l-1.151,-3.454l-2.303,-1.919l-1.919,-2.303l-2.303,-1.919l-0.768,-3.071l0,-4.222l-1.151,-3.454l-2.303,-1.919l-0.768,-3.071l0.768,-3.454l2.303,-1.919l1.151,-3.071l0,-4.222l0.768,-3.454l2.303,-1.919l1.151,-3.071l0.768,-3.454l2.303,-1.919l1.919,-2.303l2.303,-1.919l1.919,-2.303l3.07,-1.152l3.455,-0.767l1.919,-2.303l3.07,-1.152l3.455,-0.767l1.919,-2.303l3.07,-1.152l4.222,0l3.455,-0.767l1.919,-2.303l3.07,-1.152l3.455,-0.767l1.919,-2.303l3.07,-1.152l4.222,0l3.455,1.152l1.919,2.303l3.07,0.767l8.445,0l3.454,1.152l1.919,2.303l3.071,0.767l33.776,0l3.454,1.152l1.919,2.303l2.303,1.919l1.152,3.454l0.767,3.071l2.303,1.919l1.152,3.454l0,21.11l-1.152,3.071l-2.303,1.919l-1.919,2.303l-3.454,0.768l-4.222,0l-3.071,-0.768l-1.919,-2.303l-2.303,-1.919l-1.919,-2.303l-2.303,-1.919l-1.919,-2.303l-2.303,-1.919l-1.919,-2.303l-2.303,-1.919l-1.919,-2.303l-3.454,-1.152l-3.071,-0.767l-1.919,-2.303l-3.454,-1.152l-12.667,0l-3.07,-0.767l-1.919,-2.303l-3.455,-1.152l-16.888,0l-3.07,-0.767l-1.919,-2.303l-2.303,0l-0.768,3.454l-1.151,3.071l-2.303,1.919l-1.919,2.303l-2.303,1.919l-0.768,3.454l-1.151,3.071l-2.303,1.919l-0.768,3.454l-1.151,3.071l-2.303,1.919l0,2.303l2.303,1.919l1.151,3.454l0.768,3.071l2.303,1.919l1.919,2.303l2.303,1.919l1.919,2.303l2.303,1.919l1.919,2.303l3.07,0.768l16.888,0l3.455,1.151l1.919,2.303l3.07,0.768l4.222,0l3.455,1.151l1.919,2.303l3.071,0.768l16.888,0l3.454,1.151l1.919,2.303l3.071,0.768l4.222,0l3.454,1.151l1.919,2.303l3.071,0.768l3.454,1.151l1.919,2.303l2.303,1.919l1.919,2.303l2.303,1.919l1.919,2.303l2.303,1.919l1.152,3.455l0.767,3.07l2.303,1.919l1.152,3.455l0.767,3.07l2.303,1.919l1.152,3.455l0.767,3.07l2.303,1.919l1.152,3.455l-1.152,3.07l-2.303,1.919Z" style="fill-rule:nonzero;"/><path d="M886.974,298.972l-0.768,3.455l0,8.444l-1.151,3.07l-2.303,1.919l-0.768,3.455l0,8.444l-1.151,3.07l-2.303,1.919l-0.768,3.455l-1.151,3.07l-2.303,1.92l-1.919,2.302l-2.303,1.92l-1.919,2.302l-2.303,1.92l-1.919,2.302l-2.303,1.92l-1.919,2.303l-2.303,1.919l-1.919,2.303l-3.455,0.767l-3.07,1.152l-1.919,2.303l-3.455,0.767l-4.222,0l-3.07,1.152l-1.919,2.303l-3.455,0.767l-21.11,0l-3.07,-0.767l-1.919,-2.303l-3.455,-1.152l-4.222,0l-3.07,-0.767l-1.919,-2.303l-3.455,-1.152l-3.07,-0.767l-1.919,-2.303l-2.303,-1.919l-1.919,-2.303l-2.303,-1.92l-1.919,-2.302l-2.303,-1.92l-1.92,-2.302l-2.302,-1.92l-1.92,-2.302l-2.302,-1.92l-1.92,-2.302l-2.302,-1.92l-0.768,-3.07l-1.152,-3.455l-2.302,-1.919l-0.768,-3.07l0,-4.222l-1.152,-3.455l-2.302,-1.919l-0.768,-3.07l0,-8.444l0.768,-3.455l2.302,-1.919l1.152,-3.07l0,-16.888l0.768,-3.455l2.302,-1.919l1.152,-3.07l-1.152,-3.455l-2.302,-1.919l-0.768,-3.07l0.768,-3.455l2.302,-1.919l1.152,-3.07l0,-33.777l-1.152,-3.454l-2.302,-1.919l-0.768,-3.071l-1.152,-3.454l-2.302,-1.919l-1.92,-2.303l-3.454,-1.152l-3.071,-0.767l-1.919,-2.303l-3.454,-1.152l-12.666,0l-3.071,-0.767l-1.919,-2.303l-2.303,-1.919l-1.919,-2.303l-2.303,-1.919l-1.919,-2.303l-2.303,-1.919l-0.767,-3.071l0.767,-3.454l2.303,-1.919l1.919,-2.303l2.303,-1.919l1.919,-2.303l2.303,-1.919l1.919,-2.303l3.071,-1.152l21.11,0l3.454,1.152l1.92,2.303l2.302,0l1.92,-2.303l2.302,-1.919l1.152,-3.071l0.768,-3.454l2.302,-1.919l1.152,-3.071l0.768,-3.454l3.07,-1.152l3.454,-0.767l1.152,-3.071l0.768,-3.454l2.303,0l1.151,3.454l0.768,3.071l2.303,1.919l1.919,2.303l2.303,1.919l1.151,3.454l0,4.222l0.768,3.071l2.303,1.919l1.919,2.303l3.07,0.767l3.455,1.152l1.919,2.303l2.303,0l1.919,-2.303l3.07,-1.152l8.444,0l3.455,1.152l1.919,2.303l3.07,0.767l25.332,0l3.455,1.152l1.919,2.303l2.303,1.919l1.919,2.303l2.303,1.919l1.151,3.454l-1.151,3.071l-2.303,1.919l-1.919,2.303l-2.303,1.919l-1.919,2.303l-3.455,0.767l-46.442,0l-3.07,1.152l-1.919,2.303l-2.303,1.919l-1.919,2.303l-2.303,1.919l-1.919,2.303l-2.303,1.919l-0.768,3.454l0,8.444l0.768,3.071l2.303,1.919l0,2.303l-2.303,1.919l-0.768,3.454l0,46.443l0.768,3.07l2.303,1.919l1.151,3.455l0,4.222l0.768,3.07l2.303,1.919l1.151,3.455l0,4.222l0.768,3.07l2.303,1.919l1.151,3.455l0.768,3.07l3.07,0.768l3.455,1.151l1.919,2.303l3.07,0.768l16.888,0l3.455,-0.768l1.919,-2.303l2.303,-1.919l1.919,-2.303l2.303,-1.919l1.151,-3.07l0.768,-3.455l2.303,-1.919l1.151,-3.07l0,-4.222l0.768,-3.455l2.303,-1.919l1.151,-3.07l0.768,-3.455l2.303,-1.919l1.919,-2.303l3.071,-1.151l3.454,-0.768l1.919,-2.303l3.071,-1.151l4.222,0l3.454,1.151l1.919,2.303l3.071,0.768l3.454,1.151l1.919,2.303l2.303,1.919l1.151,3.455l0.768,3.07l2.303,1.919l0,2.303l-2.303,1.919Z" style="fill-rule:nonzero;"/><path d="M1152.19,219.612l-2.303,-1.919l-0.768,-3.07l-1.151,-3.455l-2.303,-1.919l-1.919,-2.303l-2.303,-1.919l-1.919,-2.303l-2.303,-1.919l-1.919,-2.303l-3.455,-1.151l-3.07,-0.768l-1.919,-2.303l-3.455,-1.151l-3.07,-0.768l-1.919,-2.303l-3.455,-1.151l-16.888,0l-3.07,1.151l-1.92,2.303l-2.302,1.919l-1.92,2.303l-2.302,1.919l-1.92,2.303l-2.302,1.919l-1.92,2.303l-2.302,1.919l-0.768,3.455l-1.152,3.07l-2.303,1.919l-0.767,3.455l0,4.222l0.767,3.07l2.303,1.92l1.152,3.454l0,8.444l0.768,3.07l2.302,1.92l1.92,2.303l2.302,1.919l1.92,2.303l2.302,1.919l1.92,2.303l2.302,1.919l1.92,2.303l2.302,1.919l1.92,2.303l3.07,0.767l3.455,1.152l1.919,2.303l3.07,0.767l4.222,0l3.455,-0.767l1.919,-2.303l2.303,-1.919l1.919,-2.303l3.07,-1.152l3.455,-0.767l1.919,-2.303l2.303,-1.919l1.919,-2.303l2.303,-1.919l1.151,-3.071l0.768,-3.454l2.303,-1.92l1.151,-3.07l0.768,-3.454l2.303,-1.92l1.151,-3.07l0,-4.222l0.768,-3.455l2.303,-1.919l0,-2.303Zm18.039,155.448l0,-4.223l-1.151,-3.454l-2.303,-1.919l-0.768,-3.071l-1.151,-3.454l-2.303,-1.919l-1.919,-2.303l-3.455,-1.151l-3.07,-0.768l-1.919,-2.303l-3.455,-1.151l-3.07,-0.768l-1.919,-2.303l-3.455,-1.151l-4.222,0l-3.07,-0.768l-1.919,-2.303l-3.455,-1.151l-8.444,0l-3.07,1.151l-1.919,2.303l-3.455,0.768l-8.444,0l-3.07,1.151l-1.92,2.303l-3.454,0.768l-8.444,0l-3.07,1.151l-1.92,2.303l-3.454,0.768l-3.071,1.151l-1.919,2.303l-2.303,1.919l-1.919,2.303l-2.303,1.919l-0.767,3.454l0,8.445l0.767,3.07l2.303,1.919l1.919,2.303l2.303,1.919l1.919,2.303l3.071,0.768l3.454,1.151l1.92,2.303l3.07,0.768l3.454,1.151l1.92,2.303l3.07,0.768l3.454,1.151l1.92,2.303l3.07,0.768l3.455,1.151l1.919,2.303l3.07,0.768l3.455,-0.768l1.919,-2.303l3.07,-1.151l8.444,0l3.455,-0.768l1.919,-2.303l3.07,-1.151l8.444,0l3.455,-0.768l1.919,-2.303l3.07,-1.151l3.455,-0.768l1.919,-2.303l2.303,-1.919l1.919,-2.303l2.303,-1.919l1.919,-2.303l2.303,-1.919l1.151,-3.07Zm30.322,9.211l-0.768,3.455l0,4.222l-1.151,3.07l-2.303,1.919l-1.919,2.303l-2.303,1.919l-1.919,2.303l-2.303,1.919l-1.919,2.303l-2.303,1.919l-1.919,2.303l-3.455,0.768l-3.07,1.151l-1.919,2.303l-3.455,0.768l-3.07,1.151l-1.919,2.303l-2.303,1.919l-1.919,2.303l-3.455,0.768l-3.07,1.151l-1.919,2.303l-3.455,0.768l-71.774,0l-3.071,-0.768l-1.919,-2.303l-3.454,-1.151l-3.071,-0.768l-1.919,-2.303l-2.303,-1.919l-1.919,-2.303l-3.454,-1.151l-3.071,-0.768l-1.919,-2.303l-3.454,-1.151l-3.071,-0.768l-1.919,-2.303l-2.303,-1.919l-1.919,-2.303l-2.303,-1.919l-0.767,-3.07l-1.152,-3.455l-2.303,-1.919l-0.767,-3.07l0,-12.666l-1.152,-3.455l-2.303,-1.919l0,-2.303l2.303,-1.919l1.152,-3.071l0,-12.666l0.767,-3.454l2.303,-1.919l1.152,-3.071l0.767,-3.454l2.303,-1.919l1.152,-3.071l0.767,-3.454l2.303,-1.919l1.152,-3.071l0,-4.222l-1.152,-3.454l-2.303,-1.919l-0.767,-3.071l0,-21.11l0.767,-3.454l2.303,-1.919l1.152,-3.071l0.767,-3.454l2.303,-1.919l1.919,-2.303l2.303,-1.919l1.152,-3.071l0.767,-3.454l2.303,-1.919l0,-2.303l-2.303,-1.919l-0.767,-3.071l0,-4.222l-1.152,-3.454l-2.303,-1.919l-0.767,-3.071l0,-16.888l0.767,-3.454l2.303,-1.92l1.152,-3.07l0,-12.666l0.767,-3.455l2.303,-1.919l1.152,-3.07l0.767,-3.455l2.303,-1.919l1.152,-3.07l0.767,-3.455l2.303,-1.919l1.919,-2.303l3.071,-1.151l3.454,-0.768l1.919,-2.303l2.303,-1.919l1.92,-2.303l3.07,-1.151l3.454,-0.768l1.92,-2.303l3.07,-1.151l33.776,0l3.455,1.151l1.919,2.303l3.07,0.768l3.455,1.151l1.919,2.303l3.07,0.768l12.666,0l3.455,-0.768l1.919,-2.303l2.303,-1.919l1.919,-2.303l3.07,-1.151l3.455,-0.768l1.919,-2.303l3.07,-1.151l4.222,0l3.455,1.151l1.919,2.303l3.071,0.768l3.454,1.151l1.919,2.303l2.303,1.919l1.919,2.303l2.303,1.919l1.919,2.303l2.303,1.919l1.151,3.455l-1.151,3.07l-2.303,1.919l-1.919,2.303l-2.303,1.919l-1.919,2.303l-2.303,1.919l-1.919,2.303l-3.454,0.768l-4.222,0l-3.071,1.151l-1.919,2.303l-2.303,1.919l-1.919,2.303l-2.303,1.919l-0.768,3.455l0,25.332l-1.151,3.071l-2.303,1.919l-0.768,3.454l-1.151,3.071l-2.303,1.919l-1.919,2.303l-2.303,1.919l-1.919,2.303l-2.303,1.919l-1.919,2.303l-2.303,1.919l-1.919,2.303l-3.455,0.767l-3.07,1.152l-1.919,2.303l-2.303,1.919l-1.919,2.303l-3.455,0.767l-3.07,1.152l-1.919,2.303l-2.303,1.919l-1.919,2.303l-3.455,0.767l-4.222,0l-3.07,1.152l-1.919,2.303l-2.303,0l-1.919,-2.303l-2.303,0l-1.919,2.303l-3.455,0.767l-12.666,0l-3.07,1.152l-1.92,2.303l-2.302,1.919l-1.92,2.303l-2.303,1.919l0,2.303l2.303,1.919l1.92,2.303l2.302,1.919l1.92,2.303l3.07,0.767l4.222,0l3.454,1.152l1.92,2.303l3.07,0.767l16.888,0l3.455,1.152l1.919,2.303l3.07,0.767l12.666,0l3.455,-0.767l1.919,-2.303l3.07,-1.152l8.444,0l3.455,1.152l1.919,2.303l2.303,1.919l1.919,2.303l3.07,0.767l4.222,0l3.455,1.152l1.919,2.303l3.07,0.768l3.455,1.151l1.919,2.303l2.303,1.919l1.919,2.303l2.303,1.919l1.919,2.303l2.303,1.919l1.919,2.303l2.303,1.919l1.919,2.303l2.303,1.919l1.151,3.454l0,21.111l-1.151,3.07l-2.303,1.919Z" style="fill-rule:nonzero;"/><path d="M1408.13,227.198l-0.768,3.454l-1.151,3.071l-2.303,1.919l-1.919,2.303l-2.303,1.919l-1.919,2.303l-2.303,1.919l-1.919,2.303l-3.455,0.768l-4.222,0l-3.07,-0.768l-1.919,-2.303l-3.455,-1.151l-3.07,-0.768l-1.919,-2.303l-2.303,-1.919l-1.919,-2.303l-2.303,-1.919l-0.768,-3.071l-1.151,-3.454l-2.303,-1.919l-0.768,-3.071l0,-4.222l0.768,-3.454l2.303,-1.919l0,-2.303l-2.303,-1.919l-1.919,-2.303l-2.303,-1.919l-1.919,-2.303l-3.455,-1.152l-4.222,0l-3.07,1.152l-1.919,2.303l-3.455,0.767l-3.07,1.152l-1.92,2.303l-2.302,1.919l-1.92,2.303l-2.302,1.919l-1.92,2.303l-2.302,1.919l-0.768,3.454l-1.152,3.071l-2.303,1.919l-1.919,2.303l-2.303,1.919l-1.919,2.303l-2.303,1.919l-0.767,3.454l-1.152,3.071l-2.303,1.919l-0.767,3.454l-1.152,3.071l-2.303,1.919l-0.767,3.455l0,29.554l-1.152,3.07l-2.303,1.919l0,2.303l2.303,1.919l1.152,3.455l0,8.444l0.767,3.07l2.303,1.919l1.152,3.455l0.767,3.07l2.303,1.919l1.919,2.303l2.303,1.919l1.919,2.303l3.071,0.768l3.454,1.151l1.92,2.303l3.07,0.768l12.666,0l3.455,1.151l1.919,2.303l3.07,0.768l3.455,1.152l1.919,2.302l2.303,1.92l1.151,3.454l0,4.222l-1.151,3.07l-2.303,1.92l-1.919,2.303l-2.303,1.919l-1.919,2.303l-2.303,1.919l-1.919,2.303l-3.455,0.767l-46.442,0l-3.071,1.152l-1.919,2.303l-3.454,0.767l-16.888,0l-3.071,-0.767l-1.919,-2.303l-3.454,-1.152l-8.444,0l-3.071,-0.767l-1.919,-2.303l-3.454,-1.152l-4.222,0l-3.071,-0.767l-1.919,-2.303l-2.303,-1.919l-1.919,-2.303l-2.303,-1.92l-0.768,-3.07l0,-8.444l0.768,-3.454l2.303,-1.92l1.919,-2.303l2.303,-1.919l1.919,-2.303l3.071,-1.151l8.444,0l3.454,1.151l1.919,2.303l3.071,0.768l3.454,-0.768l1.919,-2.303l3.071,-1.151l3.454,-0.768l1.152,-3.07l0.767,-3.455l2.303,-1.919l1.152,-3.07l0,-8.444l0.767,-3.455l2.303,-1.919l1.152,-3.07l0,-33.776l-1.152,-3.455l-2.303,-1.919l-0.767,-3.07l0,-4.222l0.767,-3.455l2.303,-1.919l1.152,-3.071l0,-8.444l-1.152,-3.454l-2.303,-1.919l-0.767,-3.071l0,-12.666l-1.152,-3.454l-2.303,-1.919l-1.919,-2.303l-2.303,-1.919l-1.919,-2.303l-3.454,-1.152l-3.071,-0.767l-1.919,-2.303l-3.454,-1.152l-4.222,0l-3.071,-0.767l-1.919,-2.303l-3.454,-1.152l-3.071,-0.767l-0.768,-3.071l-1.151,-3.454l-2.303,-1.919l0,-2.303l2.303,-1.919l1.919,-2.303l2.303,-1.919l1.919,-2.303l3.071,-1.152l16.888,0l3.454,-0.767l1.919,-2.303l2.303,0l1.919,2.303l2.303,0l1.919,-2.303l3.071,-1.152l4.222,0l3.454,1.152l1.919,2.303l3.071,0.767l3.454,1.152l1.919,2.303l2.303,1.919l1.919,2.303l2.303,1.919l1.919,2.303l3.071,0.767l4.222,0l3.454,-0.767l1.919,-2.303l3.071,-1.152l3.454,-0.767l1.92,-2.303l2.302,-1.919l1.92,-2.303l3.07,-1.152l4.222,0l3.454,-0.767l1.92,-2.303l3.07,-1.152l29.554,0l3.455,1.152l1.919,2.303l3.07,0.767l3.455,1.152l1.919,2.303l3.07,0.767l3.455,1.152l1.919,2.303l2.303,1.919l1.919,2.303l2.303,1.919l1.919,2.303l2.303,1.919l1.151,3.454l0.768,3.071l2.303,1.919l1.151,3.454l0,21.11l-1.151,3.071l-2.303,1.919Z" style="fill-rule:nonzero;"/><path d="M1537.97,294.922l0,-4.222l-1.152,-3.455l-2.303,-1.919l-1.919,-2.303l-2.303,-1.919l-1.919,-2.303l-3.454,-1.151l-12.666,0l-3.071,1.151l-1.919,2.303l-3.454,0.768l-21.11,0l-3.071,1.151l-1.919,2.303l-3.454,0.768l-4.222,0l-3.071,1.151l-1.919,2.303l-3.454,0.768l-3.071,1.151l-1.919,2.303l-2.303,1.919l-1.919,2.303l-2.303,1.919l-0.768,3.455l-1.151,3.07l-2.303,1.919l-0.768,3.455l0,4.222l0.768,3.07l2.303,1.919l1.919,2.303l2.303,1.919l1.919,2.303l2.303,1.919l1.919,2.303l3.071,0.768l25.332,0l3.454,-0.768l1.919,-2.303l3.071,-1.151l3.454,-0.768l1.919,-2.303l2.303,-1.919l1.919,-2.303l3.071,-1.151l3.454,-0.768l1.919,-2.303l3.071,-1.151l3.454,-0.768l1.919,-2.303l3.071,-1.151l3.454,-0.768l1.152,-3.07l0.767,-3.455l2.303,-1.919l1.919,-2.303l2.303,-1.919l1.152,-3.07Zm59.876,59.876l-1.919,2.303l-2.303,1.919l-1.919,2.303l-3.455,0.767l-3.07,1.152l-1.919,2.303l-3.455,0.767l-12.666,0l-3.07,-0.767l-1.92,-2.303l-3.454,-1.152l-3.07,-0.767l-1.92,-2.303l-2.302,-1.919l-1.92,-2.303l-3.454,-1.152l-3.071,-0.768l-1.919,-2.302l-2.303,0l-1.919,2.302l-3.454,0.768l-4.222,0l-3.071,1.152l-1.919,2.303l-3.454,0.767l-3.071,1.152l-1.919,2.303l-3.454,0.767l-4.222,0l-3.071,1.152l-1.919,2.303l-3.454,0.767l-8.444,0l-3.071,1.152l-1.919,2.303l-2.303,0l-1.919,-2.303l-3.454,-1.152l-21.11,0l-3.071,-0.767l-1.919,-2.303l-3.454,-1.152l-3.071,-0.767l-1.919,-2.303l-3.454,-1.152l-3.071,-0.767l-1.919,-2.303l-2.303,-1.92l-1.919,-2.302l-2.303,-1.92l-1.919,-2.302l-2.303,-1.92l-1.919,-2.302l-2.303,-1.92l-0.768,-3.07l-1.151,-3.454l-2.303,-1.92l-0.768,-3.07l0,-4.222l-1.151,-3.455l-2.303,-1.919l-0.768,-3.07l0,-12.666l0.768,-3.455l2.303,-1.919l1.151,-3.07l0,-4.222l0.768,-3.455l2.303,-1.919l1.151,-3.07l0.768,-3.455l2.303,-1.919l1.919,-2.303l2.303,-1.919l1.919,-2.303l2.303,-1.919l1.919,-2.303l3.071,-1.151l4.222,0l3.454,-0.768l1.919,-2.303l3.071,-1.151l4.222,0l3.454,-0.768l1.919,-2.303l3.071,-1.151l16.888,0l3.454,-0.768l1.919,-2.303l3.071,-1.151l12.666,0l3.454,-0.768l1.919,-2.303l3.071,-1.151l21.11,0l3.454,-0.768l1.919,-2.303l2.303,-1.919l1.919,-2.303l3.071,-1.151l3.454,-0.768l1.152,-3.071l0,-8.444l-1.152,-3.454l-2.303,-1.919l0,-2.303l2.303,-1.919l0,-2.303l-2.303,-1.919l-0.767,-3.071l-1.152,-3.454l-2.303,-1.919l-1.919,-2.303l-2.303,-1.919l-1.919,-2.303l-3.454,-1.152l-4.222,0l-3.071,-0.767l-1.919,-2.303l-2.303,0l-1.919,2.303l-3.454,0.767l-29.554,0l-3.071,1.152l-1.919,2.303l-2.303,1.919l-1.919,2.303l-2.303,1.919l-0.767,3.454l0,12.666l-1.152,3.071l-2.303,1.919l-1.919,2.303l-2.303,1.919l-1.919,2.303l-3.454,0.768l-8.444,0l-3.071,-0.768l-1.919,-2.303l-3.454,-1.151l-3.071,-0.768l-1.919,-2.303l-2.303,-1.919l-0.768,-3.071l0,-4.222l-1.151,-3.454l-2.303,-1.919l-0.768,-3.071l0,-4.222l0.768,-3.454l2.303,-1.919l1.151,-3.071l0.768,-3.454l2.303,-1.919l1.919,-2.303l2.303,-1.919l1.919,-2.303l3.071,-1.152l3.454,-0.767l1.919,-2.303l3.071,-1.152l3.454,-0.767l1.919,-2.303l3.071,-1.152l16.888,0l3.454,-0.767l1.919,-2.303l2.303,0l1.919,2.303l3.071,0.767l16.888,0l3.454,1.152l1.919,2.303l3.071,0.767l12.666,0l3.454,1.152l1.919,2.303l3.071,0.767l3.454,1.152l1.919,2.303l2.303,1.919l1.92,2.303l2.302,1.919l1.92,2.303l2.302,1.919l1.92,2.303l2.302,1.919l1.152,3.454l0.768,3.071l2.302,1.919l1.152,3.454l0,21.11l0.768,3.071l2.302,1.919l1.152,3.454l0,67.553l0.768,3.07l2.303,1.919l1.919,2.303l2.303,1.919l1.919,2.303l3.07,0.768l3.455,1.151l1.919,2.303l3.07,0.768l3.455,1.151l1.919,2.303l3.07,0.768l3.455,1.152l1.151,3.454l0,12.666l-1.151,3.07l-2.303,1.92Z" style="fill-rule:nonzero;"/><path d="M1780.1,308.275l-0.767,3.454l0,8.444l-1.152,3.071l-2.303,1.919l-0.767,3.454l-1.152,3.071l-2.303,1.919l-0.767,3.454l-1.152,3.071l-2.303,1.919l-0.767,3.454l-1.152,3.071l-2.303,1.919l-1.919,2.303l-2.303,1.919l-1.919,2.303l-3.454,0.768l-3.071,1.151l-1.919,2.303l-3.454,0.768l-3.071,1.151l-1.919,2.303l-3.454,0.768l-21.11,0l-3.071,1.151l-1.919,2.303l-3.454,0.768l-4.222,0l-3.071,-0.768l-1.919,-2.303l-3.454,-1.151l-8.444,0l-3.071,-0.768l-1.919,-2.303l-3.454,-1.151l-16.889,0l-3.07,1.151l-1.919,2.303l-3.455,0.768l-3.07,1.151l-1.919,2.303l-3.455,0.768l-3.07,-0.768l-1.919,-2.303l-2.303,-1.919l-1.919,-2.303l-2.303,-1.919l-0.768,-3.071l0,-12.666l-1.151,-3.454l-2.303,-1.919l-0.768,-3.071l-1.151,-3.454l-2.303,-1.919l-0.768,-3.071l0,-8.444l0.768,-3.454l2.303,-1.919l1.151,-3.071l0.768,-3.454l2.303,-1.919l1.919,-2.303l3.07,-1.152l8.444,0l3.455,1.152l1.151,3.454l0.768,3.071l3.07,0.767l3.455,1.152l1.919,2.303l2.303,1.919l1.919,2.303l2.303,1.919l1.919,2.303l3.071,0.767l3.454,1.152l1.919,2.303l3.071,0.767l4.222,0l3.454,1.152l1.919,2.303l3.071,0.768l4.222,0l3.454,-0.768l1.919,-2.303l3.071,-1.152l12.666,0l3.454,-0.767l1.919,-2.303l3.071,-1.152l3.454,-0.767l1.919,-2.303l2.303,-1.919l1.919,-2.303l2.303,-1.919l1.919,-2.303l3.071,-1.152l3.454,-0.767l1.152,-3.071l0,-8.444l-1.152,-3.454l-2.303,-1.919l-1.919,-2.303l-2.303,-1.919l-1.919,-2.303l-3.454,-1.152l-3.071,-0.767l-1.919,-2.303l-3.454,-1.152l-4.222,0l-3.071,-0.767l-1.919,-2.303l-3.454,-1.152l-8.444,0l-3.071,-0.767l-1.919,-2.303l-3.454,-1.152l-12.666,0l-3.071,-0.767l-1.919,-2.303l-3.454,-1.152l-3.071,-0.767l-1.919,-2.303l-2.303,-1.919l-1.919,-2.303l-2.303,-1.919l-1.919,-2.303l-3.455,-1.152l-3.07,-0.767l-0.768,-3.071l-1.151,-3.454l-3.455,-1.152l-3.07,-0.767l-0.768,-3.071l-1.151,-3.454l-2.303,-1.92l-1.919,-2.302l-2.303,-1.92l-0.768,-3.07l0,-4.222l-1.151,-3.455l-2.303,-1.919l-0.768,-3.07l0.768,-3.455l2.303,-1.919l1.151,-3.07l0,-4.222l0.768,-3.455l2.303,-1.919l1.151,-3.07l0.768,-3.455l2.303,-1.919l1.919,-2.303l2.303,-1.919l1.919,-2.303l3.07,-1.151l3.455,-0.768l1.919,-2.303l3.07,-1.151l3.455,-0.768l1.919,-2.303l3.071,-1.151l4.222,0l3.454,-0.768l1.919,-2.303l3.071,-1.151l3.454,-0.768l1.919,-2.303l3.071,-1.151l4.222,0l3.454,1.151l1.919,2.303l3.071,0.768l8.444,0l3.454,1.151l1.919,2.303l3.071,0.768l33.776,0l3.454,1.151l1.919,2.303l2.303,1.919l1.152,3.455l0.767,3.07l2.303,1.919l1.152,3.455l0,21.11l-1.152,3.07l-2.303,1.919l-1.919,2.303l-3.454,0.768l-4.222,0l-3.071,-0.768l-1.919,-2.303l-2.303,-1.919l-1.919,-2.303l-2.303,-1.919l-1.919,-2.303l-2.303,-1.919l-1.919,-2.303l-2.303,-1.919l-1.919,-2.303l-3.454,-1.151l-3.071,-0.768l-1.919,-2.303l-3.454,-1.151l-12.666,0l-3.071,-0.768l-1.919,-2.303l-3.454,-1.151l-16.888,0l-3.071,-0.768l-1.919,-2.303l-2.303,0l-0.768,3.455l-1.151,3.07l-2.303,1.919l-1.919,2.303l-2.303,1.919l-0.768,3.455l-1.151,3.07l-2.303,1.919l-0.768,3.455l-1.151,3.07l-2.303,1.919l0,2.303l2.303,1.919l1.151,3.455l0.768,3.07l2.303,1.92l1.919,2.302l2.303,1.92l1.919,2.302l2.303,1.92l1.919,2.302l3.071,0.768l16.888,0l3.454,1.152l1.919,2.303l3.071,0.767l4.222,0l3.454,1.152l1.919,2.303l3.071,0.767l16.888,0l3.454,1.152l1.919,2.303l3.071,0.767l4.222,0l3.454,1.152l1.919,2.303l3.071,0.767l3.454,1.152l1.919,2.303l2.303,1.919l1.919,2.303l2.303,1.919l1.919,2.303l2.303,1.919l1.152,3.454l0.767,3.071l2.303,1.919l1.152,3.454l0.767,3.071l2.303,1.919l1.152,3.454l0.767,3.071l2.303,1.919l1.152,3.454l-1.152,3.071l-2.303,1.919Z" style="fill-rule:nonzero;"/><path d="M1969.26,241.187l-1.152,-3.454l-2.302,-1.92l-0.768,-3.07l-1.152,-3.454l-2.302,-1.92l-1.92,-2.303l-2.302,-1.919l-0.768,-3.07l-1.152,-3.455l-2.302,-1.919l-1.92,-2.303l-2.302,-1.919l-1.92,-2.303l-2.303,-1.919l-1.919,-2.303l-2.303,-1.919l-1.919,-2.303l-2.303,-1.919l-1.919,-2.303l-3.454,-1.151l-29.554,0l-3.071,1.151l-1.919,2.303l-3.454,0.768l-8.444,0l-3.071,1.151l-1.919,2.303l-2.303,1.919l-1.919,2.303l-2.303,1.919l-1.919,2.303l-2.303,1.919l-0.767,3.455l0,12.666l-1.152,3.07l-2.303,1.92l-0.767,3.454l0,16.888l-1.152,3.071l-2.303,1.919l-0.768,3.454l0,8.444l0.768,3.071l2.303,1.919l1.152,3.454l0,4.222l0.767,3.071l2.303,1.919l1.152,3.454l0,8.444l0.767,3.071l2.303,1.919l1.152,3.454l0.767,3.071l2.303,1.919l1.919,2.303l2.303,1.919l1.152,3.454l0.767,3.071l3.071,0.767l3.454,1.152l1.919,2.303l3.071,0.767l3.454,1.152l1.919,2.303l3.071,0.768l3.454,1.151l1.919,2.303l3.071,0.768l25.332,0l3.454,-0.768l1.919,-2.303l2.303,-1.919l1.919,-2.303l2.303,-1.919l1.152,-3.071l0.768,-3.454l2.302,-1.919l1.152,-3.071l0.768,-3.454l2.302,-1.919l1.152,-3.071l0,-12.666l0.768,-3.454l2.302,-1.919l1.152,-3.071l0,-8.444l0.768,-3.454l2.302,-1.919l1.152,-3.071l0,-21.11l0.768,-3.454l2.302,-1.92l1.152,-3.07Zm17.656,51.432l-0.768,3.454l0,8.444l-1.151,3.071l-2.303,1.919l-0.768,3.454l0,8.444l-1.151,3.071l-2.303,1.919l-1.919,2.303l-2.303,1.919l-1.919,2.303l-2.303,1.919l-1.92,2.303l-2.302,1.919l-1.92,2.303l-2.302,1.919l-1.92,2.303l-3.454,0.768l-3.07,1.151l-1.92,2.303l-2.302,1.919l-1.92,2.303l-2.303,1.919l-1.919,2.303l-3.454,0.768l-4.222,0l-3.071,1.151l-1.919,2.303l-2.303,0l-1.919,-2.303l-2.303,0l-1.919,2.303l-3.454,0.768l-8.444,0l-3.071,1.151l-1.919,2.303l-2.303,0l-1.919,-2.303l-3.454,-1.151l-16.888,0l-3.071,1.151l-1.919,2.303l-2.303,1.919l-1.919,2.303l-2.303,1.919l-0.767,3.455l-1.152,3.07l-2.303,1.919l-0.767,3.455l0,8.444l0.767,3.07l2.303,1.919l1.152,3.455l0.767,3.07l3.071,0.768l3.454,1.151l1.919,2.303l3.071,0.768l3.454,1.151l1.919,2.303l2.303,1.919l1.919,2.303l2.303,1.919l1.152,3.455l-1.152,3.07l-2.303,1.919l-1.919,2.303l-3.454,0.768l-3.071,1.151l-1.919,2.303l-3.454,0.768l-50.664,0l-3.071,-0.768l-1.919,-2.303l-3.455,-1.151l-3.07,-0.768l-1.919,-2.303l-2.303,-1.919l-1.919,-2.303l-2.303,-1.919l0,-2.303l2.303,-1.919l1.919,-2.303l2.303,-1.919l1.919,-2.303l3.07,-1.151l3.455,-0.768l1.919,-2.303l2.303,-1.919l1.919,-2.303l2.303,-1.919l1.919,-2.303l2.303,-1.919l1.151,-3.07l0,-63.331l0.768,-3.454l2.303,-1.919l1.151,-3.071l0,-75.996l0.768,-3.454l2.303,-1.92l1.151,-3.07l-1.151,-3.454l-2.303,-1.92l-0.768,-3.07l0,-12.666l-1.151,-3.455l-2.303,-1.919l-0.768,-3.07l-1.151,-3.455l-2.303,-1.919l-1.919,-2.303l-2.303,-1.919l-1.919,-2.303l-3.455,-1.151l-3.07,-0.768l-1.919,-2.303l-3.455,-1.151l-3.07,-0.768l0,-2.303l2.303,-1.919l1.919,-2.303l3.07,-1.151l4.222,0l3.455,-0.768l1.919,-2.303l3.071,-1.151l12.666,0l3.454,1.151l1.919,2.303l3.071,0.768l4.222,0l3.454,1.151l1.919,2.303l3.071,0.768l8.444,0l3.454,-0.768l1.919,-2.303l3.071,-1.151l3.454,-0.768l1.919,-2.303l3.071,-1.151l8.444,0l3.454,-0.768l1.919,-2.303l3.071,-1.151l8.444,0l3.454,1.151l1.919,2.303l3.071,0.768l12.666,0l3.454,1.151l1.919,2.303l2.303,1.919l1.919,2.303l2.303,1.919l1.92,2.303l3.07,0.768l3.454,1.151l1.92,2.303l2.302,1.919l1.92,2.303l2.302,1.919l1.92,2.303l2.302,1.919l1.152,3.455l0.768,3.07l2.303,1.919l1.151,3.455l0,4.222l0.768,3.07l2.303,1.919l1.151,3.455l0,4.222l0.768,3.07l2.303,1.92l1.151,3.454l0,4.222l0.768,3.07l2.303,1.92l1.151,3.454l0,16.888l0.768,3.071l2.303,1.919l1.151,3.454l0,8.444l-1.151,3.071l-2.303,1.919Z" style="fill-rule:nonzero;"/><path d="M2080.66,343.041l-0.592,2.668l-0.89,2.371l-1.778,1.482l-1.483,1.779l-1.778,1.482l-1.482,1.779l-1.779,1.482l-1.482,1.779l-1.779,1.482l-1.482,1.778l-1.779,1.483l-1.482,1.778l-2.668,0.593l-2.371,0.889l-1.483,1.779l-2.668,0.593l-9.782,0l-2.371,-0.593l-1.483,-1.779l-2.668,-0.889l-2.371,-0.593l-1.482,-1.778l-1.779,-1.483l-1.482,-1.778l-1.779,-1.482l-1.482,-1.779l-1.779,-1.482l-0.592,-2.372l-0.89,-2.668l-1.778,-1.482l-1.483,-1.778l-2.668,-0.89l-2.371,-0.593l-0.593,-2.371l0,-9.783l-0.889,-2.668l-1.779,-1.482l0,-1.778l1.779,-1.483l0.889,-2.371l0.593,-2.668l1.779,-1.482l0.889,-2.372l0,-3.261l0.593,-2.668l1.778,-1.482l0.89,-2.371l0.593,-2.668l1.778,-1.482l1.482,-1.779l2.372,-0.889l2.668,-0.593l1.482,-1.779l2.372,-0.889l2.667,-0.593l1.483,-1.779l2.371,-0.889l2.668,0.889l1.482,1.779l2.372,0.593l3.261,0l2.668,0.889l1.482,1.779l2.371,0.593l2.668,0.889l1.482,1.779l2.372,0.593l2.668,0.889l1.482,1.778l1.779,1.483l1.482,1.778l1.779,1.482l1.482,1.779l1.778,1.482l1.483,1.779l1.778,1.482l0.89,2.668l0,9.783l0.592,2.371l1.779,1.482l0.889,2.668l0,3.261l-0.889,2.372l-1.779,1.482Z" style="fill-rule:nonzero;"/></svg>